M48
INCH,TZ
T1C0.025
T2C0.032
T3C0.035
T4C0.039
T5C0.040
T6C0.051
T7C0.059
T8C0.090
T9C0.120
%
G90
G05
T1
X033000Y-040125
X034500Y-040125
X035250Y-043250
X035375Y-044875
X036125Y-042625
X037000Y-040125
X038500Y-033000
X038500Y-049750
X039500Y-040375
X040250Y-033000
X040750Y-038000
X045500Y-040500
X046500Y-064500
X047250Y-036750
X049750Y-032000
X050500Y-032250
X051000Y-045250
X051250Y-032500
X051250Y-042500
X051250Y-048500
X051500Y-044750
X051500Y-051250
X051750Y-032750
X052000Y-056375
X052500Y-031500
X052500Y-060000
X054000Y-047875
X054000Y-068125
X054500Y-036500
X054875Y-057625
X055000Y-033000
X055125Y-054625
X055500Y-037875
X056000Y-066750
X056375Y-047125
X056500Y-039875
X056875Y-057375
X057125Y-042875
X058150Y-053400
X058500Y-067000
X058750Y-050250
X060250Y-062000
X061625Y-060250
X062250Y-063500
X062375Y-060125
X062500Y-047750
X062625Y-058500
X062875Y-057375
X063000Y-032000
X063000Y-061000
X063050Y-053200
X063500Y-035550
X063500Y-040125
X063500Y-064875
X064000Y-032500
X064500Y-036250
X064750Y-041000
X065000Y-033000
X066000Y-033250
X066000Y-058750
X066750Y-033500
X067000Y-058250
X067500Y-033750
X068000Y-058000
X068500Y-034000
X069000Y-058250
X069375Y-040625
X069500Y-034250
X069875Y-056375
X070325Y-040375
X070625Y-050625
X070750Y-055000
X071000Y-056750
X071375Y-050375
X071500Y-038000
X071500Y-056350
X071775Y-040250
X072200Y-042125
X073000Y-034500
X073000Y-056500
X073250Y-038000
X073250Y-039500
X073500Y-034250
X073500Y-055000
X073900Y-049750
X074000Y-056500
X075000Y-056500
X075750Y-056500
X076500Y-056500
X077000Y-048750
X077500Y-056500
X078000Y-049250
X078500Y-035250
X078500Y-059100
X079000Y-056700
X079375Y-048625
X079750Y-052000
X079750Y-070000
X080000Y-033875
X080000Y-057000
X080500Y-034625
X081250Y-033750
X081250Y-070000
X081750Y-034375
X082500Y-051500
X082500Y-053150
X082750Y-033500
X083250Y-033250
X083500Y-069000
X084000Y-033125
X084000Y-064125
X084000Y-064875
X085000Y-032875
X085500Y-068875
X085725Y-057375
X085875Y-064125
X085875Y-064625
X086000Y-032625
X086500Y-057500
X087000Y-032375
X087000Y-052500
X087375Y-043375
X087575Y-052725
X090500Y-036125
X092500Y-034875
X093500Y-034350
X093500Y-043500
X094450Y-059850
X095500Y-034625
X096750Y-040000
X097500Y-053000
X098000Y-046500
X098350Y-052725
X098475Y-031775
X098625Y-047000
X098625Y-052000
X099000Y-042500
X099375Y-058875
X099500Y-039375
X099500Y-042250
X099625Y-032000
X099750Y-053000
X100000Y-069250
X100225Y-053325
X100275Y-032225
X100625Y-053700
X100800Y-032450
X101500Y-032875
X102000Y-034125
X102500Y-033125
X102500Y-054250
X103000Y-033750
X103000Y-061500
X104000Y-033425
X104000Y-055000
X104000Y-061250
X104500Y-033750
X105000Y-033075
X105000Y-055250
X105500Y-034125
X105750Y-067500
X105750Y-068000
X105750Y-068500
X106000Y-032875
X106000Y-055500
X106500Y-060750
X107000Y-055750
X107500Y-061000
X108000Y-056000
X108500Y-039375
X108875Y-038125
X109000Y-032125
X109000Y-045625
X109000Y-056250
X109500Y-031750
X109500Y-053000
X109500Y-064000
X109500Y-068750
X110000Y-040750
X110000Y-056500
X110250Y-068750
X110500Y-057000
X110500Y-064000
X111000Y-068750
X111500Y-053850
X111500Y-064750
X111750Y-068750
X112000Y-036250
X112000Y-038125
X112000Y-062750
X112400Y-032600
X112500Y-064250
X112750Y-050000
X113000Y-047250
X113000Y-054000
X113000Y-061750
X113100Y-036250
X113125Y-069000
X113375Y-041875
X113500Y-062250
X113500Y-065500
X113500Y-069375
X113875Y-060875
X114000Y-051250
X114125Y-069000
X114250Y-061750
X114250Y-064375
X114500Y-036250
X114875Y-058125
X115250Y-045375
X115950Y-070500
X116500Y-036500
X116750Y-070375
X116875Y-058875
X116950Y-066000
X117000Y-053250
X117075Y-068375
X117250Y-055500
X117250Y-070375
X117500Y-041500
X117525Y-068100
X117850Y-070400
X118500Y-060500
X119000Y-036350
X119000Y-047750
X119375Y-059375
X119500Y-065750
X119500Y-067250
X119750Y-047750
X119950Y-032100
X120000Y-061000
X120125Y-040375
X121000Y-045750
X121000Y-059250
X121000Y-066875
X121500Y-066375
X122000Y-045250
X122000Y-060750
X122500Y-045750
X122750Y-067250
X123000Y-045000
X123000Y-060750
X123500Y-044500
X123500Y-047000
X124000Y-032100
X124500Y-044500
X124500Y-046500
X124750Y-042250
X125500Y-044500
X126500Y-043000
X126500Y-066750
X128000Y-032100
X128500Y-055000
X129500Y-041000
X130375Y-033375
X130500Y-041375
X130500Y-069500
X131050Y-040550
X131200Y-033350
X131500Y-039375
X132000Y-068750
X132600Y-054250
X133500Y-053750
X135000Y-036500
X135500Y-037750
T2
X027500Y-041000
X028000Y-048000
X028000Y-049000
X028000Y-050000
X028500Y-043220
X028500Y-045780
X029000Y-051000
X029000Y-053000
X029500Y-054000
X029500Y-057000
X029500Y-058000
X029500Y-061000
X029500Y-062000
X029500Y-065000
X029500Y-066000
X029500Y-069000
X030000Y-048000
X030000Y-050000
X030500Y-041000
X030500Y-054000
X030500Y-057000
X030500Y-058000
X030500Y-061000
X030500Y-062000
X030500Y-065000
X031500Y-041000
X031500Y-043000
X031500Y-046000
X031500Y-048000
X031500Y-051000
X031500Y-053000
X031500Y-056000
X031500Y-058000
X031500Y-061000
X031500Y-063000
X031500Y-066000
X031500Y-068000
X033000Y-041000
X033000Y-044000
X033000Y-046000
X033000Y-049000
X033000Y-051000
X033000Y-054000
X033000Y-056000
X033000Y-059000
X033000Y-061000
X033000Y-064000
X033000Y-066000
X033000Y-069000
X034000Y-041000
X034000Y-044000
X034000Y-046000
X034000Y-049000
X034000Y-051000
X034000Y-054000
X034000Y-056000
X034000Y-059000
X034000Y-061000
X034000Y-064000
X034000Y-066000
X034000Y-069000
X035000Y-041000
X035000Y-044000
X035000Y-046000
X035000Y-049000
X035000Y-051000
X035000Y-054000
X035000Y-056000
X035000Y-059000
X035000Y-061000
X035000Y-064000
X035000Y-066000
X035000Y-069000
X036000Y-041000
X036000Y-044000
X036000Y-046000
X036000Y-049000
X036000Y-051000
X036000Y-054000
X036000Y-056000
X036000Y-059000
X036000Y-061000
X036000Y-064000
X036000Y-066000
X036000Y-069000
X036500Y-031000
X036500Y-033000
X037000Y-041000
X037000Y-044000
X037000Y-046000
X037000Y-049000
X037000Y-051000
X037000Y-054000
X037000Y-056000
X037000Y-059000
X037000Y-061000
X037000Y-064000
X037000Y-066000
X037000Y-069000
X038000Y-031000
X038000Y-034000
X038000Y-041000
X038000Y-044000
X038000Y-046000
X038000Y-049000
X038000Y-051000
X038000Y-054000
X038000Y-056000
X038000Y-059000
X038000Y-061000
X038000Y-064000
X038000Y-066000
X038000Y-069000
X039000Y-031000
X039000Y-034000
X039000Y-036000
X039000Y-038000
X039000Y-041000
X039000Y-044000
X039000Y-046000
X039000Y-049000
X039000Y-051000
X039000Y-054000
X039000Y-056000
X039000Y-059000
X039000Y-061000
X039000Y-064000
X039000Y-066000
X039000Y-069000
X040000Y-031000
X040000Y-034000
X041000Y-031000
X041000Y-034000
X041500Y-036000
X041500Y-038000
X041500Y-041000
X041500Y-043000
X041500Y-046000
X041500Y-048000
X041500Y-051000
X041500Y-053000
X041500Y-066000
X041500Y-068000
X042000Y-031000
X042000Y-034000
X042000Y-055500
X042500Y-061500
X043000Y-031000
X043000Y-034000
X043000Y-036000
X043000Y-039000
X043000Y-041000
X043000Y-044000
X043000Y-046000
X043000Y-049000
X043000Y-051000
X043000Y-054000
X043000Y-055500
X043000Y-066000
X043000Y-069000
X043500Y-063500
X043500Y-064500
X044000Y-031000
X044000Y-034000
X044000Y-036000
X044000Y-039000
X044000Y-041000
X044000Y-044000
X044000Y-046000
X044000Y-049000
X044000Y-051000
X044000Y-054000
X044000Y-055500
X044000Y-057000
X044000Y-060000
X044000Y-066000
X044000Y-069000
X044500Y-061500
X045000Y-031000
X045000Y-034000
X045000Y-036000
X045000Y-039000
X045000Y-041000
X045000Y-044000
X045000Y-046000
X045000Y-049000
X045000Y-051000
X045000Y-054000
X045000Y-055500
X045000Y-057000
X045000Y-060000
X045000Y-066000
X045000Y-069000
X045500Y-063500
X045500Y-064500
X046000Y-036000
X046000Y-039000
X046000Y-041000
X046000Y-044000
X046000Y-046000
X046000Y-049000
X046000Y-051000
X046000Y-054000
X046000Y-055500
X046000Y-057000
X046000Y-060000
X046000Y-066000
X046000Y-069000
X046500Y-063500
X047000Y-036000
X047000Y-039000
X047000Y-041000
X047000Y-044000
X047000Y-046000
X047000Y-049000
X047000Y-051000
X047000Y-054000
X047000Y-055500
X047000Y-057000
X047000Y-060000
X047000Y-066000
X047000Y-069000
X047500Y-031000
X047500Y-033000
X048000Y-036000
X048000Y-039000
X048000Y-041000
X048000Y-044000
X048000Y-046000
X048000Y-049000
X048000Y-051000
X048000Y-054000
X048000Y-055500
X048000Y-057000
X048000Y-060000
X048000Y-061500
X048000Y-064500
X048000Y-066000
X048000Y-069000
X049000Y-031000
X049000Y-034000
X049000Y-036000
X049000Y-039000
X049000Y-041000
X049000Y-044000
X049000Y-046000
X049000Y-049000
X049000Y-051000
X049000Y-054000
X049000Y-055500
X049000Y-057000
X049000Y-060000
X049000Y-061500
X049000Y-064500
X049000Y-066000
X049000Y-069000
X050000Y-031000
X050000Y-034000
X050000Y-041000
X050000Y-044000
X050000Y-046000
X050000Y-049000
X050000Y-055500
X050000Y-057000
X050000Y-060000
X050000Y-061500
X050000Y-064500
X050000Y-066000
X050000Y-069000
X051000Y-031000
X051000Y-034000
X051000Y-055500
X051000Y-057000
X051000Y-060000
X051000Y-061500
X051000Y-064500
X051000Y-066000
X051000Y-069000
X051500Y-036000
X051500Y-038000
X052000Y-031000
X052000Y-034000
X052500Y-041000
X052500Y-043000
X052500Y-046000
X052500Y-048000
X052500Y-051000
X052500Y-053000
X052500Y-056000
X052500Y-058000
X052500Y-061000
X052500Y-063000
X052500Y-066000
X052500Y-068000
X053000Y-031000
X053000Y-034000
X053000Y-036000
X053000Y-039000
X054000Y-031000
X054000Y-034000
X054000Y-036000
X054000Y-039000
X054000Y-041000
X054000Y-044000
X054000Y-046000
X054000Y-049000
X054000Y-051000
X054000Y-054000
X054000Y-056000
X054000Y-059000
X054000Y-061000
X054000Y-064000
X054000Y-066000
X054000Y-069000
X055000Y-031000
X055000Y-034000
X055000Y-036000
X055000Y-039000
X055000Y-041000
X055000Y-044000
X055000Y-046000
X055000Y-049000
X055000Y-051000
X055000Y-054000
X055000Y-056000
X055000Y-059000
X055000Y-061000
X055000Y-064000
X055000Y-066000
X055000Y-069000
X056000Y-031000
X056000Y-034000
X056000Y-036000
X056000Y-039000
X056000Y-041000
X056000Y-044000
X056000Y-046000
X056000Y-049000
X056000Y-051000
X056000Y-054000
X056000Y-056000
X056000Y-059000
X056000Y-061000
X056000Y-064000
X056000Y-066000
X056000Y-069000
X057000Y-031000
X057000Y-034000
X057000Y-036000
X057000Y-039000
X057000Y-041000
X057000Y-044000
X057000Y-046000
X057000Y-049000
X057000Y-051000
X057000Y-054000
X057000Y-056000
X057000Y-059000
X057000Y-061000
X057000Y-064000
X057000Y-066000
X057000Y-069000
X058000Y-031000
X058000Y-034000
X058000Y-036000
X058000Y-039000
X058000Y-041000
X058000Y-044000
X058000Y-046000
X058000Y-049000
X058000Y-051000
X058000Y-054000
X058000Y-056000
X058000Y-059000
X058000Y-061000
X058000Y-064000
X058000Y-066000
X058000Y-069000
X059000Y-036000
X059000Y-039000
X059000Y-041000
X059000Y-044000
X059000Y-046000
X059000Y-049000
X059000Y-051000
X059000Y-054000
X059000Y-056000
X059000Y-059000
X059000Y-061000
X059000Y-064000
X059000Y-066000
X059000Y-069000
X060000Y-041000
X060000Y-044000
X060000Y-046000
X060000Y-049000
X060000Y-051000
X060000Y-054000
X060000Y-056000
X060000Y-059000
X060000Y-061000
X060000Y-064000
X060000Y-066000
X060000Y-069000
X060500Y-031000
X060500Y-033000
X061000Y-041000
X061000Y-044000
X061000Y-051000
X061000Y-054000
X061000Y-066000
X061000Y-069000
X062000Y-031000
X062000Y-037000
X063000Y-031000
X063000Y-037000
X063500Y-039000
X063500Y-041000
X063500Y-044000
X063500Y-046000
X063500Y-049000
X063500Y-051000
X063500Y-054000
X063500Y-056000
X063500Y-062000
X063500Y-064000
X064000Y-031000
X064000Y-037000
X065000Y-031000
X065000Y-037000
X065000Y-039000
X065000Y-042000
X065000Y-044000
X065000Y-047000
X065000Y-049000
X065000Y-052000
X065000Y-054000
X065000Y-060000
X065000Y-062000
X065000Y-068000
X066000Y-031000
X066000Y-037000
X066000Y-039000
X066000Y-042000
X066000Y-044000
X066000Y-047000
X066000Y-049000
X066000Y-052000
X066000Y-054000
X066000Y-060000
X066000Y-062000
X066000Y-068000
X067000Y-031000
X067000Y-037000
X067000Y-039000
X067000Y-042000
X067000Y-044000
X067000Y-047000
X067000Y-049000
X067000Y-052000
X067000Y-054000
X067000Y-060000
X067000Y-062000
X067000Y-068000
X068000Y-031000
X068000Y-037000
X068000Y-039000
X068000Y-042000
X068000Y-044000
X068000Y-047000
X068000Y-049000
X068000Y-052000
X068000Y-054000
X068000Y-060000
X068000Y-062000
X068000Y-068000
X069000Y-031000
X069000Y-037000
X069000Y-039000
X069000Y-042000
X069000Y-044000
X069000Y-047000
X069000Y-049000
X069000Y-052000
X069000Y-054000
X069000Y-060000
X069000Y-062000
X069000Y-068000
X070000Y-031000
X070000Y-037000
X070000Y-039000
X070000Y-042000
X070000Y-044000
X070000Y-047000
X070000Y-049000
X070000Y-052000
X070000Y-054000
X070000Y-060000
X070000Y-062000
X070000Y-068000
X071000Y-031000
X071000Y-037000
X071000Y-039000
X071000Y-042000
X071000Y-044000
X071000Y-047000
X071000Y-049000
X071000Y-052000
X071000Y-054000
X071000Y-060000
X071000Y-062000
X071000Y-068000
X072000Y-031000
X072000Y-037000
X072000Y-054000
X072000Y-060000
X072000Y-062000
X072000Y-068000
X073000Y-031000
X073000Y-037000
X073000Y-054000
X073000Y-060000
X073000Y-062000
X073000Y-068000
X073500Y-041000
X073500Y-043000
X073500Y-047000
X073500Y-049000
X074000Y-052000
X074000Y-054000
X074000Y-060000
X074000Y-062000
X074000Y-068000
X075000Y-039500
X075000Y-041000
X075000Y-044000
X075000Y-045500
X075000Y-047000
X075000Y-050000
X075000Y-052000
X075000Y-054000
X075000Y-060000
X075000Y-062000
X075000Y-068000
X075500Y-031000
X075500Y-033000
X076000Y-039500
X076000Y-041000
X076000Y-044000
X076000Y-045500
X076000Y-047000
X076000Y-050000
X076000Y-052000
X076000Y-054000
X076000Y-060000
X076000Y-062000
X076000Y-068000
X077000Y-031000
X077000Y-037000
X077000Y-039500
X077000Y-041000
X077000Y-044000
X077000Y-045500
X077000Y-047000
X077000Y-050000
X077000Y-052000
X077000Y-054000
X077000Y-060000
X077000Y-062000
X077000Y-068000
X078000Y-031000
X078000Y-037000
X078000Y-038250
X078000Y-039500
X078000Y-041000
X078000Y-044000
X078000Y-045500
X078000Y-047000
X078000Y-050000
X078000Y-052000
X078000Y-054000
X078000Y-060000
X078000Y-062000
X078000Y-068000
X079000Y-031000
X079000Y-037000
X079000Y-038250
X079000Y-039500
X079000Y-041000
X079000Y-044000
X079000Y-045500
X079000Y-047000
X079000Y-050000
X079000Y-052000
X079000Y-054000
X079000Y-060000
X079000Y-062000
X079000Y-068000
X080000Y-031000
X080000Y-037000
X080000Y-039500
X080000Y-041000
X080000Y-044000
X080000Y-045500
X080000Y-047000
X080000Y-050000
X080000Y-054000
X080000Y-060000
X080000Y-062000
X080000Y-068000
X081000Y-031000
X081000Y-037000
X081000Y-039500
X081000Y-041000
X081000Y-044000
X081000Y-045500
X081000Y-047000
X081000Y-050000
X081000Y-054000
X081000Y-060000
X081000Y-062000
X081000Y-068000
X082000Y-031000
X082000Y-037000
X082000Y-039500
X082000Y-041000
X082000Y-044000
X082000Y-045500
X082000Y-047000
X082000Y-050000
X082000Y-054000
X082000Y-060000
X082000Y-062000
X082000Y-068000
X083000Y-031000
X083000Y-037000
X083000Y-039500
X083000Y-041000
X083000Y-044000
X083000Y-045500
X083000Y-047000
X083000Y-050000
X083000Y-054000
X083000Y-060000
X083000Y-062000
X083000Y-068000
X084000Y-031000
X084000Y-037000
X084000Y-039500
X084000Y-041000
X084000Y-044000
X084000Y-045500
X084000Y-047000
X084000Y-050000
X084000Y-054000
X084000Y-060000
X084000Y-062000
X084000Y-068000
X085000Y-031000
X085000Y-037000
X086000Y-031000
X086000Y-037000
X086500Y-039000
X086500Y-041000
X086500Y-044000
X086500Y-046000
X086500Y-049000
X086500Y-051000
X086500Y-054000
X086500Y-056000
X086500Y-059000
X086500Y-061000
X086500Y-064000
X086500Y-066000
X087000Y-031000
X087000Y-037000
X088000Y-031000
X088000Y-037000
X088000Y-039000
X088000Y-042000
X088000Y-044000
X088000Y-047000
X088000Y-049000
X088000Y-052000
X088000Y-054000
X088000Y-057000
X088000Y-059000
X088000Y-062000
X088000Y-064000
X088000Y-067000
X089000Y-039000
X089000Y-042000
X089000Y-044000
X089000Y-047000
X089000Y-049000
X089000Y-052000
X089000Y-054000
X089000Y-057000
X089000Y-059000
X089000Y-062000
X089000Y-064000
X089000Y-067000
X090000Y-039000
X090000Y-042000
X090000Y-044000
X090000Y-047000
X090000Y-049000
X090000Y-052000
X090000Y-054000
X090000Y-057000
X090000Y-059000
X090000Y-062000
X090000Y-064000
X090000Y-067000
X090500Y-031000
X090500Y-033000
X091000Y-039000
X091000Y-042000
X091000Y-044000
X091000Y-047000
X091000Y-049000
X091000Y-052000
X091000Y-054000
X091000Y-057000
X091000Y-059000
X091000Y-062000
X091000Y-064000
X091000Y-067000
X092000Y-031000
X092000Y-037000
X092000Y-039000
X092000Y-042000
X092000Y-044000
X092000Y-047000
X092000Y-049000
X092000Y-052000
X092000Y-054000
X092000Y-057000
X092000Y-059000
X092000Y-062000
X092000Y-064000
X092000Y-067000
X093000Y-031000
X093000Y-037000
X093000Y-039000
X093000Y-042000
X093000Y-044000
X093000Y-047000
X093000Y-049000
X093000Y-052000
X093000Y-054000
X093000Y-057000
X093000Y-059000
X093000Y-062000
X093000Y-064000
X093000Y-067000
X094000Y-031000
X094000Y-037000
X094000Y-039000
X094000Y-042000
X094000Y-044000
X094000Y-047000
X094000Y-049000
X094000Y-052000
X094000Y-054000
X094000Y-057000
X094000Y-059000
X094000Y-062000
X094000Y-064000
X094000Y-067000
X095000Y-031000
X095000Y-037000
X095000Y-039000
X095000Y-042000
X095000Y-044000
X095000Y-047000
X095000Y-049000
X095000Y-052000
X095000Y-054000
X095000Y-057000
X095000Y-059000
X095000Y-062000
X095000Y-064000
X095000Y-067000
X096000Y-031000
X096000Y-037000
X096000Y-039000
X096000Y-042000
X096000Y-044000
X096000Y-047000
X096000Y-049000
X096000Y-052000
X096000Y-054000
X096000Y-057000
X096000Y-059000
X096000Y-062000
X096000Y-064000
X096000Y-067000
X097000Y-031000
X097000Y-037000
X097000Y-039000
X097000Y-042000
X097000Y-044000
X097000Y-047000
X097000Y-049000
X097000Y-052000
X097000Y-054000
X097000Y-057000
X097000Y-059000
X097000Y-062000
X097000Y-064000
X097000Y-067000
X098000Y-031000
X098000Y-037000
X099000Y-031000
X099000Y-037000
X099500Y-052000
X099500Y-054000
X099500Y-060000
X099500Y-062000
X100000Y-031000
X100000Y-037000
X100000Y-068250
X100000Y-070250
X101000Y-031000
X101000Y-037000
X101000Y-052000
X101000Y-058000
X101000Y-060000
X101000Y-066000
X101500Y-039000
X101500Y-041000
X101500Y-047000
X101500Y-049000
X102000Y-031000
X102000Y-037000
X102000Y-052000
X102000Y-058000
X102000Y-060000
X102000Y-066000
X103000Y-031000
X103000Y-037000
X103000Y-039000
X103000Y-042000
X103000Y-047000
X103000Y-050000
X103000Y-052000
X103000Y-058000
X103000Y-060000
X103000Y-066000
X104000Y-031000
X104000Y-037000
X104000Y-039000
X104000Y-042000
X104000Y-047000
X104000Y-050000
X104000Y-052000
X104000Y-058000
X104000Y-060000
X104000Y-066000
X105000Y-031000
X105000Y-037000
X105000Y-039000
X105000Y-042000
X105000Y-047000
X105000Y-050000
X105000Y-052000
X105000Y-058000
X105000Y-060000
X105000Y-066000
X106000Y-031000
X106000Y-037000
X106000Y-039000
X106000Y-042000
X106000Y-047000
X106000Y-050000
X106000Y-052000
X106000Y-058000
X106000Y-060000
X106000Y-066000
X107000Y-031000
X107000Y-037000
X107000Y-039000
X107000Y-042000
X107000Y-047000
X107000Y-050000
X107000Y-052000
X107000Y-058000
X107000Y-060000
X107000Y-066000
X108000Y-031000
X108000Y-037000
X108000Y-039000
X108000Y-042000
X108000Y-047000
X108000Y-050000
X108000Y-052000
X108000Y-058000
X108000Y-060000
X108000Y-066000
X109000Y-031000
X109000Y-037000
X109000Y-039000
X109000Y-042000
X109000Y-047000
X109000Y-050000
X109000Y-052000
X109000Y-058000
X109000Y-060000
X109000Y-066000
X110000Y-031000
X110000Y-037000
X110000Y-039000
X110000Y-042000
X110000Y-047000
X110000Y-050000
X110000Y-052000
X110000Y-058000
X110000Y-060000
X110000Y-066000
X111000Y-031000
X111000Y-037000
X111000Y-047000
X111000Y-050000
X111000Y-052000
X111000Y-058000
X111000Y-060000
X111000Y-066000
X112000Y-047000
X112000Y-050000
X112000Y-052000
X112000Y-058000
X112000Y-060000
X112000Y-066000
X112500Y-039000
X112500Y-041000
X113000Y-052000
X113000Y-058000
X113000Y-060000
X113000Y-066000
X113500Y-031000
X113500Y-033000
X114000Y-052000
X114000Y-058000
X114000Y-060000
X114000Y-066000
X114500Y-039000
X114500Y-041000
X115000Y-031000
X115000Y-037000
X116000Y-031000
X116000Y-037000
X116000Y-039000
X116000Y-042000
X116500Y-044000
X116500Y-046000
X116500Y-052000
X116500Y-054000
X116500Y-060000
X116500Y-062000
X117000Y-031000
X117000Y-037000
X117000Y-039000
X117000Y-042000
X118000Y-031000
X118000Y-037000
X118000Y-039000
X118000Y-042000
X118000Y-044000
X118000Y-050000
X118000Y-052000
X118000Y-058000
X118000Y-060000
X118000Y-066000
X119000Y-031000
X119000Y-037000
X119000Y-039000
X119000Y-042000
X119000Y-044000
X119000Y-050000
X119000Y-052000
X119000Y-058000
X119000Y-060000
X119000Y-066000
X120000Y-031000
X120000Y-037000
X120000Y-039000
X120000Y-042000
X120000Y-044000
X120000Y-050000
X120000Y-052000
X120000Y-058000
X120000Y-060000
X120000Y-066000
X121000Y-031000
X121000Y-037000
X121000Y-039000
X121000Y-042000
X121000Y-044000
X121000Y-050000
X121000Y-052000
X121000Y-058000
X121000Y-060000
X121000Y-066000
X122000Y-031000
X122000Y-037000
X122000Y-039000
X122000Y-042000
X122000Y-044000
X122000Y-050000
X122000Y-052000
X122000Y-058000
X122000Y-060000
X122000Y-066000
X123000Y-031000
X123000Y-037000
X123000Y-044000
X123000Y-050000
X123000Y-052000
X123000Y-058000
X123000Y-060000
X123000Y-066000
X124000Y-031000
X124000Y-037000
X124000Y-044000
X124000Y-050000
X124000Y-052000
X124000Y-058000
X124000Y-060000
X124000Y-066000
X124500Y-039000
X124500Y-041000
X125000Y-031000
X125000Y-037000
X125000Y-044000
X125000Y-050000
X125000Y-052000
X125000Y-058000
X125000Y-060000
X125000Y-066000
X126000Y-031000
X126000Y-037000
X126000Y-039000
X126000Y-042000
X126000Y-044000
X126000Y-050000
X126000Y-052000
X126000Y-058000
X126000Y-060000
X126000Y-066000
X127000Y-031000
X127000Y-037000
X127000Y-039000
X127000Y-042000
X127000Y-044000
X127000Y-050000
X127000Y-052000
X127000Y-058000
X127000Y-060000
X127000Y-066000
X128000Y-031000
X128000Y-037000
X128000Y-039000
X128000Y-042000
X128000Y-044000
X128000Y-050000
X128000Y-052000
X128000Y-058000
X128000Y-060000
X128000Y-066000
X129000Y-031000
X129000Y-037000
X129000Y-039000
X129000Y-042000
X129000Y-044000
X129000Y-050000
X129000Y-052000
X129000Y-058000
X129000Y-060000
X129000Y-066000
X130000Y-031000
X130000Y-037000
X130000Y-039000
X130000Y-042000
X130000Y-044000
X130000Y-050000
X130000Y-052000
X130000Y-058000
X130000Y-060000
X130000Y-066000
X131000Y-031000
X131000Y-037000
X131000Y-039000
X131000Y-042000
X131000Y-044000
X131000Y-050000
X131000Y-052000
X131000Y-058000
X131000Y-060000
X131000Y-066000
X132000Y-031000
X132000Y-037000
X132000Y-039000
X132000Y-042000
X132000Y-044000
X132000Y-050000
X132000Y-052000
X132000Y-058000
X132000Y-060000
X132000Y-066000
X133000Y-031000
X133000Y-037000
X133000Y-044000
X133000Y-050000
X133000Y-052000
X133000Y-058000
X133000Y-060000
X133000Y-066000
X133500Y-068250
X133500Y-070250
X134000Y-031000
X134000Y-037000
X134000Y-039000
X134000Y-043000
X135000Y-039000
X135000Y-043000
X135500Y-060500
X135500Y-062500
X136000Y-039000
X136000Y-040000
X136000Y-042000
X136000Y-043000
X137000Y-039000
X137000Y-040000
X137000Y-042000
X137000Y-043000
X137000Y-064000
X137000Y-065000
X138000Y-039000
X138000Y-040000
X138000Y-042000
X138000Y-043000
X138000Y-064000
X138000Y-065000
X139000Y-039000
X139000Y-040000
X139000Y-042000
X139000Y-043000
T3
X135669Y-046181
X135669Y-048819
X135669Y-053681
X135669Y-056319
X136650Y-046181
X136650Y-046988
X136650Y-048012
X136650Y-048819
X136650Y-053681
X136650Y-054488
X136650Y-055512
X136650Y-056319
T4
X138484Y-060115
X138484Y-061887
T5
X028000Y-056000
X028000Y-057000
X028000Y-058000
X028000Y-059000
X028000Y-060000
X028000Y-061000
X028000Y-062000
X028000Y-063000
X028000Y-064000
X028000Y-065000
X028000Y-066000
X028000Y-067000
X028000Y-068000
X028638Y-035750
X036512Y-035750
X038000Y-039500
X039000Y-039500
X087000Y-068000
X087000Y-069000
X088000Y-068000
X088000Y-069000
X089000Y-068000
X089000Y-069000
X090000Y-068000
X090000Y-069000
X091000Y-068000
X091000Y-069000
X092000Y-068000
X092000Y-069000
X099500Y-046000
X099500Y-047000
X099500Y-048000
T6
X040500Y-064000
X042500Y-064000
T7
X137500Y-059623
X137500Y-062379
T8
X137831Y-044839
X137831Y-050161
X137831Y-052339
X137831Y-057661
X138150Y-047500
X138150Y-055000
T9
X137000Y-033500
X137000Y-068500
T0
M30
