G04 (created by PCBNEW-RS274X (2012-01-19 BZR 3256)-stable) date 9/26/2012 11:12:57 PM*
G01*
G70*
G90*
%MOIN*%
G04 Gerber Fmt 3.4, Leading zero omitted, Abs format*
%FSLAX34Y34*%
G04 APERTURE LIST*
%ADD10C,0.006000*%
%ADD11C,0.010000*%
%ADD12C,0.008000*%
G04 APERTURE END LIST*
G54D10*
G54D11*
X117000Y-57500D02*
X117000Y-52500D01*
X134750Y-57500D02*
X117000Y-57500D01*
X134750Y-52500D02*
X134750Y-57500D01*
X101000Y-61500D02*
X101000Y-60500D01*
X114250Y-61500D02*
X101000Y-61500D01*
X114250Y-60500D02*
X114250Y-61500D01*
X101000Y-60500D02*
X114250Y-60500D01*
X101000Y-57500D02*
X101000Y-52500D01*
X114250Y-57500D02*
X101000Y-57500D01*
X114250Y-52500D02*
X114250Y-57500D01*
X101000Y-52500D02*
X114250Y-52500D01*
X117000Y-65500D02*
X117000Y-60500D01*
X134750Y-65500D02*
X117000Y-65500D01*
X134750Y-60500D02*
X134750Y-65500D01*
X117000Y-60500D02*
X134750Y-60500D01*
X117000Y-52500D02*
X134750Y-52500D01*
X117000Y-49500D02*
X117000Y-44500D01*
X134750Y-49500D02*
X117000Y-49500D01*
X134750Y-44500D02*
X134750Y-49500D01*
X117000Y-44500D02*
X134750Y-44500D01*
G54D12*
X111829Y-52702D02*
X111752Y-52702D01*
X111714Y-52726D01*
X111676Y-52774D01*
X111657Y-52869D01*
X111657Y-53036D01*
X111676Y-53131D01*
X111714Y-53179D01*
X111752Y-53202D01*
X111829Y-53202D01*
X111867Y-53179D01*
X111905Y-53131D01*
X111924Y-53036D01*
X111924Y-52869D01*
X111905Y-52774D01*
X111867Y-52726D01*
X111829Y-52702D01*
X111352Y-52940D02*
X111486Y-52940D01*
X111486Y-53202D02*
X111486Y-52702D01*
X111295Y-52702D01*
X111009Y-52940D02*
X111143Y-52940D01*
X111143Y-53202D02*
X111143Y-52702D01*
X110952Y-52702D01*
X110495Y-52940D02*
X110190Y-52940D01*
X110190Y-53083D02*
X110495Y-53083D01*
X109752Y-52702D02*
X109523Y-52702D01*
X109638Y-53202D02*
X109638Y-52702D01*
X109218Y-52869D02*
X109218Y-53202D01*
X109390Y-52869D02*
X109390Y-53131D01*
X109371Y-53179D01*
X109333Y-53202D01*
X109275Y-53202D01*
X109237Y-53179D01*
X109218Y-53155D01*
X109028Y-53202D02*
X109028Y-52869D01*
X109028Y-52964D02*
X109009Y-52917D01*
X108990Y-52893D01*
X108952Y-52869D01*
X108913Y-52869D01*
X108780Y-53202D02*
X108780Y-52702D01*
X108780Y-52893D02*
X108742Y-52869D01*
X108665Y-52869D01*
X108627Y-52893D01*
X108608Y-52917D01*
X108589Y-52964D01*
X108589Y-53107D01*
X108608Y-53155D01*
X108627Y-53179D01*
X108665Y-53202D01*
X108742Y-53202D01*
X108780Y-53179D01*
X108361Y-53202D02*
X108399Y-53179D01*
X108418Y-53155D01*
X108437Y-53107D01*
X108437Y-52964D01*
X108418Y-52917D01*
X108399Y-52893D01*
X108361Y-52869D01*
X108303Y-52869D01*
X108265Y-52893D01*
X108246Y-52917D01*
X108227Y-52964D01*
X108227Y-53107D01*
X108246Y-53155D01*
X108265Y-53179D01*
X108303Y-53202D01*
X108361Y-53202D01*
X107751Y-53202D02*
X107751Y-52869D01*
X107751Y-52917D02*
X107732Y-52893D01*
X107694Y-52869D01*
X107636Y-52869D01*
X107598Y-52893D01*
X107579Y-52940D01*
X107579Y-53202D01*
X107579Y-52940D02*
X107560Y-52893D01*
X107522Y-52869D01*
X107465Y-52869D01*
X107427Y-52893D01*
X107408Y-52940D01*
X107408Y-53202D01*
X107161Y-53202D02*
X107199Y-53179D01*
X107218Y-53155D01*
X107237Y-53107D01*
X107237Y-52964D01*
X107218Y-52917D01*
X107199Y-52893D01*
X107161Y-52869D01*
X107103Y-52869D01*
X107065Y-52893D01*
X107046Y-52917D01*
X107027Y-52964D01*
X107027Y-53107D01*
X107046Y-53155D01*
X107065Y-53179D01*
X107103Y-53202D01*
X107161Y-53202D01*
X106684Y-53202D02*
X106684Y-52702D01*
X106684Y-53179D02*
X106722Y-53202D01*
X106799Y-53202D01*
X106837Y-53179D01*
X106856Y-53155D01*
X106875Y-53107D01*
X106875Y-52964D01*
X106856Y-52917D01*
X106837Y-52893D01*
X106799Y-52869D01*
X106722Y-52869D01*
X106684Y-52893D01*
X106341Y-53179D02*
X106379Y-53202D01*
X106456Y-53202D01*
X106494Y-53179D01*
X106513Y-53131D01*
X106513Y-52940D01*
X106494Y-52893D01*
X106456Y-52869D01*
X106379Y-52869D01*
X106341Y-52893D01*
X106322Y-52940D01*
X106322Y-52988D01*
X106513Y-53036D01*
X105789Y-53202D02*
X105827Y-53179D01*
X105846Y-53155D01*
X105865Y-53107D01*
X105865Y-52964D01*
X105846Y-52917D01*
X105827Y-52893D01*
X105789Y-52869D01*
X105731Y-52869D01*
X105693Y-52893D01*
X105674Y-52917D01*
X105655Y-52964D01*
X105655Y-53107D01*
X105674Y-53155D01*
X105693Y-53179D01*
X105731Y-53202D01*
X105789Y-53202D01*
X105541Y-52869D02*
X105389Y-52869D01*
X105484Y-53202D02*
X105484Y-52774D01*
X105465Y-52726D01*
X105427Y-52702D01*
X105389Y-52702D01*
X105312Y-52869D02*
X105160Y-52869D01*
X105255Y-53202D02*
X105255Y-52774D01*
X105236Y-52726D01*
X105198Y-52702D01*
X105160Y-52702D01*
X111695Y-53982D02*
X111924Y-53982D01*
X111810Y-53982D02*
X111810Y-53482D01*
X111848Y-53554D01*
X111886Y-53601D01*
X111924Y-53625D01*
X111524Y-53792D02*
X111219Y-53792D01*
X111048Y-53530D02*
X111029Y-53506D01*
X110991Y-53482D01*
X110895Y-53482D01*
X110857Y-53506D01*
X110838Y-53530D01*
X110819Y-53578D01*
X110819Y-53625D01*
X110838Y-53697D01*
X111067Y-53982D01*
X110819Y-53982D01*
X110343Y-53720D02*
X110038Y-53720D01*
X110038Y-53863D02*
X110343Y-53863D01*
X109600Y-53482D02*
X109371Y-53482D01*
X109486Y-53982D02*
X109486Y-53482D01*
X109066Y-53649D02*
X109066Y-53982D01*
X109238Y-53649D02*
X109238Y-53911D01*
X109219Y-53959D01*
X109181Y-53982D01*
X109123Y-53982D01*
X109085Y-53959D01*
X109066Y-53935D01*
X108876Y-53982D02*
X108876Y-53649D01*
X108876Y-53744D02*
X108857Y-53697D01*
X108838Y-53673D01*
X108800Y-53649D01*
X108761Y-53649D01*
X108628Y-53982D02*
X108628Y-53482D01*
X108628Y-53673D02*
X108590Y-53649D01*
X108513Y-53649D01*
X108475Y-53673D01*
X108456Y-53697D01*
X108437Y-53744D01*
X108437Y-53887D01*
X108456Y-53935D01*
X108475Y-53959D01*
X108513Y-53982D01*
X108590Y-53982D01*
X108628Y-53959D01*
X108209Y-53982D02*
X108247Y-53959D01*
X108266Y-53935D01*
X108285Y-53887D01*
X108285Y-53744D01*
X108266Y-53697D01*
X108247Y-53673D01*
X108209Y-53649D01*
X108151Y-53649D01*
X108113Y-53673D01*
X108094Y-53697D01*
X108075Y-53744D01*
X108075Y-53887D01*
X108094Y-53935D01*
X108113Y-53959D01*
X108151Y-53982D01*
X108209Y-53982D01*
X107599Y-53982D02*
X107599Y-53649D01*
X107599Y-53697D02*
X107580Y-53673D01*
X107542Y-53649D01*
X107484Y-53649D01*
X107446Y-53673D01*
X107427Y-53720D01*
X107427Y-53982D01*
X107427Y-53720D02*
X107408Y-53673D01*
X107370Y-53649D01*
X107313Y-53649D01*
X107275Y-53673D01*
X107256Y-53720D01*
X107256Y-53982D01*
X107009Y-53982D02*
X107047Y-53959D01*
X107066Y-53935D01*
X107085Y-53887D01*
X107085Y-53744D01*
X107066Y-53697D01*
X107047Y-53673D01*
X107009Y-53649D01*
X106951Y-53649D01*
X106913Y-53673D01*
X106894Y-53697D01*
X106875Y-53744D01*
X106875Y-53887D01*
X106894Y-53935D01*
X106913Y-53959D01*
X106951Y-53982D01*
X107009Y-53982D01*
X106532Y-53982D02*
X106532Y-53482D01*
X106532Y-53959D02*
X106570Y-53982D01*
X106647Y-53982D01*
X106685Y-53959D01*
X106704Y-53935D01*
X106723Y-53887D01*
X106723Y-53744D01*
X106704Y-53697D01*
X106685Y-53673D01*
X106647Y-53649D01*
X106570Y-53649D01*
X106532Y-53673D01*
X106189Y-53959D02*
X106227Y-53982D01*
X106304Y-53982D01*
X106342Y-53959D01*
X106361Y-53911D01*
X106361Y-53720D01*
X106342Y-53673D01*
X106304Y-53649D01*
X106227Y-53649D01*
X106189Y-53673D01*
X106170Y-53720D01*
X106170Y-53768D01*
X106361Y-53816D01*
X105637Y-53982D02*
X105675Y-53959D01*
X105694Y-53935D01*
X105713Y-53887D01*
X105713Y-53744D01*
X105694Y-53697D01*
X105675Y-53673D01*
X105637Y-53649D01*
X105579Y-53649D01*
X105541Y-53673D01*
X105522Y-53697D01*
X105503Y-53744D01*
X105503Y-53887D01*
X105522Y-53935D01*
X105541Y-53959D01*
X105579Y-53982D01*
X105637Y-53982D01*
X105332Y-53649D02*
X105332Y-53982D01*
X105332Y-53697D02*
X105313Y-53673D01*
X105275Y-53649D01*
X105217Y-53649D01*
X105179Y-53673D01*
X105160Y-53720D01*
X105160Y-53982D01*
X111924Y-54310D02*
X111905Y-54286D01*
X111867Y-54262D01*
X111771Y-54262D01*
X111733Y-54286D01*
X111714Y-54310D01*
X111695Y-54358D01*
X111695Y-54405D01*
X111714Y-54477D01*
X111943Y-54762D01*
X111695Y-54762D01*
X111524Y-54572D02*
X111219Y-54572D01*
X111067Y-54262D02*
X110819Y-54262D01*
X110953Y-54453D01*
X110895Y-54453D01*
X110857Y-54477D01*
X110838Y-54500D01*
X110819Y-54548D01*
X110819Y-54667D01*
X110838Y-54715D01*
X110857Y-54739D01*
X110895Y-54762D01*
X111010Y-54762D01*
X111048Y-54739D01*
X111067Y-54715D01*
X110343Y-54500D02*
X110038Y-54500D01*
X110038Y-54643D02*
X110343Y-54643D01*
X109600Y-54262D02*
X109371Y-54262D01*
X109486Y-54762D02*
X109486Y-54262D01*
X109066Y-54429D02*
X109066Y-54762D01*
X109238Y-54429D02*
X109238Y-54691D01*
X109219Y-54739D01*
X109181Y-54762D01*
X109123Y-54762D01*
X109085Y-54739D01*
X109066Y-54715D01*
X108876Y-54762D02*
X108876Y-54429D01*
X108876Y-54524D02*
X108857Y-54477D01*
X108838Y-54453D01*
X108800Y-54429D01*
X108761Y-54429D01*
X108628Y-54762D02*
X108628Y-54262D01*
X108628Y-54453D02*
X108590Y-54429D01*
X108513Y-54429D01*
X108475Y-54453D01*
X108456Y-54477D01*
X108437Y-54524D01*
X108437Y-54667D01*
X108456Y-54715D01*
X108475Y-54739D01*
X108513Y-54762D01*
X108590Y-54762D01*
X108628Y-54739D01*
X108209Y-54762D02*
X108247Y-54739D01*
X108266Y-54715D01*
X108285Y-54667D01*
X108285Y-54524D01*
X108266Y-54477D01*
X108247Y-54453D01*
X108209Y-54429D01*
X108151Y-54429D01*
X108113Y-54453D01*
X108094Y-54477D01*
X108075Y-54524D01*
X108075Y-54667D01*
X108094Y-54715D01*
X108113Y-54739D01*
X108151Y-54762D01*
X108209Y-54762D01*
X107618Y-54739D02*
X107580Y-54762D01*
X107504Y-54762D01*
X107465Y-54739D01*
X107446Y-54691D01*
X107446Y-54667D01*
X107465Y-54620D01*
X107504Y-54596D01*
X107561Y-54596D01*
X107599Y-54572D01*
X107618Y-54524D01*
X107618Y-54500D01*
X107599Y-54453D01*
X107561Y-54429D01*
X107504Y-54429D01*
X107465Y-54453D01*
X107218Y-54762D02*
X107256Y-54739D01*
X107275Y-54715D01*
X107294Y-54667D01*
X107294Y-54524D01*
X107275Y-54477D01*
X107256Y-54453D01*
X107218Y-54429D01*
X107160Y-54429D01*
X107122Y-54453D01*
X107103Y-54477D01*
X107084Y-54524D01*
X107084Y-54667D01*
X107103Y-54715D01*
X107122Y-54739D01*
X107160Y-54762D01*
X107218Y-54762D01*
X106970Y-54429D02*
X106818Y-54429D01*
X106913Y-54762D02*
X106913Y-54334D01*
X106894Y-54286D01*
X106856Y-54262D01*
X106818Y-54262D01*
X106741Y-54429D02*
X106589Y-54429D01*
X106684Y-54262D02*
X106684Y-54691D01*
X106665Y-54739D01*
X106627Y-54762D01*
X106589Y-54762D01*
X106493Y-54429D02*
X106417Y-54762D01*
X106340Y-54524D01*
X106264Y-54762D01*
X106188Y-54429D01*
X105864Y-54762D02*
X105864Y-54500D01*
X105883Y-54453D01*
X105921Y-54429D01*
X105998Y-54429D01*
X106036Y-54453D01*
X105864Y-54739D02*
X105902Y-54762D01*
X105998Y-54762D01*
X106036Y-54739D01*
X106055Y-54691D01*
X106055Y-54643D01*
X106036Y-54596D01*
X105998Y-54572D01*
X105902Y-54572D01*
X105864Y-54548D01*
X105674Y-54762D02*
X105674Y-54429D01*
X105674Y-54524D02*
X105655Y-54477D01*
X105636Y-54453D01*
X105598Y-54429D01*
X105559Y-54429D01*
X105273Y-54739D02*
X105311Y-54762D01*
X105388Y-54762D01*
X105426Y-54739D01*
X105445Y-54691D01*
X105445Y-54500D01*
X105426Y-54453D01*
X105388Y-54429D01*
X105311Y-54429D01*
X105273Y-54453D01*
X105254Y-54500D01*
X105254Y-54548D01*
X105445Y-54596D01*
X104606Y-54739D02*
X104644Y-54762D01*
X104721Y-54762D01*
X104759Y-54739D01*
X104778Y-54715D01*
X104797Y-54667D01*
X104797Y-54524D01*
X104778Y-54477D01*
X104759Y-54453D01*
X104721Y-54429D01*
X104644Y-54429D01*
X104606Y-54453D01*
X104378Y-54762D02*
X104416Y-54739D01*
X104435Y-54715D01*
X104454Y-54667D01*
X104454Y-54524D01*
X104435Y-54477D01*
X104416Y-54453D01*
X104378Y-54429D01*
X104320Y-54429D01*
X104282Y-54453D01*
X104263Y-54477D01*
X104244Y-54524D01*
X104244Y-54667D01*
X104263Y-54715D01*
X104282Y-54739D01*
X104320Y-54762D01*
X104378Y-54762D01*
X104073Y-54429D02*
X104073Y-54762D01*
X104073Y-54477D02*
X104054Y-54453D01*
X104016Y-54429D01*
X103958Y-54429D01*
X103920Y-54453D01*
X103901Y-54500D01*
X103901Y-54762D01*
X103768Y-54429D02*
X103616Y-54429D01*
X103711Y-54262D02*
X103711Y-54691D01*
X103692Y-54739D01*
X103654Y-54762D01*
X103616Y-54762D01*
X103482Y-54762D02*
X103482Y-54429D01*
X103482Y-54524D02*
X103463Y-54477D01*
X103444Y-54453D01*
X103406Y-54429D01*
X103367Y-54429D01*
X103177Y-54762D02*
X103215Y-54739D01*
X103234Y-54715D01*
X103253Y-54667D01*
X103253Y-54524D01*
X103234Y-54477D01*
X103215Y-54453D01*
X103177Y-54429D01*
X103119Y-54429D01*
X103081Y-54453D01*
X103062Y-54477D01*
X103043Y-54524D01*
X103043Y-54667D01*
X103062Y-54715D01*
X103081Y-54739D01*
X103119Y-54762D01*
X103177Y-54762D01*
X102815Y-54762D02*
X102853Y-54739D01*
X102872Y-54691D01*
X102872Y-54262D01*
X102605Y-54762D02*
X102643Y-54739D01*
X102662Y-54691D01*
X102662Y-54262D01*
X102299Y-54739D02*
X102337Y-54762D01*
X102414Y-54762D01*
X102452Y-54739D01*
X102471Y-54691D01*
X102471Y-54500D01*
X102452Y-54453D01*
X102414Y-54429D01*
X102337Y-54429D01*
X102299Y-54453D01*
X102280Y-54500D01*
X102280Y-54548D01*
X102471Y-54596D01*
X101937Y-54762D02*
X101937Y-54262D01*
X101937Y-54739D02*
X101975Y-54762D01*
X102052Y-54762D01*
X102090Y-54739D01*
X102109Y-54715D01*
X102128Y-54667D01*
X102128Y-54524D01*
X102109Y-54477D01*
X102090Y-54453D01*
X102052Y-54429D01*
X101975Y-54429D01*
X101937Y-54453D01*
X109350Y-55733D02*
X109370Y-55709D01*
X109408Y-55638D01*
X109427Y-55590D01*
X109446Y-55519D01*
X109465Y-55400D01*
X109465Y-55304D01*
X109446Y-55185D01*
X109427Y-55114D01*
X109408Y-55066D01*
X109370Y-54995D01*
X109350Y-54971D01*
X109198Y-55209D02*
X109198Y-55709D01*
X109198Y-55233D02*
X109160Y-55209D01*
X109083Y-55209D01*
X109045Y-55233D01*
X109026Y-55257D01*
X109007Y-55304D01*
X109007Y-55447D01*
X109026Y-55495D01*
X109045Y-55519D01*
X109083Y-55542D01*
X109160Y-55542D01*
X109198Y-55519D01*
X108779Y-55542D02*
X108817Y-55519D01*
X108836Y-55495D01*
X108855Y-55447D01*
X108855Y-55304D01*
X108836Y-55257D01*
X108817Y-55233D01*
X108779Y-55209D01*
X108721Y-55209D01*
X108683Y-55233D01*
X108664Y-55257D01*
X108645Y-55304D01*
X108645Y-55447D01*
X108664Y-55495D01*
X108683Y-55519D01*
X108721Y-55542D01*
X108779Y-55542D01*
X108474Y-55542D02*
X108474Y-55209D01*
X108474Y-55304D02*
X108455Y-55257D01*
X108436Y-55233D01*
X108398Y-55209D01*
X108359Y-55209D01*
X108283Y-55209D02*
X108131Y-55209D01*
X108226Y-55042D02*
X108226Y-55471D01*
X108207Y-55519D01*
X108169Y-55542D01*
X108131Y-55542D01*
X107520Y-55042D02*
X107597Y-55042D01*
X107635Y-55066D01*
X107654Y-55090D01*
X107692Y-55161D01*
X107711Y-55257D01*
X107711Y-55447D01*
X107692Y-55495D01*
X107673Y-55519D01*
X107635Y-55542D01*
X107558Y-55542D01*
X107520Y-55519D01*
X107501Y-55495D01*
X107482Y-55447D01*
X107482Y-55328D01*
X107501Y-55280D01*
X107520Y-55257D01*
X107558Y-55233D01*
X107635Y-55233D01*
X107673Y-55257D01*
X107692Y-55280D01*
X107711Y-55328D01*
X107101Y-55542D02*
X107330Y-55542D01*
X107216Y-55542D02*
X107216Y-55042D01*
X107254Y-55114D01*
X107292Y-55161D01*
X107330Y-55185D01*
X106930Y-55542D02*
X106930Y-55042D01*
X106758Y-55542D02*
X106758Y-55280D01*
X106777Y-55233D01*
X106815Y-55209D01*
X106873Y-55209D01*
X106911Y-55233D01*
X106930Y-55257D01*
X106263Y-55542D02*
X106263Y-55042D01*
X106263Y-55233D02*
X106225Y-55209D01*
X106148Y-55209D01*
X106110Y-55233D01*
X106091Y-55257D01*
X106072Y-55304D01*
X106072Y-55447D01*
X106091Y-55495D01*
X106110Y-55519D01*
X106148Y-55542D01*
X106225Y-55542D01*
X106263Y-55519D01*
X105901Y-55542D02*
X105901Y-55209D01*
X105901Y-55042D02*
X105920Y-55066D01*
X105901Y-55090D01*
X105882Y-55066D01*
X105901Y-55042D01*
X105901Y-55090D01*
X105768Y-55209D02*
X105616Y-55209D01*
X105711Y-55042D02*
X105711Y-55471D01*
X105692Y-55519D01*
X105654Y-55542D01*
X105616Y-55542D01*
X105196Y-55090D02*
X105177Y-55066D01*
X105139Y-55042D01*
X105043Y-55042D01*
X105005Y-55066D01*
X104986Y-55090D01*
X104967Y-55138D01*
X104967Y-55185D01*
X104986Y-55257D01*
X105215Y-55542D01*
X104967Y-55542D01*
X104834Y-55733D02*
X104815Y-55709D01*
X104777Y-55638D01*
X104758Y-55590D01*
X104739Y-55519D01*
X104720Y-55400D01*
X104720Y-55304D01*
X104739Y-55185D01*
X104758Y-55114D01*
X104777Y-55066D01*
X104815Y-54995D01*
X104834Y-54971D01*
X111695Y-56322D02*
X111924Y-56322D01*
X111810Y-56322D02*
X111810Y-55822D01*
X111848Y-55894D01*
X111886Y-55941D01*
X111924Y-55965D01*
X111524Y-56132D02*
X111219Y-56132D01*
X111048Y-55870D02*
X111029Y-55846D01*
X110991Y-55822D01*
X110895Y-55822D01*
X110857Y-55846D01*
X110838Y-55870D01*
X110819Y-55918D01*
X110819Y-55965D01*
X110838Y-56037D01*
X111067Y-56322D01*
X110819Y-56322D01*
X110343Y-56060D02*
X110038Y-56060D01*
X110038Y-56203D02*
X110343Y-56203D01*
X109543Y-55822D02*
X109543Y-56227D01*
X109524Y-56275D01*
X109505Y-56299D01*
X109467Y-56322D01*
X109390Y-56322D01*
X109352Y-56299D01*
X109333Y-56275D01*
X109314Y-56227D01*
X109314Y-55822D01*
X109143Y-56299D02*
X109105Y-56322D01*
X109029Y-56322D01*
X108990Y-56299D01*
X108971Y-56251D01*
X108971Y-56227D01*
X108990Y-56180D01*
X109029Y-56156D01*
X109086Y-56156D01*
X109124Y-56132D01*
X109143Y-56084D01*
X109143Y-56060D01*
X109124Y-56013D01*
X109086Y-55989D01*
X109029Y-55989D01*
X108990Y-56013D01*
X108647Y-56299D02*
X108685Y-56322D01*
X108762Y-56322D01*
X108800Y-56299D01*
X108819Y-56251D01*
X108819Y-56060D01*
X108800Y-56013D01*
X108762Y-55989D01*
X108685Y-55989D01*
X108647Y-56013D01*
X108628Y-56060D01*
X108628Y-56108D01*
X108819Y-56156D01*
X108152Y-56322D02*
X108152Y-55822D01*
X107733Y-56322D02*
X107867Y-56084D01*
X107962Y-56322D02*
X107962Y-55822D01*
X107809Y-55822D01*
X107771Y-55846D01*
X107752Y-55870D01*
X107733Y-55918D01*
X107733Y-55989D01*
X107752Y-56037D01*
X107771Y-56060D01*
X107809Y-56084D01*
X107962Y-56084D01*
X107295Y-56370D02*
X107333Y-56346D01*
X107371Y-56299D01*
X107428Y-56227D01*
X107467Y-56203D01*
X107505Y-56203D01*
X107486Y-56322D02*
X107524Y-56299D01*
X107562Y-56251D01*
X107581Y-56156D01*
X107581Y-55989D01*
X107562Y-55894D01*
X107524Y-55846D01*
X107486Y-55822D01*
X107409Y-55822D01*
X107371Y-55846D01*
X107333Y-55894D01*
X107314Y-55989D01*
X107314Y-56156D01*
X107333Y-56251D01*
X107371Y-56299D01*
X107409Y-56322D01*
X107486Y-56322D01*
X106933Y-56322D02*
X107162Y-56322D01*
X107048Y-56322D02*
X107048Y-55822D01*
X107086Y-55894D01*
X107124Y-55941D01*
X107162Y-55965D01*
X106781Y-55870D02*
X106762Y-55846D01*
X106724Y-55822D01*
X106628Y-55822D01*
X106590Y-55846D01*
X106571Y-55870D01*
X106552Y-55918D01*
X106552Y-55965D01*
X106571Y-56037D01*
X106800Y-56322D01*
X106552Y-56322D01*
X106133Y-55989D02*
X105981Y-55989D01*
X106076Y-56322D02*
X106076Y-55894D01*
X106057Y-55846D01*
X106019Y-55822D01*
X105981Y-55822D01*
X105790Y-56322D02*
X105828Y-56299D01*
X105847Y-56275D01*
X105866Y-56227D01*
X105866Y-56084D01*
X105847Y-56037D01*
X105828Y-56013D01*
X105790Y-55989D01*
X105732Y-55989D01*
X105694Y-56013D01*
X105675Y-56037D01*
X105656Y-56084D01*
X105656Y-56227D01*
X105675Y-56275D01*
X105694Y-56299D01*
X105732Y-56322D01*
X105790Y-56322D01*
X105485Y-56322D02*
X105485Y-55989D01*
X105485Y-56084D02*
X105466Y-56037D01*
X105447Y-56013D01*
X105409Y-55989D01*
X105370Y-55989D01*
X104932Y-56322D02*
X104932Y-55822D01*
X104779Y-55822D01*
X104741Y-55846D01*
X104722Y-55870D01*
X104703Y-55918D01*
X104703Y-55989D01*
X104722Y-56037D01*
X104741Y-56060D01*
X104779Y-56084D01*
X104932Y-56084D01*
X104551Y-56299D02*
X104494Y-56322D01*
X104398Y-56322D01*
X104360Y-56299D01*
X104341Y-56275D01*
X104322Y-56227D01*
X104322Y-56180D01*
X104341Y-56132D01*
X104360Y-56108D01*
X104398Y-56084D01*
X104475Y-56060D01*
X104513Y-56037D01*
X104532Y-56013D01*
X104551Y-55965D01*
X104551Y-55918D01*
X104532Y-55870D01*
X104513Y-55846D01*
X104475Y-55822D01*
X104379Y-55822D01*
X104322Y-55846D01*
X103865Y-55799D02*
X104208Y-56441D01*
X103751Y-55870D02*
X103732Y-55846D01*
X103694Y-55822D01*
X103598Y-55822D01*
X103560Y-55846D01*
X103541Y-55870D01*
X103522Y-55918D01*
X103522Y-55965D01*
X103541Y-56037D01*
X103770Y-56322D01*
X103522Y-56322D01*
X103046Y-56322D02*
X103046Y-55989D01*
X103046Y-56037D02*
X103027Y-56013D01*
X102989Y-55989D01*
X102931Y-55989D01*
X102893Y-56013D01*
X102874Y-56060D01*
X102874Y-56322D01*
X102874Y-56060D02*
X102855Y-56013D01*
X102817Y-55989D01*
X102760Y-55989D01*
X102722Y-56013D01*
X102703Y-56060D01*
X102703Y-56322D01*
X102456Y-56322D02*
X102494Y-56299D01*
X102513Y-56275D01*
X102532Y-56227D01*
X102532Y-56084D01*
X102513Y-56037D01*
X102494Y-56013D01*
X102456Y-55989D01*
X102398Y-55989D01*
X102360Y-56013D01*
X102341Y-56037D01*
X102322Y-56084D01*
X102322Y-56227D01*
X102341Y-56275D01*
X102360Y-56299D01*
X102398Y-56322D01*
X102456Y-56322D01*
X101979Y-55989D02*
X101979Y-56322D01*
X102151Y-55989D02*
X102151Y-56251D01*
X102132Y-56299D01*
X102094Y-56322D01*
X102036Y-56322D01*
X101998Y-56299D01*
X101979Y-56275D01*
X101808Y-56299D02*
X101770Y-56322D01*
X101694Y-56322D01*
X101655Y-56299D01*
X101636Y-56251D01*
X101636Y-56227D01*
X101655Y-56180D01*
X101694Y-56156D01*
X101751Y-56156D01*
X101789Y-56132D01*
X101808Y-56084D01*
X101808Y-56060D01*
X101789Y-56013D01*
X101751Y-55989D01*
X101694Y-55989D01*
X101655Y-56013D01*
X101312Y-56299D02*
X101350Y-56322D01*
X101427Y-56322D01*
X101465Y-56299D01*
X101484Y-56251D01*
X101484Y-56060D01*
X101465Y-56013D01*
X101427Y-55989D01*
X101350Y-55989D01*
X101312Y-56013D01*
X101293Y-56060D01*
X101293Y-56108D01*
X101484Y-56156D01*
X111924Y-56650D02*
X111905Y-56626D01*
X111867Y-56602D01*
X111771Y-56602D01*
X111733Y-56626D01*
X111714Y-56650D01*
X111695Y-56698D01*
X111695Y-56745D01*
X111714Y-56817D01*
X111943Y-57102D01*
X111695Y-57102D01*
X111524Y-56912D02*
X111219Y-56912D01*
X111067Y-56602D02*
X110819Y-56602D01*
X110953Y-56793D01*
X110895Y-56793D01*
X110857Y-56817D01*
X110838Y-56840D01*
X110819Y-56888D01*
X110819Y-57007D01*
X110838Y-57055D01*
X110857Y-57079D01*
X110895Y-57102D01*
X111010Y-57102D01*
X111048Y-57079D01*
X111067Y-57055D01*
X110343Y-56840D02*
X110038Y-56840D01*
X110038Y-56983D02*
X110343Y-56983D01*
X109314Y-57055D02*
X109333Y-57079D01*
X109390Y-57102D01*
X109428Y-57102D01*
X109486Y-57079D01*
X109524Y-57031D01*
X109543Y-56983D01*
X109562Y-56888D01*
X109562Y-56817D01*
X109543Y-56721D01*
X109524Y-56674D01*
X109486Y-56626D01*
X109428Y-56602D01*
X109390Y-56602D01*
X109333Y-56626D01*
X109314Y-56650D01*
X109086Y-57102D02*
X109124Y-57079D01*
X109143Y-57055D01*
X109162Y-57007D01*
X109162Y-56864D01*
X109143Y-56817D01*
X109124Y-56793D01*
X109086Y-56769D01*
X109028Y-56769D01*
X108990Y-56793D01*
X108971Y-56817D01*
X108952Y-56864D01*
X108952Y-57007D01*
X108971Y-57055D01*
X108990Y-57079D01*
X109028Y-57102D01*
X109086Y-57102D01*
X108781Y-56769D02*
X108781Y-57102D01*
X108781Y-56817D02*
X108762Y-56793D01*
X108724Y-56769D01*
X108666Y-56769D01*
X108628Y-56793D01*
X108609Y-56840D01*
X108609Y-57102D01*
X108419Y-56769D02*
X108419Y-57102D01*
X108419Y-56817D02*
X108400Y-56793D01*
X108362Y-56769D01*
X108304Y-56769D01*
X108266Y-56793D01*
X108247Y-56840D01*
X108247Y-57102D01*
X107904Y-57079D02*
X107942Y-57102D01*
X108019Y-57102D01*
X108057Y-57079D01*
X108076Y-57031D01*
X108076Y-56840D01*
X108057Y-56793D01*
X108019Y-56769D01*
X107942Y-56769D01*
X107904Y-56793D01*
X107885Y-56840D01*
X107885Y-56888D01*
X108076Y-56936D01*
X107542Y-57079D02*
X107580Y-57102D01*
X107657Y-57102D01*
X107695Y-57079D01*
X107714Y-57055D01*
X107733Y-57007D01*
X107733Y-56864D01*
X107714Y-56817D01*
X107695Y-56793D01*
X107657Y-56769D01*
X107580Y-56769D01*
X107542Y-56793D01*
X107428Y-56769D02*
X107276Y-56769D01*
X107371Y-56602D02*
X107371Y-57031D01*
X107352Y-57079D01*
X107314Y-57102D01*
X107276Y-57102D01*
X106837Y-57102D02*
X106837Y-56602D01*
X106418Y-57102D02*
X106552Y-56864D01*
X106647Y-57102D02*
X106647Y-56602D01*
X106494Y-56602D01*
X106456Y-56626D01*
X106437Y-56650D01*
X106418Y-56698D01*
X106418Y-56769D01*
X106437Y-56817D01*
X106456Y-56840D01*
X106494Y-56864D01*
X106647Y-56864D01*
X105980Y-57150D02*
X106018Y-57126D01*
X106056Y-57079D01*
X106113Y-57007D01*
X106152Y-56983D01*
X106190Y-56983D01*
X106171Y-57102D02*
X106209Y-57079D01*
X106247Y-57031D01*
X106266Y-56936D01*
X106266Y-56769D01*
X106247Y-56674D01*
X106209Y-56626D01*
X106171Y-56602D01*
X106094Y-56602D01*
X106056Y-56626D01*
X106018Y-56674D01*
X105999Y-56769D01*
X105999Y-56936D01*
X106018Y-57031D01*
X106056Y-57079D01*
X106094Y-57102D01*
X106171Y-57102D01*
X105618Y-57102D02*
X105847Y-57102D01*
X105733Y-57102D02*
X105733Y-56602D01*
X105771Y-56674D01*
X105809Y-56721D01*
X105847Y-56745D01*
X105466Y-56650D02*
X105447Y-56626D01*
X105409Y-56602D01*
X105313Y-56602D01*
X105275Y-56626D01*
X105256Y-56650D01*
X105237Y-56698D01*
X105237Y-56745D01*
X105256Y-56817D01*
X105485Y-57102D01*
X105237Y-57102D01*
X104818Y-56769D02*
X104666Y-56769D01*
X104761Y-56602D02*
X104761Y-57031D01*
X104742Y-57079D01*
X104704Y-57102D01*
X104666Y-57102D01*
X104475Y-57102D02*
X104513Y-57079D01*
X104532Y-57055D01*
X104551Y-57007D01*
X104551Y-56864D01*
X104532Y-56817D01*
X104513Y-56793D01*
X104475Y-56769D01*
X104417Y-56769D01*
X104379Y-56793D01*
X104360Y-56817D01*
X104341Y-56864D01*
X104341Y-57007D01*
X104360Y-57055D01*
X104379Y-57079D01*
X104417Y-57102D01*
X104475Y-57102D01*
X103865Y-57102D02*
X103865Y-56602D01*
X103694Y-57079D02*
X103637Y-57102D01*
X103541Y-57102D01*
X103503Y-57079D01*
X103484Y-57055D01*
X103465Y-57007D01*
X103465Y-56960D01*
X103484Y-56912D01*
X103503Y-56888D01*
X103541Y-56864D01*
X103618Y-56840D01*
X103656Y-56817D01*
X103675Y-56793D01*
X103694Y-56745D01*
X103694Y-56698D01*
X103675Y-56650D01*
X103656Y-56626D01*
X103618Y-56602D01*
X103522Y-56602D01*
X103465Y-56626D01*
X103313Y-56960D02*
X103122Y-56960D01*
X103351Y-57102D02*
X103218Y-56602D01*
X103084Y-57102D01*
X102646Y-57102D02*
X102646Y-56602D01*
X102646Y-56793D02*
X102608Y-56769D01*
X102531Y-56769D01*
X102493Y-56793D01*
X102474Y-56817D01*
X102455Y-56864D01*
X102455Y-57007D01*
X102474Y-57055D01*
X102493Y-57079D01*
X102531Y-57102D01*
X102608Y-57102D01*
X102646Y-57079D01*
X102112Y-56769D02*
X102112Y-57102D01*
X102284Y-56769D02*
X102284Y-57031D01*
X102265Y-57079D01*
X102227Y-57102D01*
X102169Y-57102D01*
X102131Y-57079D01*
X102112Y-57055D01*
X101941Y-57079D02*
X101903Y-57102D01*
X101827Y-57102D01*
X101788Y-57079D01*
X101769Y-57031D01*
X101769Y-57007D01*
X101788Y-56960D01*
X101827Y-56936D01*
X101884Y-56936D01*
X101922Y-56912D01*
X101941Y-56864D01*
X101941Y-56840D01*
X101922Y-56793D01*
X101884Y-56769D01*
X101827Y-56769D01*
X101788Y-56793D01*
X113790Y-52702D02*
X113790Y-53060D01*
X113810Y-53131D01*
X113848Y-53179D01*
X113905Y-53202D01*
X113943Y-53202D01*
X113619Y-52750D02*
X113600Y-52726D01*
X113562Y-52702D01*
X113466Y-52702D01*
X113428Y-52726D01*
X113409Y-52750D01*
X113390Y-52798D01*
X113390Y-52845D01*
X113409Y-52917D01*
X113638Y-53202D01*
X113390Y-53202D01*
X112914Y-53012D02*
X112609Y-53012D01*
X113790Y-55822D02*
X113790Y-56180D01*
X113810Y-56251D01*
X113848Y-56299D01*
X113905Y-56322D01*
X113943Y-56322D01*
X113638Y-55822D02*
X113390Y-55822D01*
X113524Y-56013D01*
X113466Y-56013D01*
X113428Y-56037D01*
X113409Y-56060D01*
X113390Y-56108D01*
X113390Y-56227D01*
X113409Y-56275D01*
X113428Y-56299D01*
X113466Y-56322D01*
X113581Y-56322D01*
X113619Y-56299D01*
X113638Y-56275D01*
X112914Y-56132D02*
X112609Y-56132D01*
X130829Y-60702D02*
X130752Y-60702D01*
X130714Y-60726D01*
X130676Y-60774D01*
X130657Y-60869D01*
X130657Y-61036D01*
X130676Y-61131D01*
X130714Y-61179D01*
X130752Y-61202D01*
X130829Y-61202D01*
X130867Y-61179D01*
X130905Y-61131D01*
X130924Y-61036D01*
X130924Y-60869D01*
X130905Y-60774D01*
X130867Y-60726D01*
X130829Y-60702D01*
X130486Y-61202D02*
X130486Y-60702D01*
X130257Y-61202D01*
X130257Y-60702D01*
X129762Y-60940D02*
X129457Y-60940D01*
X129457Y-61083D02*
X129762Y-61083D01*
X128752Y-61202D02*
X128981Y-61202D01*
X128867Y-61202D02*
X128867Y-60702D01*
X128905Y-60774D01*
X128943Y-60821D01*
X128981Y-60845D01*
X128276Y-61202D02*
X128276Y-60702D01*
X127800Y-60679D02*
X128143Y-61321D01*
X127591Y-60702D02*
X127514Y-60702D01*
X127476Y-60726D01*
X127438Y-60774D01*
X127419Y-60869D01*
X127419Y-61036D01*
X127438Y-61131D01*
X127476Y-61179D01*
X127514Y-61202D01*
X127591Y-61202D01*
X127629Y-61179D01*
X127667Y-61131D01*
X127686Y-61036D01*
X127686Y-60869D01*
X127667Y-60774D01*
X127629Y-60726D01*
X127591Y-60702D01*
X126981Y-60702D02*
X126886Y-61202D01*
X126809Y-60845D01*
X126733Y-61202D01*
X126638Y-60702D01*
X126314Y-61202D02*
X126314Y-60940D01*
X126333Y-60893D01*
X126371Y-60869D01*
X126448Y-60869D01*
X126486Y-60893D01*
X126314Y-61179D02*
X126352Y-61202D01*
X126448Y-61202D01*
X126486Y-61179D01*
X126505Y-61131D01*
X126505Y-61083D01*
X126486Y-61036D01*
X126448Y-61012D01*
X126352Y-61012D01*
X126314Y-60988D01*
X126124Y-61202D02*
X126124Y-60869D01*
X126124Y-60702D02*
X126143Y-60726D01*
X126124Y-60750D01*
X126105Y-60726D01*
X126124Y-60702D01*
X126124Y-60750D01*
X125991Y-60869D02*
X125839Y-60869D01*
X125934Y-60702D02*
X125934Y-61131D01*
X125915Y-61179D01*
X125877Y-61202D01*
X125839Y-61202D01*
X125419Y-61179D02*
X125362Y-61202D01*
X125266Y-61202D01*
X125228Y-61179D01*
X125209Y-61155D01*
X125190Y-61107D01*
X125190Y-61060D01*
X125209Y-61012D01*
X125228Y-60988D01*
X125266Y-60964D01*
X125343Y-60940D01*
X125381Y-60917D01*
X125400Y-60893D01*
X125419Y-60845D01*
X125419Y-60798D01*
X125400Y-60750D01*
X125381Y-60726D01*
X125343Y-60702D01*
X125247Y-60702D01*
X125190Y-60726D01*
X125076Y-60869D02*
X124924Y-60869D01*
X125019Y-60702D02*
X125019Y-61131D01*
X125000Y-61179D01*
X124962Y-61202D01*
X124924Y-61202D01*
X124618Y-61202D02*
X124618Y-60940D01*
X124637Y-60893D01*
X124675Y-60869D01*
X124752Y-60869D01*
X124790Y-60893D01*
X124618Y-61179D02*
X124656Y-61202D01*
X124752Y-61202D01*
X124790Y-61179D01*
X124809Y-61131D01*
X124809Y-61083D01*
X124790Y-61036D01*
X124752Y-61012D01*
X124656Y-61012D01*
X124618Y-60988D01*
X124485Y-60869D02*
X124333Y-60869D01*
X124428Y-60702D02*
X124428Y-61131D01*
X124409Y-61179D01*
X124371Y-61202D01*
X124333Y-61202D01*
X124046Y-61179D02*
X124084Y-61202D01*
X124161Y-61202D01*
X124199Y-61179D01*
X124218Y-61131D01*
X124218Y-60940D01*
X124199Y-60893D01*
X124161Y-60869D01*
X124084Y-60869D01*
X124046Y-60893D01*
X124027Y-60940D01*
X124027Y-60988D01*
X124218Y-61036D01*
X130829Y-61482D02*
X130752Y-61482D01*
X130714Y-61506D01*
X130676Y-61554D01*
X130657Y-61649D01*
X130657Y-61816D01*
X130676Y-61911D01*
X130714Y-61959D01*
X130752Y-61982D01*
X130829Y-61982D01*
X130867Y-61959D01*
X130905Y-61911D01*
X130924Y-61816D01*
X130924Y-61649D01*
X130905Y-61554D01*
X130867Y-61506D01*
X130829Y-61482D01*
X130486Y-61982D02*
X130486Y-61482D01*
X130257Y-61982D01*
X130257Y-61482D01*
X129762Y-61720D02*
X129457Y-61720D01*
X129457Y-61863D02*
X129762Y-61863D01*
X128981Y-61530D02*
X128962Y-61506D01*
X128924Y-61482D01*
X128828Y-61482D01*
X128790Y-61506D01*
X128771Y-61530D01*
X128752Y-61578D01*
X128752Y-61625D01*
X128771Y-61697D01*
X129000Y-61982D01*
X128752Y-61982D01*
X128276Y-61982D02*
X128276Y-61482D01*
X127800Y-61459D02*
X128143Y-62101D01*
X127591Y-61482D02*
X127514Y-61482D01*
X127476Y-61506D01*
X127438Y-61554D01*
X127419Y-61649D01*
X127419Y-61816D01*
X127438Y-61911D01*
X127476Y-61959D01*
X127514Y-61982D01*
X127591Y-61982D01*
X127629Y-61959D01*
X127667Y-61911D01*
X127686Y-61816D01*
X127686Y-61649D01*
X127667Y-61554D01*
X127629Y-61506D01*
X127591Y-61482D01*
X126981Y-61482D02*
X126886Y-61982D01*
X126809Y-61625D01*
X126733Y-61982D01*
X126638Y-61482D01*
X126314Y-61982D02*
X126314Y-61720D01*
X126333Y-61673D01*
X126371Y-61649D01*
X126448Y-61649D01*
X126486Y-61673D01*
X126314Y-61959D02*
X126352Y-61982D01*
X126448Y-61982D01*
X126486Y-61959D01*
X126505Y-61911D01*
X126505Y-61863D01*
X126486Y-61816D01*
X126448Y-61792D01*
X126352Y-61792D01*
X126314Y-61768D01*
X126124Y-61982D02*
X126124Y-61649D01*
X126124Y-61482D02*
X126143Y-61506D01*
X126124Y-61530D01*
X126105Y-61506D01*
X126124Y-61482D01*
X126124Y-61530D01*
X125991Y-61649D02*
X125839Y-61649D01*
X125934Y-61482D02*
X125934Y-61911D01*
X125915Y-61959D01*
X125877Y-61982D01*
X125839Y-61982D01*
X125419Y-61959D02*
X125362Y-61982D01*
X125266Y-61982D01*
X125228Y-61959D01*
X125209Y-61935D01*
X125190Y-61887D01*
X125190Y-61840D01*
X125209Y-61792D01*
X125228Y-61768D01*
X125266Y-61744D01*
X125343Y-61720D01*
X125381Y-61697D01*
X125400Y-61673D01*
X125419Y-61625D01*
X125419Y-61578D01*
X125400Y-61530D01*
X125381Y-61506D01*
X125343Y-61482D01*
X125247Y-61482D01*
X125190Y-61506D01*
X125076Y-61649D02*
X124924Y-61649D01*
X125019Y-61482D02*
X125019Y-61911D01*
X125000Y-61959D01*
X124962Y-61982D01*
X124924Y-61982D01*
X124618Y-61982D02*
X124618Y-61720D01*
X124637Y-61673D01*
X124675Y-61649D01*
X124752Y-61649D01*
X124790Y-61673D01*
X124618Y-61959D02*
X124656Y-61982D01*
X124752Y-61982D01*
X124790Y-61959D01*
X124809Y-61911D01*
X124809Y-61863D01*
X124790Y-61816D01*
X124752Y-61792D01*
X124656Y-61792D01*
X124618Y-61768D01*
X124485Y-61649D02*
X124333Y-61649D01*
X124428Y-61482D02*
X124428Y-61911D01*
X124409Y-61959D01*
X124371Y-61982D01*
X124333Y-61982D01*
X124046Y-61959D02*
X124084Y-61982D01*
X124161Y-61982D01*
X124199Y-61959D01*
X124218Y-61911D01*
X124218Y-61720D01*
X124199Y-61673D01*
X124161Y-61649D01*
X124084Y-61649D01*
X124046Y-61673D01*
X124027Y-61720D01*
X124027Y-61768D01*
X124218Y-61816D01*
X123875Y-61959D02*
X123837Y-61982D01*
X123761Y-61982D01*
X123722Y-61959D01*
X123703Y-61911D01*
X123703Y-61887D01*
X123722Y-61840D01*
X123761Y-61816D01*
X123818Y-61816D01*
X123856Y-61792D01*
X123875Y-61744D01*
X123875Y-61720D01*
X123856Y-61673D01*
X123818Y-61649D01*
X123761Y-61649D01*
X123722Y-61673D01*
X130829Y-62262D02*
X130752Y-62262D01*
X130714Y-62286D01*
X130676Y-62334D01*
X130657Y-62429D01*
X130657Y-62596D01*
X130676Y-62691D01*
X130714Y-62739D01*
X130752Y-62762D01*
X130829Y-62762D01*
X130867Y-62739D01*
X130905Y-62691D01*
X130924Y-62596D01*
X130924Y-62429D01*
X130905Y-62334D01*
X130867Y-62286D01*
X130829Y-62262D01*
X130486Y-62762D02*
X130486Y-62262D01*
X130257Y-62762D01*
X130257Y-62262D01*
X129762Y-62500D02*
X129457Y-62500D01*
X129457Y-62643D02*
X129762Y-62643D01*
X129000Y-62262D02*
X128752Y-62262D01*
X128886Y-62453D01*
X128828Y-62453D01*
X128790Y-62477D01*
X128771Y-62500D01*
X128752Y-62548D01*
X128752Y-62667D01*
X128771Y-62715D01*
X128790Y-62739D01*
X128828Y-62762D01*
X128943Y-62762D01*
X128981Y-62739D01*
X129000Y-62715D01*
X128276Y-62762D02*
X128276Y-62262D01*
X127800Y-62239D02*
X128143Y-62881D01*
X127591Y-62262D02*
X127514Y-62262D01*
X127476Y-62286D01*
X127438Y-62334D01*
X127419Y-62429D01*
X127419Y-62596D01*
X127438Y-62691D01*
X127476Y-62739D01*
X127514Y-62762D01*
X127591Y-62762D01*
X127629Y-62739D01*
X127667Y-62691D01*
X127686Y-62596D01*
X127686Y-62429D01*
X127667Y-62334D01*
X127629Y-62286D01*
X127591Y-62262D01*
X126981Y-62262D02*
X126886Y-62762D01*
X126809Y-62405D01*
X126733Y-62762D01*
X126638Y-62262D01*
X126314Y-62762D02*
X126314Y-62500D01*
X126333Y-62453D01*
X126371Y-62429D01*
X126448Y-62429D01*
X126486Y-62453D01*
X126314Y-62739D02*
X126352Y-62762D01*
X126448Y-62762D01*
X126486Y-62739D01*
X126505Y-62691D01*
X126505Y-62643D01*
X126486Y-62596D01*
X126448Y-62572D01*
X126352Y-62572D01*
X126314Y-62548D01*
X126124Y-62762D02*
X126124Y-62429D01*
X126124Y-62262D02*
X126143Y-62286D01*
X126124Y-62310D01*
X126105Y-62286D01*
X126124Y-62262D01*
X126124Y-62310D01*
X125991Y-62429D02*
X125839Y-62429D01*
X125934Y-62262D02*
X125934Y-62691D01*
X125915Y-62739D01*
X125877Y-62762D01*
X125839Y-62762D01*
X125419Y-62739D02*
X125362Y-62762D01*
X125266Y-62762D01*
X125228Y-62739D01*
X125209Y-62715D01*
X125190Y-62667D01*
X125190Y-62620D01*
X125209Y-62572D01*
X125228Y-62548D01*
X125266Y-62524D01*
X125343Y-62500D01*
X125381Y-62477D01*
X125400Y-62453D01*
X125419Y-62405D01*
X125419Y-62358D01*
X125400Y-62310D01*
X125381Y-62286D01*
X125343Y-62262D01*
X125247Y-62262D01*
X125190Y-62286D01*
X125076Y-62429D02*
X124924Y-62429D01*
X125019Y-62262D02*
X125019Y-62691D01*
X125000Y-62739D01*
X124962Y-62762D01*
X124924Y-62762D01*
X124618Y-62762D02*
X124618Y-62500D01*
X124637Y-62453D01*
X124675Y-62429D01*
X124752Y-62429D01*
X124790Y-62453D01*
X124618Y-62739D02*
X124656Y-62762D01*
X124752Y-62762D01*
X124790Y-62739D01*
X124809Y-62691D01*
X124809Y-62643D01*
X124790Y-62596D01*
X124752Y-62572D01*
X124656Y-62572D01*
X124618Y-62548D01*
X124485Y-62429D02*
X124333Y-62429D01*
X124428Y-62262D02*
X124428Y-62691D01*
X124409Y-62739D01*
X124371Y-62762D01*
X124333Y-62762D01*
X124046Y-62739D02*
X124084Y-62762D01*
X124161Y-62762D01*
X124199Y-62739D01*
X124218Y-62691D01*
X124218Y-62500D01*
X124199Y-62453D01*
X124161Y-62429D01*
X124084Y-62429D01*
X124046Y-62453D01*
X124027Y-62500D01*
X124027Y-62548D01*
X124218Y-62596D01*
X123875Y-62739D02*
X123837Y-62762D01*
X123761Y-62762D01*
X123722Y-62739D01*
X123703Y-62691D01*
X123703Y-62667D01*
X123722Y-62620D01*
X123761Y-62596D01*
X123818Y-62596D01*
X123856Y-62572D01*
X123875Y-62524D01*
X123875Y-62500D01*
X123856Y-62453D01*
X123818Y-62429D01*
X123761Y-62429D01*
X123722Y-62453D01*
X130829Y-63042D02*
X130752Y-63042D01*
X130714Y-63066D01*
X130676Y-63114D01*
X130657Y-63209D01*
X130657Y-63376D01*
X130676Y-63471D01*
X130714Y-63519D01*
X130752Y-63542D01*
X130829Y-63542D01*
X130867Y-63519D01*
X130905Y-63471D01*
X130924Y-63376D01*
X130924Y-63209D01*
X130905Y-63114D01*
X130867Y-63066D01*
X130829Y-63042D01*
X130486Y-63542D02*
X130486Y-63042D01*
X130257Y-63542D01*
X130257Y-63042D01*
X129762Y-63280D02*
X129457Y-63280D01*
X129457Y-63423D02*
X129762Y-63423D01*
X128790Y-63209D02*
X128790Y-63542D01*
X128886Y-63019D02*
X128981Y-63376D01*
X128733Y-63376D01*
X128276Y-63542D02*
X128276Y-63042D01*
X127800Y-63019D02*
X128143Y-63661D01*
X127591Y-63042D02*
X127514Y-63042D01*
X127476Y-63066D01*
X127438Y-63114D01*
X127419Y-63209D01*
X127419Y-63376D01*
X127438Y-63471D01*
X127476Y-63519D01*
X127514Y-63542D01*
X127591Y-63542D01*
X127629Y-63519D01*
X127667Y-63471D01*
X127686Y-63376D01*
X127686Y-63209D01*
X127667Y-63114D01*
X127629Y-63066D01*
X127591Y-63042D01*
X126981Y-63042D02*
X126886Y-63542D01*
X126809Y-63185D01*
X126733Y-63542D01*
X126638Y-63042D01*
X126314Y-63542D02*
X126314Y-63280D01*
X126333Y-63233D01*
X126371Y-63209D01*
X126448Y-63209D01*
X126486Y-63233D01*
X126314Y-63519D02*
X126352Y-63542D01*
X126448Y-63542D01*
X126486Y-63519D01*
X126505Y-63471D01*
X126505Y-63423D01*
X126486Y-63376D01*
X126448Y-63352D01*
X126352Y-63352D01*
X126314Y-63328D01*
X126124Y-63542D02*
X126124Y-63209D01*
X126124Y-63042D02*
X126143Y-63066D01*
X126124Y-63090D01*
X126105Y-63066D01*
X126124Y-63042D01*
X126124Y-63090D01*
X125991Y-63209D02*
X125839Y-63209D01*
X125934Y-63042D02*
X125934Y-63471D01*
X125915Y-63519D01*
X125877Y-63542D01*
X125839Y-63542D01*
X125419Y-63519D02*
X125362Y-63542D01*
X125266Y-63542D01*
X125228Y-63519D01*
X125209Y-63495D01*
X125190Y-63447D01*
X125190Y-63400D01*
X125209Y-63352D01*
X125228Y-63328D01*
X125266Y-63304D01*
X125343Y-63280D01*
X125381Y-63257D01*
X125400Y-63233D01*
X125419Y-63185D01*
X125419Y-63138D01*
X125400Y-63090D01*
X125381Y-63066D01*
X125343Y-63042D01*
X125247Y-63042D01*
X125190Y-63066D01*
X125076Y-63209D02*
X124924Y-63209D01*
X125019Y-63042D02*
X125019Y-63471D01*
X125000Y-63519D01*
X124962Y-63542D01*
X124924Y-63542D01*
X124618Y-63542D02*
X124618Y-63280D01*
X124637Y-63233D01*
X124675Y-63209D01*
X124752Y-63209D01*
X124790Y-63233D01*
X124618Y-63519D02*
X124656Y-63542D01*
X124752Y-63542D01*
X124790Y-63519D01*
X124809Y-63471D01*
X124809Y-63423D01*
X124790Y-63376D01*
X124752Y-63352D01*
X124656Y-63352D01*
X124618Y-63328D01*
X124485Y-63209D02*
X124333Y-63209D01*
X124428Y-63042D02*
X124428Y-63471D01*
X124409Y-63519D01*
X124371Y-63542D01*
X124333Y-63542D01*
X124046Y-63519D02*
X124084Y-63542D01*
X124161Y-63542D01*
X124199Y-63519D01*
X124218Y-63471D01*
X124218Y-63280D01*
X124199Y-63233D01*
X124161Y-63209D01*
X124084Y-63209D01*
X124046Y-63233D01*
X124027Y-63280D01*
X124027Y-63328D01*
X124218Y-63376D01*
X123875Y-63519D02*
X123837Y-63542D01*
X123761Y-63542D01*
X123722Y-63519D01*
X123703Y-63471D01*
X123703Y-63447D01*
X123722Y-63400D01*
X123761Y-63376D01*
X123818Y-63376D01*
X123856Y-63352D01*
X123875Y-63304D01*
X123875Y-63280D01*
X123856Y-63233D01*
X123818Y-63209D01*
X123761Y-63209D01*
X123722Y-63233D01*
X130829Y-63822D02*
X130752Y-63822D01*
X130714Y-63846D01*
X130676Y-63894D01*
X130657Y-63989D01*
X130657Y-64156D01*
X130676Y-64251D01*
X130714Y-64299D01*
X130752Y-64322D01*
X130829Y-64322D01*
X130867Y-64299D01*
X130905Y-64251D01*
X130924Y-64156D01*
X130924Y-63989D01*
X130905Y-63894D01*
X130867Y-63846D01*
X130829Y-63822D01*
X130486Y-63989D02*
X130486Y-64322D01*
X130486Y-64037D02*
X130467Y-64013D01*
X130429Y-63989D01*
X130371Y-63989D01*
X130333Y-64013D01*
X130314Y-64060D01*
X130314Y-64322D01*
X129971Y-64299D02*
X130009Y-64322D01*
X130086Y-64322D01*
X130124Y-64299D01*
X130143Y-64251D01*
X130143Y-64060D01*
X130124Y-64013D01*
X130086Y-63989D01*
X130009Y-63989D01*
X129971Y-64013D01*
X129952Y-64060D01*
X129952Y-64108D01*
X130143Y-64156D01*
X129304Y-64322D02*
X129304Y-64060D01*
X129323Y-64013D01*
X129361Y-63989D01*
X129438Y-63989D01*
X129476Y-64013D01*
X129304Y-64299D02*
X129342Y-64322D01*
X129438Y-64322D01*
X129476Y-64299D01*
X129495Y-64251D01*
X129495Y-64203D01*
X129476Y-64156D01*
X129438Y-64132D01*
X129342Y-64132D01*
X129304Y-64108D01*
X129114Y-63989D02*
X129114Y-64322D01*
X129114Y-64037D02*
X129095Y-64013D01*
X129057Y-63989D01*
X128999Y-63989D01*
X128961Y-64013D01*
X128942Y-64060D01*
X128942Y-64322D01*
X128580Y-64322D02*
X128580Y-63822D01*
X128580Y-64299D02*
X128618Y-64322D01*
X128695Y-64322D01*
X128733Y-64299D01*
X128752Y-64275D01*
X128771Y-64227D01*
X128771Y-64084D01*
X128752Y-64037D01*
X128733Y-64013D01*
X128695Y-63989D01*
X128618Y-63989D01*
X128580Y-64013D01*
X128028Y-64322D02*
X128066Y-64299D01*
X128085Y-64275D01*
X128104Y-64227D01*
X128104Y-64084D01*
X128085Y-64037D01*
X128066Y-64013D01*
X128028Y-63989D01*
X127970Y-63989D01*
X127932Y-64013D01*
X127913Y-64037D01*
X127894Y-64084D01*
X127894Y-64227D01*
X127913Y-64275D01*
X127932Y-64299D01*
X127970Y-64322D01*
X128028Y-64322D01*
X127723Y-63989D02*
X127723Y-64322D01*
X127723Y-64037D02*
X127704Y-64013D01*
X127666Y-63989D01*
X127608Y-63989D01*
X127570Y-64013D01*
X127551Y-64060D01*
X127551Y-64322D01*
X127304Y-64322D02*
X127342Y-64299D01*
X127361Y-64251D01*
X127361Y-63822D01*
X127189Y-63989D02*
X127094Y-64322D01*
X126998Y-63989D02*
X127094Y-64322D01*
X127132Y-64441D01*
X127151Y-64465D01*
X127189Y-64489D01*
X126484Y-64322D02*
X126522Y-64299D01*
X126541Y-64275D01*
X126560Y-64227D01*
X126560Y-64084D01*
X126541Y-64037D01*
X126522Y-64013D01*
X126484Y-63989D01*
X126426Y-63989D01*
X126388Y-64013D01*
X126369Y-64037D01*
X126350Y-64084D01*
X126350Y-64227D01*
X126369Y-64275D01*
X126388Y-64299D01*
X126426Y-64322D01*
X126484Y-64322D01*
X126179Y-63989D02*
X126179Y-64322D01*
X126179Y-64037D02*
X126160Y-64013D01*
X126122Y-63989D01*
X126064Y-63989D01*
X126026Y-64013D01*
X126007Y-64060D01*
X126007Y-64322D01*
X125664Y-64299D02*
X125702Y-64322D01*
X125779Y-64322D01*
X125817Y-64299D01*
X125836Y-64251D01*
X125836Y-64060D01*
X125817Y-64013D01*
X125779Y-63989D01*
X125702Y-63989D01*
X125664Y-64013D01*
X125645Y-64060D01*
X125645Y-64108D01*
X125836Y-64156D01*
X125112Y-64322D02*
X125150Y-64299D01*
X125169Y-64275D01*
X125188Y-64227D01*
X125188Y-64084D01*
X125169Y-64037D01*
X125150Y-64013D01*
X125112Y-63989D01*
X125054Y-63989D01*
X125016Y-64013D01*
X124997Y-64037D01*
X124978Y-64084D01*
X124978Y-64227D01*
X124997Y-64275D01*
X125016Y-64299D01*
X125054Y-64322D01*
X125112Y-64322D01*
X124864Y-63989D02*
X124712Y-63989D01*
X124807Y-64322D02*
X124807Y-63894D01*
X124788Y-63846D01*
X124750Y-63822D01*
X124712Y-63822D01*
X124292Y-64299D02*
X124235Y-64322D01*
X124139Y-64322D01*
X124101Y-64299D01*
X124082Y-64275D01*
X124063Y-64227D01*
X124063Y-64180D01*
X124082Y-64132D01*
X124101Y-64108D01*
X124139Y-64084D01*
X124216Y-64060D01*
X124254Y-64037D01*
X124273Y-64013D01*
X124292Y-63965D01*
X124292Y-63918D01*
X124273Y-63870D01*
X124254Y-63846D01*
X124216Y-63822D01*
X124120Y-63822D01*
X124063Y-63846D01*
X123930Y-63822D02*
X123835Y-64322D01*
X123758Y-63965D01*
X123682Y-64322D01*
X123587Y-63822D01*
X123473Y-63822D02*
X123225Y-63822D01*
X123359Y-64013D01*
X123301Y-64013D01*
X123263Y-64037D01*
X123244Y-64060D01*
X123225Y-64108D01*
X123225Y-64227D01*
X123244Y-64275D01*
X123263Y-64299D01*
X123301Y-64322D01*
X123416Y-64322D01*
X123454Y-64299D01*
X123473Y-64275D01*
X122768Y-64299D02*
X122730Y-64322D01*
X122654Y-64322D01*
X122615Y-64299D01*
X122596Y-64251D01*
X122596Y-64227D01*
X122615Y-64180D01*
X122654Y-64156D01*
X122711Y-64156D01*
X122749Y-64132D01*
X122768Y-64084D01*
X122768Y-64060D01*
X122749Y-64013D01*
X122711Y-63989D01*
X122654Y-63989D01*
X122615Y-64013D01*
X122463Y-63989D02*
X122387Y-64322D01*
X122310Y-64084D01*
X122234Y-64322D01*
X122158Y-63989D01*
X122006Y-64322D02*
X122006Y-63989D01*
X122006Y-63822D02*
X122025Y-63846D01*
X122006Y-63870D01*
X121987Y-63846D01*
X122006Y-63822D01*
X122006Y-63870D01*
X121873Y-63989D02*
X121721Y-63989D01*
X121816Y-63822D02*
X121816Y-64251D01*
X121797Y-64299D01*
X121759Y-64322D01*
X121721Y-64322D01*
X121415Y-64299D02*
X121453Y-64322D01*
X121530Y-64322D01*
X121568Y-64299D01*
X121587Y-64275D01*
X121606Y-64227D01*
X121606Y-64084D01*
X121587Y-64037D01*
X121568Y-64013D01*
X121530Y-63989D01*
X121453Y-63989D01*
X121415Y-64013D01*
X121244Y-64322D02*
X121244Y-63822D01*
X121072Y-64322D02*
X121072Y-64060D01*
X121091Y-64013D01*
X121129Y-63989D01*
X121187Y-63989D01*
X121225Y-64013D01*
X121244Y-64037D01*
X120729Y-64299D02*
X120767Y-64322D01*
X120844Y-64322D01*
X120882Y-64299D01*
X120901Y-64251D01*
X120901Y-64060D01*
X120882Y-64013D01*
X120844Y-63989D01*
X120767Y-63989D01*
X120729Y-64013D01*
X120710Y-64060D01*
X120710Y-64108D01*
X120901Y-64156D01*
X120558Y-64299D02*
X120520Y-64322D01*
X120444Y-64322D01*
X120405Y-64299D01*
X120386Y-64251D01*
X120386Y-64227D01*
X120405Y-64180D01*
X120444Y-64156D01*
X120501Y-64156D01*
X120539Y-64132D01*
X120558Y-64084D01*
X120558Y-64060D01*
X120539Y-64013D01*
X120501Y-63989D01*
X120444Y-63989D01*
X120405Y-64013D01*
X130905Y-65102D02*
X130905Y-64769D01*
X130905Y-64817D02*
X130886Y-64793D01*
X130848Y-64769D01*
X130790Y-64769D01*
X130752Y-64793D01*
X130733Y-64840D01*
X130733Y-65102D01*
X130733Y-64840D02*
X130714Y-64793D01*
X130676Y-64769D01*
X130619Y-64769D01*
X130581Y-64793D01*
X130562Y-64840D01*
X130562Y-65102D01*
X130200Y-64769D02*
X130200Y-65102D01*
X130372Y-64769D02*
X130372Y-65031D01*
X130353Y-65079D01*
X130315Y-65102D01*
X130257Y-65102D01*
X130219Y-65079D01*
X130200Y-65055D01*
X130029Y-65079D02*
X129991Y-65102D01*
X129915Y-65102D01*
X129876Y-65079D01*
X129857Y-65031D01*
X129857Y-65007D01*
X129876Y-64960D01*
X129915Y-64936D01*
X129972Y-64936D01*
X130010Y-64912D01*
X130029Y-64864D01*
X130029Y-64840D01*
X130010Y-64793D01*
X129972Y-64769D01*
X129915Y-64769D01*
X129876Y-64793D01*
X129743Y-64769D02*
X129591Y-64769D01*
X129686Y-64602D02*
X129686Y-65031D01*
X129667Y-65079D01*
X129629Y-65102D01*
X129591Y-65102D01*
X129152Y-65102D02*
X129152Y-64602D01*
X129152Y-64793D02*
X129114Y-64769D01*
X129037Y-64769D01*
X128999Y-64793D01*
X128980Y-64817D01*
X128961Y-64864D01*
X128961Y-65007D01*
X128980Y-65055D01*
X128999Y-65079D01*
X129037Y-65102D01*
X129114Y-65102D01*
X129152Y-65079D01*
X128637Y-65079D02*
X128675Y-65102D01*
X128752Y-65102D01*
X128790Y-65079D01*
X128809Y-65031D01*
X128809Y-64840D01*
X128790Y-64793D01*
X128752Y-64769D01*
X128675Y-64769D01*
X128637Y-64793D01*
X128618Y-64840D01*
X128618Y-64888D01*
X128809Y-64936D01*
X128066Y-64602D02*
X127989Y-64602D01*
X127951Y-64626D01*
X127913Y-64674D01*
X127894Y-64769D01*
X127894Y-64936D01*
X127913Y-65031D01*
X127951Y-65079D01*
X127989Y-65102D01*
X128066Y-65102D01*
X128104Y-65079D01*
X128142Y-65031D01*
X128161Y-64936D01*
X128161Y-64769D01*
X128142Y-64674D01*
X128104Y-64626D01*
X128066Y-64602D01*
X127723Y-65102D02*
X127723Y-64602D01*
X127494Y-65102D01*
X127494Y-64602D01*
X134424Y-61179D02*
X134367Y-61202D01*
X134271Y-61202D01*
X134233Y-61179D01*
X134214Y-61155D01*
X134195Y-61107D01*
X134195Y-61060D01*
X134214Y-61012D01*
X134233Y-60988D01*
X134271Y-60964D01*
X134348Y-60940D01*
X134386Y-60917D01*
X134405Y-60893D01*
X134424Y-60845D01*
X134424Y-60798D01*
X134405Y-60750D01*
X134386Y-60726D01*
X134348Y-60702D01*
X134252Y-60702D01*
X134195Y-60726D01*
X134062Y-60702D02*
X133967Y-61202D01*
X133890Y-60845D01*
X133814Y-61202D01*
X133719Y-60702D01*
X133605Y-60702D02*
X133357Y-60702D01*
X133491Y-60893D01*
X133433Y-60893D01*
X133395Y-60917D01*
X133376Y-60940D01*
X133357Y-60988D01*
X133357Y-61107D01*
X133376Y-61155D01*
X133395Y-61179D01*
X133433Y-61202D01*
X133548Y-61202D01*
X133586Y-61179D01*
X133605Y-61155D01*
X133186Y-61155D02*
X133167Y-61179D01*
X133186Y-61202D01*
X133205Y-61179D01*
X133186Y-61155D01*
X133186Y-61202D01*
X132786Y-61202D02*
X133015Y-61202D01*
X132901Y-61202D02*
X132901Y-60702D01*
X132939Y-60774D01*
X132977Y-60821D01*
X133015Y-60845D01*
X132310Y-61012D02*
X132005Y-61012D01*
X134424Y-61959D02*
X134367Y-61982D01*
X134271Y-61982D01*
X134233Y-61959D01*
X134214Y-61935D01*
X134195Y-61887D01*
X134195Y-61840D01*
X134214Y-61792D01*
X134233Y-61768D01*
X134271Y-61744D01*
X134348Y-61720D01*
X134386Y-61697D01*
X134405Y-61673D01*
X134424Y-61625D01*
X134424Y-61578D01*
X134405Y-61530D01*
X134386Y-61506D01*
X134348Y-61482D01*
X134252Y-61482D01*
X134195Y-61506D01*
X134062Y-61482D02*
X133967Y-61982D01*
X133890Y-61625D01*
X133814Y-61982D01*
X133719Y-61482D01*
X133605Y-61482D02*
X133357Y-61482D01*
X133491Y-61673D01*
X133433Y-61673D01*
X133395Y-61697D01*
X133376Y-61720D01*
X133357Y-61768D01*
X133357Y-61887D01*
X133376Y-61935D01*
X133395Y-61959D01*
X133433Y-61982D01*
X133548Y-61982D01*
X133586Y-61959D01*
X133605Y-61935D01*
X133186Y-61935D02*
X133167Y-61959D01*
X133186Y-61982D01*
X133205Y-61959D01*
X133186Y-61935D01*
X133186Y-61982D01*
X133015Y-61530D02*
X132996Y-61506D01*
X132958Y-61482D01*
X132862Y-61482D01*
X132824Y-61506D01*
X132805Y-61530D01*
X132786Y-61578D01*
X132786Y-61625D01*
X132805Y-61697D01*
X133034Y-61982D01*
X132786Y-61982D01*
X132310Y-61792D02*
X132005Y-61792D01*
X134424Y-62739D02*
X134367Y-62762D01*
X134271Y-62762D01*
X134233Y-62739D01*
X134214Y-62715D01*
X134195Y-62667D01*
X134195Y-62620D01*
X134214Y-62572D01*
X134233Y-62548D01*
X134271Y-62524D01*
X134348Y-62500D01*
X134386Y-62477D01*
X134405Y-62453D01*
X134424Y-62405D01*
X134424Y-62358D01*
X134405Y-62310D01*
X134386Y-62286D01*
X134348Y-62262D01*
X134252Y-62262D01*
X134195Y-62286D01*
X134062Y-62262D02*
X133967Y-62762D01*
X133890Y-62405D01*
X133814Y-62762D01*
X133719Y-62262D01*
X133605Y-62262D02*
X133357Y-62262D01*
X133491Y-62453D01*
X133433Y-62453D01*
X133395Y-62477D01*
X133376Y-62500D01*
X133357Y-62548D01*
X133357Y-62667D01*
X133376Y-62715D01*
X133395Y-62739D01*
X133433Y-62762D01*
X133548Y-62762D01*
X133586Y-62739D01*
X133605Y-62715D01*
X133186Y-62715D02*
X133167Y-62739D01*
X133186Y-62762D01*
X133205Y-62739D01*
X133186Y-62715D01*
X133186Y-62762D01*
X133034Y-62262D02*
X132786Y-62262D01*
X132920Y-62453D01*
X132862Y-62453D01*
X132824Y-62477D01*
X132805Y-62500D01*
X132786Y-62548D01*
X132786Y-62667D01*
X132805Y-62715D01*
X132824Y-62739D01*
X132862Y-62762D01*
X132977Y-62762D01*
X133015Y-62739D01*
X133034Y-62715D01*
X132310Y-62572D02*
X132005Y-62572D01*
X134424Y-63519D02*
X134367Y-63542D01*
X134271Y-63542D01*
X134233Y-63519D01*
X134214Y-63495D01*
X134195Y-63447D01*
X134195Y-63400D01*
X134214Y-63352D01*
X134233Y-63328D01*
X134271Y-63304D01*
X134348Y-63280D01*
X134386Y-63257D01*
X134405Y-63233D01*
X134424Y-63185D01*
X134424Y-63138D01*
X134405Y-63090D01*
X134386Y-63066D01*
X134348Y-63042D01*
X134252Y-63042D01*
X134195Y-63066D01*
X134062Y-63042D02*
X133967Y-63542D01*
X133890Y-63185D01*
X133814Y-63542D01*
X133719Y-63042D01*
X133605Y-63042D02*
X133357Y-63042D01*
X133491Y-63233D01*
X133433Y-63233D01*
X133395Y-63257D01*
X133376Y-63280D01*
X133357Y-63328D01*
X133357Y-63447D01*
X133376Y-63495D01*
X133395Y-63519D01*
X133433Y-63542D01*
X133548Y-63542D01*
X133586Y-63519D01*
X133605Y-63495D01*
X133186Y-63495D02*
X133167Y-63519D01*
X133186Y-63542D01*
X133205Y-63519D01*
X133186Y-63495D01*
X133186Y-63542D01*
X132824Y-63209D02*
X132824Y-63542D01*
X132920Y-63019D02*
X133015Y-63376D01*
X132767Y-63376D01*
X132310Y-63352D02*
X132005Y-63352D01*
X134405Y-64322D02*
X134405Y-63822D01*
X134176Y-64322D01*
X134176Y-63822D01*
X133929Y-64322D02*
X133967Y-64299D01*
X133986Y-64275D01*
X134005Y-64227D01*
X134005Y-64084D01*
X133986Y-64037D01*
X133967Y-64013D01*
X133929Y-63989D01*
X133871Y-63989D01*
X133833Y-64013D01*
X133814Y-64037D01*
X133795Y-64084D01*
X133795Y-64227D01*
X133814Y-64275D01*
X133833Y-64299D01*
X133871Y-64322D01*
X133929Y-64322D01*
X133681Y-63989D02*
X133529Y-63989D01*
X133624Y-63822D02*
X133624Y-64251D01*
X133605Y-64299D01*
X133567Y-64322D01*
X133529Y-64322D01*
X133242Y-64299D02*
X133280Y-64322D01*
X133357Y-64322D01*
X133395Y-64299D01*
X133414Y-64251D01*
X133414Y-64060D01*
X133395Y-64013D01*
X133357Y-63989D01*
X133280Y-63989D01*
X133242Y-64013D01*
X133223Y-64060D01*
X133223Y-64108D01*
X133414Y-64156D01*
X133052Y-64275D02*
X133033Y-64299D01*
X133052Y-64322D01*
X133071Y-64299D01*
X133052Y-64275D01*
X133052Y-64322D01*
X133052Y-64013D02*
X133033Y-64037D01*
X133052Y-64060D01*
X133071Y-64037D01*
X133052Y-64013D01*
X133052Y-64060D01*
X130829Y-52702D02*
X130752Y-52702D01*
X130714Y-52726D01*
X130676Y-52774D01*
X130657Y-52869D01*
X130657Y-53036D01*
X130676Y-53131D01*
X130714Y-53179D01*
X130752Y-53202D01*
X130829Y-53202D01*
X130867Y-53179D01*
X130905Y-53131D01*
X130924Y-53036D01*
X130924Y-52869D01*
X130905Y-52774D01*
X130867Y-52726D01*
X130829Y-52702D01*
X130486Y-53202D02*
X130486Y-52702D01*
X130257Y-53202D01*
X130257Y-52702D01*
X129762Y-52940D02*
X129457Y-52940D01*
X129457Y-53083D02*
X129762Y-53083D01*
X128790Y-52702D02*
X128867Y-52702D01*
X128905Y-52726D01*
X128924Y-52750D01*
X128962Y-52821D01*
X128981Y-52917D01*
X128981Y-53107D01*
X128962Y-53155D01*
X128943Y-53179D01*
X128905Y-53202D01*
X128828Y-53202D01*
X128790Y-53179D01*
X128771Y-53155D01*
X128752Y-53107D01*
X128752Y-52988D01*
X128771Y-52940D01*
X128790Y-52917D01*
X128828Y-52893D01*
X128905Y-52893D01*
X128943Y-52917D01*
X128962Y-52940D01*
X128981Y-52988D01*
X128409Y-52869D02*
X128409Y-53202D01*
X128505Y-52679D02*
X128600Y-53036D01*
X128352Y-53036D01*
X127895Y-53202D02*
X127895Y-52702D01*
X127666Y-53202D02*
X127838Y-52917D01*
X127666Y-52702D02*
X127895Y-52988D01*
X127495Y-53202D02*
X127495Y-52869D01*
X127495Y-52702D02*
X127514Y-52726D01*
X127495Y-52750D01*
X127476Y-52726D01*
X127495Y-52702D01*
X127495Y-52750D01*
X127171Y-52940D02*
X127114Y-52964D01*
X127095Y-52988D01*
X127076Y-53036D01*
X127076Y-53107D01*
X127095Y-53155D01*
X127114Y-53179D01*
X127152Y-53202D01*
X127305Y-53202D01*
X127305Y-52702D01*
X127171Y-52702D01*
X127133Y-52726D01*
X127114Y-52750D01*
X127095Y-52798D01*
X127095Y-52845D01*
X127114Y-52893D01*
X127133Y-52917D01*
X127171Y-52940D01*
X127305Y-52940D01*
X126371Y-53202D02*
X126505Y-52964D01*
X126600Y-53202D02*
X126600Y-52702D01*
X126447Y-52702D01*
X126409Y-52726D01*
X126390Y-52750D01*
X126371Y-52798D01*
X126371Y-52869D01*
X126390Y-52917D01*
X126409Y-52940D01*
X126447Y-52964D01*
X126600Y-52964D01*
X126124Y-52702D02*
X126047Y-52702D01*
X126009Y-52726D01*
X125971Y-52774D01*
X125952Y-52869D01*
X125952Y-53036D01*
X125971Y-53131D01*
X126009Y-53179D01*
X126047Y-53202D01*
X126124Y-53202D01*
X126162Y-53179D01*
X126200Y-53131D01*
X126219Y-53036D01*
X126219Y-52869D01*
X126200Y-52774D01*
X126162Y-52726D01*
X126124Y-52702D01*
X125781Y-53202D02*
X125781Y-52702D01*
X125647Y-53060D01*
X125514Y-52702D01*
X125514Y-53202D01*
X125305Y-53179D02*
X125305Y-53202D01*
X125324Y-53250D01*
X125343Y-53274D01*
X124848Y-53179D02*
X124810Y-53202D01*
X124734Y-53202D01*
X124695Y-53179D01*
X124676Y-53131D01*
X124676Y-53107D01*
X124695Y-53060D01*
X124734Y-53036D01*
X124791Y-53036D01*
X124829Y-53012D01*
X124848Y-52964D01*
X124848Y-52940D01*
X124829Y-52893D01*
X124791Y-52869D01*
X124734Y-52869D01*
X124695Y-52893D01*
X124562Y-52869D02*
X124410Y-52869D01*
X124505Y-52702D02*
X124505Y-53131D01*
X124486Y-53179D01*
X124448Y-53202D01*
X124410Y-53202D01*
X124104Y-53202D02*
X124104Y-52940D01*
X124123Y-52893D01*
X124161Y-52869D01*
X124238Y-52869D01*
X124276Y-52893D01*
X124104Y-53179D02*
X124142Y-53202D01*
X124238Y-53202D01*
X124276Y-53179D01*
X124295Y-53131D01*
X124295Y-53083D01*
X124276Y-53036D01*
X124238Y-53012D01*
X124142Y-53012D01*
X124104Y-52988D01*
X123914Y-53202D02*
X123914Y-52869D01*
X123914Y-52964D02*
X123895Y-52917D01*
X123876Y-52893D01*
X123838Y-52869D01*
X123799Y-52869D01*
X123723Y-52869D02*
X123571Y-52869D01*
X123666Y-52702D02*
X123666Y-53131D01*
X123647Y-53179D01*
X123609Y-53202D01*
X123571Y-53202D01*
X123437Y-53202D02*
X123437Y-52869D01*
X123437Y-52702D02*
X123456Y-52726D01*
X123437Y-52750D01*
X123418Y-52726D01*
X123437Y-52702D01*
X123437Y-52750D01*
X123247Y-52869D02*
X123247Y-53202D01*
X123247Y-52917D02*
X123228Y-52893D01*
X123190Y-52869D01*
X123132Y-52869D01*
X123094Y-52893D01*
X123075Y-52940D01*
X123075Y-53202D01*
X122713Y-52869D02*
X122713Y-53274D01*
X122732Y-53321D01*
X122751Y-53345D01*
X122790Y-53369D01*
X122847Y-53369D01*
X122885Y-53345D01*
X122713Y-53179D02*
X122751Y-53202D01*
X122828Y-53202D01*
X122866Y-53179D01*
X122885Y-53155D01*
X122904Y-53107D01*
X122904Y-52964D01*
X122885Y-52917D01*
X122866Y-52893D01*
X122828Y-52869D01*
X122751Y-52869D01*
X122713Y-52893D01*
X122275Y-52869D02*
X122123Y-52869D01*
X122218Y-53202D02*
X122218Y-52774D01*
X122199Y-52726D01*
X122161Y-52702D01*
X122123Y-52702D01*
X121989Y-53202D02*
X121989Y-52869D01*
X121989Y-52964D02*
X121970Y-52917D01*
X121951Y-52893D01*
X121913Y-52869D01*
X121874Y-52869D01*
X121684Y-53202D02*
X121722Y-53179D01*
X121741Y-53155D01*
X121760Y-53107D01*
X121760Y-52964D01*
X121741Y-52917D01*
X121722Y-52893D01*
X121684Y-52869D01*
X121626Y-52869D01*
X121588Y-52893D01*
X121569Y-52917D01*
X121550Y-52964D01*
X121550Y-53107D01*
X121569Y-53155D01*
X121588Y-53179D01*
X121626Y-53202D01*
X121684Y-53202D01*
X121379Y-53202D02*
X121379Y-52869D01*
X121379Y-52917D02*
X121360Y-52893D01*
X121322Y-52869D01*
X121264Y-52869D01*
X121226Y-52893D01*
X121207Y-52940D01*
X121207Y-53202D01*
X121207Y-52940D02*
X121188Y-52893D01*
X121150Y-52869D01*
X121093Y-52869D01*
X121055Y-52893D01*
X121036Y-52940D01*
X121036Y-53202D01*
X120465Y-52702D02*
X120426Y-52702D01*
X120388Y-52726D01*
X120369Y-52750D01*
X120350Y-52798D01*
X120331Y-52893D01*
X120331Y-53012D01*
X120350Y-53107D01*
X120369Y-53155D01*
X120388Y-53179D01*
X120426Y-53202D01*
X120465Y-53202D01*
X120503Y-53179D01*
X120522Y-53155D01*
X120541Y-53107D01*
X120560Y-53012D01*
X120560Y-52893D01*
X120541Y-52798D01*
X120522Y-52750D01*
X120503Y-52726D01*
X120465Y-52702D01*
X120026Y-52940D02*
X120160Y-52940D01*
X120160Y-53202D02*
X120160Y-52702D01*
X119969Y-52702D01*
X119741Y-52702D02*
X119702Y-52702D01*
X119664Y-52726D01*
X119645Y-52750D01*
X119626Y-52798D01*
X119607Y-52893D01*
X119607Y-53012D01*
X119626Y-53107D01*
X119645Y-53155D01*
X119664Y-53179D01*
X119702Y-53202D01*
X119741Y-53202D01*
X119779Y-53179D01*
X119798Y-53155D01*
X119817Y-53107D01*
X119836Y-53012D01*
X119836Y-52893D01*
X119817Y-52798D01*
X119798Y-52750D01*
X119779Y-52726D01*
X119741Y-52702D01*
X119360Y-52702D02*
X119321Y-52702D01*
X119283Y-52726D01*
X119264Y-52750D01*
X119245Y-52798D01*
X119226Y-52893D01*
X119226Y-53012D01*
X119245Y-53107D01*
X119264Y-53155D01*
X119283Y-53179D01*
X119321Y-53202D01*
X119360Y-53202D01*
X119398Y-53179D01*
X119417Y-53155D01*
X119436Y-53107D01*
X119455Y-53012D01*
X119455Y-52893D01*
X119436Y-52798D01*
X119417Y-52750D01*
X119398Y-52726D01*
X119360Y-52702D01*
X118979Y-52702D02*
X118940Y-52702D01*
X118902Y-52726D01*
X118883Y-52750D01*
X118864Y-52798D01*
X118845Y-52893D01*
X118845Y-53012D01*
X118864Y-53107D01*
X118883Y-53155D01*
X118902Y-53179D01*
X118940Y-53202D01*
X118979Y-53202D01*
X119017Y-53179D01*
X119036Y-53155D01*
X119055Y-53107D01*
X119074Y-53012D01*
X119074Y-52893D01*
X119055Y-52798D01*
X119036Y-52750D01*
X119017Y-52726D01*
X118979Y-52702D01*
X118598Y-52702D02*
X118559Y-52702D01*
X118521Y-52726D01*
X118502Y-52750D01*
X118483Y-52798D01*
X118464Y-52893D01*
X118464Y-53012D01*
X118483Y-53107D01*
X118502Y-53155D01*
X118521Y-53179D01*
X118559Y-53202D01*
X118598Y-53202D01*
X118636Y-53179D01*
X118655Y-53155D01*
X118674Y-53107D01*
X118693Y-53012D01*
X118693Y-52893D01*
X118674Y-52798D01*
X118655Y-52750D01*
X118636Y-52726D01*
X118598Y-52702D01*
X118293Y-53202D02*
X118293Y-52702D01*
X118121Y-53202D02*
X118121Y-52940D01*
X118140Y-52893D01*
X118178Y-52869D01*
X118236Y-52869D01*
X118274Y-52893D01*
X118293Y-52917D01*
X130829Y-53482D02*
X130752Y-53482D01*
X130714Y-53506D01*
X130676Y-53554D01*
X130657Y-53649D01*
X130657Y-53816D01*
X130676Y-53911D01*
X130714Y-53959D01*
X130752Y-53982D01*
X130829Y-53982D01*
X130867Y-53959D01*
X130905Y-53911D01*
X130924Y-53816D01*
X130924Y-53649D01*
X130905Y-53554D01*
X130867Y-53506D01*
X130829Y-53482D01*
X130352Y-53720D02*
X130486Y-53720D01*
X130486Y-53982D02*
X130486Y-53482D01*
X130295Y-53482D01*
X130009Y-53720D02*
X130143Y-53720D01*
X130143Y-53982D02*
X130143Y-53482D01*
X129952Y-53482D01*
X129495Y-53720D02*
X129190Y-53720D01*
X129190Y-53863D02*
X129495Y-53863D01*
X128485Y-53982D02*
X128714Y-53982D01*
X128600Y-53982D02*
X128600Y-53482D01*
X128638Y-53554D01*
X128676Y-53601D01*
X128714Y-53625D01*
X128333Y-53530D02*
X128314Y-53506D01*
X128276Y-53482D01*
X128180Y-53482D01*
X128142Y-53506D01*
X128123Y-53530D01*
X128104Y-53578D01*
X128104Y-53625D01*
X128123Y-53697D01*
X128352Y-53982D01*
X128104Y-53982D01*
X127876Y-53697D02*
X127914Y-53673D01*
X127933Y-53649D01*
X127952Y-53601D01*
X127952Y-53578D01*
X127933Y-53530D01*
X127914Y-53506D01*
X127876Y-53482D01*
X127799Y-53482D01*
X127761Y-53506D01*
X127742Y-53530D01*
X127723Y-53578D01*
X127723Y-53601D01*
X127742Y-53649D01*
X127761Y-53673D01*
X127799Y-53697D01*
X127876Y-53697D01*
X127914Y-53720D01*
X127933Y-53744D01*
X127952Y-53792D01*
X127952Y-53887D01*
X127933Y-53935D01*
X127914Y-53959D01*
X127876Y-53982D01*
X127799Y-53982D01*
X127761Y-53959D01*
X127742Y-53935D01*
X127723Y-53887D01*
X127723Y-53792D01*
X127742Y-53744D01*
X127761Y-53720D01*
X127799Y-53697D01*
X127247Y-53982D02*
X127247Y-53482D01*
X127018Y-53982D02*
X127190Y-53697D01*
X127018Y-53482D02*
X127247Y-53768D01*
X126847Y-53982D02*
X126847Y-53649D01*
X126847Y-53482D02*
X126866Y-53506D01*
X126847Y-53530D01*
X126828Y-53506D01*
X126847Y-53482D01*
X126847Y-53530D01*
X126523Y-53720D02*
X126466Y-53744D01*
X126447Y-53768D01*
X126428Y-53816D01*
X126428Y-53887D01*
X126447Y-53935D01*
X126466Y-53959D01*
X126504Y-53982D01*
X126657Y-53982D01*
X126657Y-53482D01*
X126523Y-53482D01*
X126485Y-53506D01*
X126466Y-53530D01*
X126447Y-53578D01*
X126447Y-53625D01*
X126466Y-53673D01*
X126485Y-53697D01*
X126523Y-53720D01*
X126657Y-53720D01*
X125723Y-53982D02*
X125857Y-53744D01*
X125952Y-53982D02*
X125952Y-53482D01*
X125799Y-53482D01*
X125761Y-53506D01*
X125742Y-53530D01*
X125723Y-53578D01*
X125723Y-53649D01*
X125742Y-53697D01*
X125761Y-53720D01*
X125799Y-53744D01*
X125952Y-53744D01*
X125476Y-53482D02*
X125399Y-53482D01*
X125361Y-53506D01*
X125323Y-53554D01*
X125304Y-53649D01*
X125304Y-53816D01*
X125323Y-53911D01*
X125361Y-53959D01*
X125399Y-53982D01*
X125476Y-53982D01*
X125514Y-53959D01*
X125552Y-53911D01*
X125571Y-53816D01*
X125571Y-53649D01*
X125552Y-53554D01*
X125514Y-53506D01*
X125476Y-53482D01*
X125133Y-53982D02*
X125133Y-53482D01*
X124999Y-53840D01*
X124866Y-53482D01*
X124866Y-53982D01*
X124657Y-53959D02*
X124657Y-53982D01*
X124676Y-54030D01*
X124695Y-54054D01*
X124200Y-53959D02*
X124162Y-53982D01*
X124086Y-53982D01*
X124047Y-53959D01*
X124028Y-53911D01*
X124028Y-53887D01*
X124047Y-53840D01*
X124086Y-53816D01*
X124143Y-53816D01*
X124181Y-53792D01*
X124200Y-53744D01*
X124200Y-53720D01*
X124181Y-53673D01*
X124143Y-53649D01*
X124086Y-53649D01*
X124047Y-53673D01*
X123914Y-53649D02*
X123762Y-53649D01*
X123857Y-53482D02*
X123857Y-53911D01*
X123838Y-53959D01*
X123800Y-53982D01*
X123762Y-53982D01*
X123456Y-53982D02*
X123456Y-53720D01*
X123475Y-53673D01*
X123513Y-53649D01*
X123590Y-53649D01*
X123628Y-53673D01*
X123456Y-53959D02*
X123494Y-53982D01*
X123590Y-53982D01*
X123628Y-53959D01*
X123647Y-53911D01*
X123647Y-53863D01*
X123628Y-53816D01*
X123590Y-53792D01*
X123494Y-53792D01*
X123456Y-53768D01*
X123266Y-53982D02*
X123266Y-53649D01*
X123266Y-53744D02*
X123247Y-53697D01*
X123228Y-53673D01*
X123190Y-53649D01*
X123151Y-53649D01*
X123075Y-53649D02*
X122923Y-53649D01*
X123018Y-53482D02*
X123018Y-53911D01*
X122999Y-53959D01*
X122961Y-53982D01*
X122923Y-53982D01*
X122789Y-53982D02*
X122789Y-53649D01*
X122789Y-53482D02*
X122808Y-53506D01*
X122789Y-53530D01*
X122770Y-53506D01*
X122789Y-53482D01*
X122789Y-53530D01*
X122599Y-53649D02*
X122599Y-53982D01*
X122599Y-53697D02*
X122580Y-53673D01*
X122542Y-53649D01*
X122484Y-53649D01*
X122446Y-53673D01*
X122427Y-53720D01*
X122427Y-53982D01*
X122065Y-53649D02*
X122065Y-54054D01*
X122084Y-54101D01*
X122103Y-54125D01*
X122142Y-54149D01*
X122199Y-54149D01*
X122237Y-54125D01*
X122065Y-53959D02*
X122103Y-53982D01*
X122180Y-53982D01*
X122218Y-53959D01*
X122237Y-53935D01*
X122256Y-53887D01*
X122256Y-53744D01*
X122237Y-53697D01*
X122218Y-53673D01*
X122180Y-53649D01*
X122103Y-53649D01*
X122065Y-53673D01*
X121627Y-53649D02*
X121475Y-53649D01*
X121570Y-53982D02*
X121570Y-53554D01*
X121551Y-53506D01*
X121513Y-53482D01*
X121475Y-53482D01*
X121341Y-53982D02*
X121341Y-53649D01*
X121341Y-53744D02*
X121322Y-53697D01*
X121303Y-53673D01*
X121265Y-53649D01*
X121226Y-53649D01*
X121036Y-53982D02*
X121074Y-53959D01*
X121093Y-53935D01*
X121112Y-53887D01*
X121112Y-53744D01*
X121093Y-53697D01*
X121074Y-53673D01*
X121036Y-53649D01*
X120978Y-53649D01*
X120940Y-53673D01*
X120921Y-53697D01*
X120902Y-53744D01*
X120902Y-53887D01*
X120921Y-53935D01*
X120940Y-53959D01*
X120978Y-53982D01*
X121036Y-53982D01*
X120731Y-53982D02*
X120731Y-53649D01*
X120731Y-53697D02*
X120712Y-53673D01*
X120674Y-53649D01*
X120616Y-53649D01*
X120578Y-53673D01*
X120559Y-53720D01*
X120559Y-53982D01*
X120559Y-53720D02*
X120540Y-53673D01*
X120502Y-53649D01*
X120445Y-53649D01*
X120407Y-53673D01*
X120388Y-53720D01*
X120388Y-53982D01*
X119817Y-53482D02*
X119778Y-53482D01*
X119740Y-53506D01*
X119721Y-53530D01*
X119702Y-53578D01*
X119683Y-53673D01*
X119683Y-53792D01*
X119702Y-53887D01*
X119721Y-53935D01*
X119740Y-53959D01*
X119778Y-53982D01*
X119817Y-53982D01*
X119855Y-53959D01*
X119874Y-53935D01*
X119893Y-53887D01*
X119912Y-53792D01*
X119912Y-53673D01*
X119893Y-53578D01*
X119874Y-53530D01*
X119855Y-53506D01*
X119817Y-53482D01*
X119512Y-53720D02*
X119378Y-53720D01*
X119321Y-53982D02*
X119512Y-53982D01*
X119512Y-53482D01*
X119321Y-53482D01*
X119074Y-53482D02*
X119035Y-53482D01*
X118997Y-53506D01*
X118978Y-53530D01*
X118959Y-53578D01*
X118940Y-53673D01*
X118940Y-53792D01*
X118959Y-53887D01*
X118978Y-53935D01*
X118997Y-53959D01*
X119035Y-53982D01*
X119074Y-53982D01*
X119112Y-53959D01*
X119131Y-53935D01*
X119150Y-53887D01*
X119169Y-53792D01*
X119169Y-53673D01*
X119150Y-53578D01*
X119131Y-53530D01*
X119112Y-53506D01*
X119074Y-53482D01*
X118693Y-53482D02*
X118654Y-53482D01*
X118616Y-53506D01*
X118597Y-53530D01*
X118578Y-53578D01*
X118559Y-53673D01*
X118559Y-53792D01*
X118578Y-53887D01*
X118597Y-53935D01*
X118616Y-53959D01*
X118654Y-53982D01*
X118693Y-53982D01*
X118731Y-53959D01*
X118750Y-53935D01*
X118769Y-53887D01*
X118788Y-53792D01*
X118788Y-53673D01*
X118769Y-53578D01*
X118750Y-53530D01*
X118731Y-53506D01*
X118693Y-53482D01*
X118312Y-53482D02*
X118273Y-53482D01*
X118235Y-53506D01*
X118216Y-53530D01*
X118197Y-53578D01*
X118178Y-53673D01*
X118178Y-53792D01*
X118197Y-53887D01*
X118216Y-53935D01*
X118235Y-53959D01*
X118273Y-53982D01*
X118312Y-53982D01*
X118350Y-53959D01*
X118369Y-53935D01*
X118388Y-53887D01*
X118407Y-53792D01*
X118407Y-53673D01*
X118388Y-53578D01*
X118369Y-53530D01*
X118350Y-53506D01*
X118312Y-53482D01*
X117931Y-53482D02*
X117892Y-53482D01*
X117854Y-53506D01*
X117835Y-53530D01*
X117816Y-53578D01*
X117797Y-53673D01*
X117797Y-53792D01*
X117816Y-53887D01*
X117835Y-53935D01*
X117854Y-53959D01*
X117892Y-53982D01*
X117931Y-53982D01*
X117969Y-53959D01*
X117988Y-53935D01*
X118007Y-53887D01*
X118026Y-53792D01*
X118026Y-53673D01*
X118007Y-53578D01*
X117988Y-53530D01*
X117969Y-53506D01*
X117931Y-53482D01*
X117626Y-53982D02*
X117626Y-53482D01*
X117454Y-53982D02*
X117454Y-53720D01*
X117473Y-53673D01*
X117511Y-53649D01*
X117569Y-53649D01*
X117607Y-53673D01*
X117626Y-53697D01*
X130829Y-54262D02*
X130752Y-54262D01*
X130714Y-54286D01*
X130676Y-54334D01*
X130657Y-54429D01*
X130657Y-54596D01*
X130676Y-54691D01*
X130714Y-54739D01*
X130752Y-54762D01*
X130829Y-54762D01*
X130867Y-54739D01*
X130905Y-54691D01*
X130924Y-54596D01*
X130924Y-54429D01*
X130905Y-54334D01*
X130867Y-54286D01*
X130829Y-54262D01*
X130486Y-54762D02*
X130486Y-54262D01*
X130257Y-54762D01*
X130257Y-54262D01*
X129762Y-54500D02*
X129457Y-54500D01*
X129457Y-54643D02*
X129762Y-54643D01*
X128962Y-54762D02*
X128962Y-54262D01*
X128828Y-54620D01*
X128695Y-54262D01*
X128695Y-54762D01*
X128448Y-54762D02*
X128486Y-54739D01*
X128505Y-54715D01*
X128524Y-54667D01*
X128524Y-54524D01*
X128505Y-54477D01*
X128486Y-54453D01*
X128448Y-54429D01*
X128390Y-54429D01*
X128352Y-54453D01*
X128333Y-54477D01*
X128314Y-54524D01*
X128314Y-54667D01*
X128333Y-54715D01*
X128352Y-54739D01*
X128390Y-54762D01*
X128448Y-54762D01*
X128143Y-54429D02*
X128143Y-54762D01*
X128143Y-54477D02*
X128124Y-54453D01*
X128086Y-54429D01*
X128028Y-54429D01*
X127990Y-54453D01*
X127971Y-54500D01*
X127971Y-54762D01*
X127724Y-54762D02*
X127762Y-54739D01*
X127781Y-54715D01*
X127800Y-54667D01*
X127800Y-54524D01*
X127781Y-54477D01*
X127762Y-54453D01*
X127724Y-54429D01*
X127666Y-54429D01*
X127628Y-54453D01*
X127609Y-54477D01*
X127590Y-54524D01*
X127590Y-54667D01*
X127609Y-54715D01*
X127628Y-54739D01*
X127666Y-54762D01*
X127724Y-54762D01*
X127247Y-54739D02*
X127285Y-54762D01*
X127362Y-54762D01*
X127400Y-54739D01*
X127419Y-54715D01*
X127438Y-54667D01*
X127438Y-54524D01*
X127419Y-54477D01*
X127400Y-54453D01*
X127362Y-54429D01*
X127285Y-54429D01*
X127247Y-54453D01*
X127076Y-54762D02*
X127076Y-54262D01*
X126904Y-54762D02*
X126904Y-54500D01*
X126923Y-54453D01*
X126961Y-54429D01*
X127019Y-54429D01*
X127057Y-54453D01*
X127076Y-54477D01*
X126714Y-54762D02*
X126714Y-54429D01*
X126714Y-54524D02*
X126695Y-54477D01*
X126676Y-54453D01*
X126638Y-54429D01*
X126599Y-54429D01*
X126409Y-54762D02*
X126447Y-54739D01*
X126466Y-54715D01*
X126485Y-54667D01*
X126485Y-54524D01*
X126466Y-54477D01*
X126447Y-54453D01*
X126409Y-54429D01*
X126351Y-54429D01*
X126313Y-54453D01*
X126294Y-54477D01*
X126275Y-54524D01*
X126275Y-54667D01*
X126294Y-54715D01*
X126313Y-54739D01*
X126351Y-54762D01*
X126409Y-54762D01*
X126104Y-54762D02*
X126104Y-54429D01*
X126104Y-54477D02*
X126085Y-54453D01*
X126047Y-54429D01*
X125989Y-54429D01*
X125951Y-54453D01*
X125932Y-54500D01*
X125932Y-54762D01*
X125932Y-54500D02*
X125913Y-54453D01*
X125875Y-54429D01*
X125818Y-54429D01*
X125780Y-54453D01*
X125761Y-54500D01*
X125761Y-54762D01*
X125418Y-54739D02*
X125456Y-54762D01*
X125533Y-54762D01*
X125571Y-54739D01*
X125590Y-54691D01*
X125590Y-54500D01*
X125571Y-54453D01*
X125533Y-54429D01*
X125456Y-54429D01*
X125418Y-54453D01*
X125399Y-54500D01*
X125399Y-54548D01*
X125590Y-54596D01*
X124751Y-54762D02*
X124751Y-54262D01*
X124751Y-54739D02*
X124789Y-54762D01*
X124866Y-54762D01*
X124904Y-54739D01*
X124923Y-54715D01*
X124942Y-54667D01*
X124942Y-54524D01*
X124923Y-54477D01*
X124904Y-54453D01*
X124866Y-54429D01*
X124789Y-54429D01*
X124751Y-54453D01*
X124561Y-54762D02*
X124561Y-54429D01*
X124561Y-54262D02*
X124580Y-54286D01*
X124561Y-54310D01*
X124542Y-54286D01*
X124561Y-54262D01*
X124561Y-54310D01*
X124390Y-54739D02*
X124352Y-54762D01*
X124276Y-54762D01*
X124237Y-54739D01*
X124218Y-54691D01*
X124218Y-54667D01*
X124237Y-54620D01*
X124276Y-54596D01*
X124333Y-54596D01*
X124371Y-54572D01*
X124390Y-54524D01*
X124390Y-54500D01*
X124371Y-54453D01*
X124333Y-54429D01*
X124276Y-54429D01*
X124237Y-54453D01*
X124047Y-54429D02*
X124047Y-54929D01*
X124047Y-54453D02*
X124009Y-54429D01*
X123932Y-54429D01*
X123894Y-54453D01*
X123875Y-54477D01*
X123856Y-54524D01*
X123856Y-54667D01*
X123875Y-54715D01*
X123894Y-54739D01*
X123932Y-54762D01*
X124009Y-54762D01*
X124047Y-54739D01*
X123628Y-54762D02*
X123666Y-54739D01*
X123685Y-54691D01*
X123685Y-54262D01*
X123303Y-54762D02*
X123303Y-54500D01*
X123322Y-54453D01*
X123360Y-54429D01*
X123437Y-54429D01*
X123475Y-54453D01*
X123303Y-54739D02*
X123341Y-54762D01*
X123437Y-54762D01*
X123475Y-54739D01*
X123494Y-54691D01*
X123494Y-54643D01*
X123475Y-54596D01*
X123437Y-54572D01*
X123341Y-54572D01*
X123303Y-54548D01*
X123151Y-54429D02*
X123056Y-54762D01*
X122960Y-54429D02*
X123056Y-54762D01*
X123094Y-54881D01*
X123113Y-54905D01*
X123151Y-54929D01*
X122388Y-54953D02*
X122408Y-54929D01*
X122446Y-54858D01*
X122465Y-54810D01*
X122484Y-54739D01*
X122503Y-54620D01*
X122503Y-54524D01*
X122484Y-54405D01*
X122465Y-54334D01*
X122446Y-54286D01*
X122408Y-54215D01*
X122388Y-54191D01*
X122236Y-54762D02*
X122236Y-54262D01*
X122102Y-54620D01*
X121969Y-54262D01*
X121969Y-54762D01*
X121779Y-54762D02*
X121779Y-54262D01*
X121684Y-54262D01*
X121626Y-54286D01*
X121588Y-54334D01*
X121569Y-54381D01*
X121550Y-54477D01*
X121550Y-54548D01*
X121569Y-54643D01*
X121588Y-54691D01*
X121626Y-54739D01*
X121684Y-54762D01*
X121779Y-54762D01*
X121398Y-54620D02*
X121207Y-54620D01*
X121436Y-54762D02*
X121303Y-54262D01*
X121169Y-54762D01*
X121074Y-54953D02*
X121055Y-54929D01*
X121017Y-54858D01*
X120998Y-54810D01*
X120979Y-54739D01*
X120960Y-54620D01*
X120960Y-54524D01*
X120979Y-54405D01*
X120998Y-54334D01*
X121017Y-54286D01*
X121055Y-54215D01*
X121074Y-54191D01*
X130829Y-55042D02*
X130752Y-55042D01*
X130714Y-55066D01*
X130676Y-55114D01*
X130657Y-55209D01*
X130657Y-55376D01*
X130676Y-55471D01*
X130714Y-55519D01*
X130752Y-55542D01*
X130829Y-55542D01*
X130867Y-55519D01*
X130905Y-55471D01*
X130924Y-55376D01*
X130924Y-55209D01*
X130905Y-55114D01*
X130867Y-55066D01*
X130829Y-55042D01*
X130352Y-55280D02*
X130486Y-55280D01*
X130486Y-55542D02*
X130486Y-55042D01*
X130295Y-55042D01*
X130009Y-55280D02*
X130143Y-55280D01*
X130143Y-55542D02*
X130143Y-55042D01*
X129952Y-55042D01*
X129495Y-55280D02*
X129190Y-55280D01*
X129190Y-55423D02*
X129495Y-55423D01*
X128466Y-55495D02*
X128485Y-55519D01*
X128542Y-55542D01*
X128580Y-55542D01*
X128638Y-55519D01*
X128676Y-55471D01*
X128695Y-55423D01*
X128714Y-55328D01*
X128714Y-55257D01*
X128695Y-55161D01*
X128676Y-55114D01*
X128638Y-55066D01*
X128580Y-55042D01*
X128542Y-55042D01*
X128485Y-55066D01*
X128466Y-55090D01*
X128238Y-55542D02*
X128276Y-55519D01*
X128295Y-55495D01*
X128314Y-55447D01*
X128314Y-55304D01*
X128295Y-55257D01*
X128276Y-55233D01*
X128238Y-55209D01*
X128180Y-55209D01*
X128142Y-55233D01*
X128123Y-55257D01*
X128104Y-55304D01*
X128104Y-55447D01*
X128123Y-55495D01*
X128142Y-55519D01*
X128180Y-55542D01*
X128238Y-55542D01*
X127876Y-55542D02*
X127914Y-55519D01*
X127933Y-55471D01*
X127933Y-55042D01*
X127666Y-55542D02*
X127704Y-55519D01*
X127723Y-55495D01*
X127742Y-55447D01*
X127742Y-55304D01*
X127723Y-55257D01*
X127704Y-55233D01*
X127666Y-55209D01*
X127608Y-55209D01*
X127570Y-55233D01*
X127551Y-55257D01*
X127532Y-55304D01*
X127532Y-55447D01*
X127551Y-55495D01*
X127570Y-55519D01*
X127608Y-55542D01*
X127666Y-55542D01*
X127361Y-55542D02*
X127361Y-55209D01*
X127361Y-55304D02*
X127342Y-55257D01*
X127323Y-55233D01*
X127285Y-55209D01*
X127246Y-55209D01*
X126636Y-55542D02*
X126636Y-55042D01*
X126636Y-55519D02*
X126674Y-55542D01*
X126751Y-55542D01*
X126789Y-55519D01*
X126808Y-55495D01*
X126827Y-55447D01*
X126827Y-55304D01*
X126808Y-55257D01*
X126789Y-55233D01*
X126751Y-55209D01*
X126674Y-55209D01*
X126636Y-55233D01*
X126446Y-55542D02*
X126446Y-55209D01*
X126446Y-55042D02*
X126465Y-55066D01*
X126446Y-55090D01*
X126427Y-55066D01*
X126446Y-55042D01*
X126446Y-55090D01*
X126275Y-55519D02*
X126237Y-55542D01*
X126161Y-55542D01*
X126122Y-55519D01*
X126103Y-55471D01*
X126103Y-55447D01*
X126122Y-55400D01*
X126161Y-55376D01*
X126218Y-55376D01*
X126256Y-55352D01*
X126275Y-55304D01*
X126275Y-55280D01*
X126256Y-55233D01*
X126218Y-55209D01*
X126161Y-55209D01*
X126122Y-55233D01*
X125932Y-55209D02*
X125932Y-55709D01*
X125932Y-55233D02*
X125894Y-55209D01*
X125817Y-55209D01*
X125779Y-55233D01*
X125760Y-55257D01*
X125741Y-55304D01*
X125741Y-55447D01*
X125760Y-55495D01*
X125779Y-55519D01*
X125817Y-55542D01*
X125894Y-55542D01*
X125932Y-55519D01*
X125513Y-55542D02*
X125551Y-55519D01*
X125570Y-55471D01*
X125570Y-55042D01*
X125188Y-55542D02*
X125188Y-55280D01*
X125207Y-55233D01*
X125245Y-55209D01*
X125322Y-55209D01*
X125360Y-55233D01*
X125188Y-55519D02*
X125226Y-55542D01*
X125322Y-55542D01*
X125360Y-55519D01*
X125379Y-55471D01*
X125379Y-55423D01*
X125360Y-55376D01*
X125322Y-55352D01*
X125226Y-55352D01*
X125188Y-55328D01*
X125036Y-55209D02*
X124941Y-55542D01*
X124845Y-55209D02*
X124941Y-55542D01*
X124979Y-55661D01*
X124998Y-55685D01*
X125036Y-55709D01*
X124273Y-55733D02*
X124293Y-55709D01*
X124331Y-55638D01*
X124350Y-55590D01*
X124369Y-55519D01*
X124388Y-55400D01*
X124388Y-55304D01*
X124369Y-55185D01*
X124350Y-55114D01*
X124331Y-55066D01*
X124293Y-54995D01*
X124273Y-54971D01*
X123892Y-55495D02*
X123911Y-55519D01*
X123968Y-55542D01*
X124006Y-55542D01*
X124064Y-55519D01*
X124102Y-55471D01*
X124121Y-55423D01*
X124140Y-55328D01*
X124140Y-55257D01*
X124121Y-55161D01*
X124102Y-55114D01*
X124064Y-55066D01*
X124006Y-55042D01*
X123968Y-55042D01*
X123911Y-55066D01*
X123892Y-55090D01*
X123511Y-55066D02*
X123549Y-55042D01*
X123606Y-55042D01*
X123664Y-55066D01*
X123702Y-55114D01*
X123721Y-55161D01*
X123740Y-55257D01*
X123740Y-55328D01*
X123721Y-55423D01*
X123702Y-55471D01*
X123664Y-55519D01*
X123606Y-55542D01*
X123568Y-55542D01*
X123511Y-55519D01*
X123492Y-55495D01*
X123492Y-55328D01*
X123568Y-55328D01*
X123340Y-55400D02*
X123149Y-55400D01*
X123378Y-55542D02*
X123245Y-55042D01*
X123111Y-55542D01*
X123016Y-55733D02*
X122997Y-55709D01*
X122959Y-55638D01*
X122940Y-55590D01*
X122921Y-55519D01*
X122902Y-55400D01*
X122902Y-55304D01*
X122921Y-55185D01*
X122940Y-55114D01*
X122959Y-55066D01*
X122997Y-54995D01*
X123016Y-54971D01*
X130924Y-56299D02*
X130867Y-56322D01*
X130771Y-56322D01*
X130733Y-56299D01*
X130714Y-56275D01*
X130695Y-56227D01*
X130695Y-56180D01*
X130714Y-56132D01*
X130733Y-56108D01*
X130771Y-56084D01*
X130848Y-56060D01*
X130886Y-56037D01*
X130905Y-56013D01*
X130924Y-55965D01*
X130924Y-55918D01*
X130905Y-55870D01*
X130886Y-55846D01*
X130848Y-55822D01*
X130752Y-55822D01*
X130695Y-55846D01*
X130562Y-55822D02*
X130467Y-56322D01*
X130390Y-55965D01*
X130314Y-56322D01*
X130219Y-55822D01*
X130086Y-55870D02*
X130067Y-55846D01*
X130029Y-55822D01*
X129933Y-55822D01*
X129895Y-55846D01*
X129876Y-55870D01*
X129857Y-55918D01*
X129857Y-55965D01*
X129876Y-56037D01*
X130105Y-56322D01*
X129857Y-56322D01*
X129686Y-56275D02*
X129667Y-56299D01*
X129686Y-56322D01*
X129705Y-56299D01*
X129686Y-56275D01*
X129686Y-56322D01*
X129534Y-55822D02*
X129267Y-55822D01*
X129439Y-56322D01*
X128810Y-56322D02*
X128810Y-55989D01*
X128810Y-56037D02*
X128791Y-56013D01*
X128753Y-55989D01*
X128695Y-55989D01*
X128657Y-56013D01*
X128638Y-56060D01*
X128638Y-56322D01*
X128638Y-56060D02*
X128619Y-56013D01*
X128581Y-55989D01*
X128524Y-55989D01*
X128486Y-56013D01*
X128467Y-56060D01*
X128467Y-56322D01*
X128105Y-55989D02*
X128105Y-56322D01*
X128277Y-55989D02*
X128277Y-56251D01*
X128258Y-56299D01*
X128220Y-56322D01*
X128162Y-56322D01*
X128124Y-56299D01*
X128105Y-56275D01*
X127934Y-56299D02*
X127896Y-56322D01*
X127820Y-56322D01*
X127781Y-56299D01*
X127762Y-56251D01*
X127762Y-56227D01*
X127781Y-56180D01*
X127820Y-56156D01*
X127877Y-56156D01*
X127915Y-56132D01*
X127934Y-56084D01*
X127934Y-56060D01*
X127915Y-56013D01*
X127877Y-55989D01*
X127820Y-55989D01*
X127781Y-56013D01*
X127648Y-55989D02*
X127496Y-55989D01*
X127591Y-55822D02*
X127591Y-56251D01*
X127572Y-56299D01*
X127534Y-56322D01*
X127496Y-56322D01*
X127057Y-56322D02*
X127057Y-55822D01*
X127057Y-56013D02*
X127019Y-55989D01*
X126942Y-55989D01*
X126904Y-56013D01*
X126885Y-56037D01*
X126866Y-56084D01*
X126866Y-56227D01*
X126885Y-56275D01*
X126904Y-56299D01*
X126942Y-56322D01*
X127019Y-56322D01*
X127057Y-56299D01*
X126542Y-56299D02*
X126580Y-56322D01*
X126657Y-56322D01*
X126695Y-56299D01*
X126714Y-56251D01*
X126714Y-56060D01*
X126695Y-56013D01*
X126657Y-55989D01*
X126580Y-55989D01*
X126542Y-56013D01*
X126523Y-56060D01*
X126523Y-56108D01*
X126714Y-56156D01*
X125971Y-55822D02*
X125894Y-55822D01*
X125856Y-55846D01*
X125818Y-55894D01*
X125799Y-55989D01*
X125799Y-56156D01*
X125818Y-56251D01*
X125856Y-56299D01*
X125894Y-56322D01*
X125971Y-56322D01*
X126009Y-56299D01*
X126047Y-56251D01*
X126066Y-56156D01*
X126066Y-55989D01*
X126047Y-55894D01*
X126009Y-55846D01*
X125971Y-55822D01*
X125628Y-56322D02*
X125628Y-55822D01*
X125399Y-56322D01*
X125399Y-55822D01*
X124904Y-56322D02*
X124904Y-55989D01*
X124904Y-55822D02*
X124923Y-55846D01*
X124904Y-55870D01*
X124885Y-55846D01*
X124904Y-55822D01*
X124904Y-55870D01*
X124771Y-55989D02*
X124619Y-55989D01*
X124714Y-56322D02*
X124714Y-55894D01*
X124695Y-55846D01*
X124657Y-55822D01*
X124619Y-55822D01*
X124199Y-56299D02*
X124142Y-56322D01*
X124046Y-56322D01*
X124008Y-56299D01*
X123989Y-56275D01*
X123970Y-56227D01*
X123970Y-56180D01*
X123989Y-56132D01*
X124008Y-56108D01*
X124046Y-56084D01*
X124123Y-56060D01*
X124161Y-56037D01*
X124180Y-56013D01*
X124199Y-55965D01*
X124199Y-55918D01*
X124180Y-55870D01*
X124161Y-55846D01*
X124123Y-55822D01*
X124027Y-55822D01*
X123970Y-55846D01*
X123837Y-55822D02*
X123742Y-56322D01*
X123665Y-55965D01*
X123589Y-56322D01*
X123494Y-55822D01*
X123361Y-55870D02*
X123342Y-55846D01*
X123304Y-55822D01*
X123208Y-55822D01*
X123170Y-55846D01*
X123151Y-55870D01*
X123132Y-55918D01*
X123132Y-55965D01*
X123151Y-56037D01*
X123380Y-56322D01*
X123132Y-56322D01*
X122961Y-56275D02*
X122942Y-56299D01*
X122961Y-56322D01*
X122980Y-56299D01*
X122961Y-56275D01*
X122961Y-56322D01*
X122580Y-55822D02*
X122771Y-55822D01*
X122790Y-56060D01*
X122771Y-56037D01*
X122733Y-56013D01*
X122637Y-56013D01*
X122599Y-56037D01*
X122580Y-56060D01*
X122561Y-56108D01*
X122561Y-56227D01*
X122580Y-56275D01*
X122599Y-56299D01*
X122637Y-56322D01*
X122733Y-56322D01*
X122771Y-56299D01*
X122790Y-56275D01*
X122028Y-56322D02*
X122066Y-56299D01*
X122085Y-56275D01*
X122104Y-56227D01*
X122104Y-56084D01*
X122085Y-56037D01*
X122066Y-56013D01*
X122028Y-55989D01*
X121970Y-55989D01*
X121932Y-56013D01*
X121913Y-56037D01*
X121894Y-56084D01*
X121894Y-56227D01*
X121913Y-56275D01*
X121932Y-56299D01*
X121970Y-56322D01*
X122028Y-56322D01*
X121723Y-56322D02*
X121723Y-55989D01*
X121723Y-56084D02*
X121704Y-56037D01*
X121685Y-56013D01*
X121647Y-55989D01*
X121608Y-55989D01*
X121189Y-56299D02*
X121132Y-56322D01*
X121036Y-56322D01*
X120998Y-56299D01*
X120979Y-56275D01*
X120960Y-56227D01*
X120960Y-56180D01*
X120979Y-56132D01*
X120998Y-56108D01*
X121036Y-56084D01*
X121113Y-56060D01*
X121151Y-56037D01*
X121170Y-56013D01*
X121189Y-55965D01*
X121189Y-55918D01*
X121170Y-55870D01*
X121151Y-55846D01*
X121113Y-55822D01*
X121017Y-55822D01*
X120960Y-55846D01*
X120827Y-55822D02*
X120732Y-56322D01*
X120655Y-55965D01*
X120579Y-56322D01*
X120484Y-55822D01*
X120351Y-55870D02*
X120332Y-55846D01*
X120294Y-55822D01*
X120198Y-55822D01*
X120160Y-55846D01*
X120141Y-55870D01*
X120122Y-55918D01*
X120122Y-55965D01*
X120141Y-56037D01*
X120370Y-56322D01*
X120122Y-56322D01*
X119951Y-56275D02*
X119932Y-56299D01*
X119951Y-56322D01*
X119970Y-56299D01*
X119951Y-56275D01*
X119951Y-56322D01*
X119589Y-55822D02*
X119666Y-55822D01*
X119704Y-55846D01*
X119723Y-55870D01*
X119761Y-55941D01*
X119780Y-56037D01*
X119780Y-56227D01*
X119761Y-56275D01*
X119742Y-56299D01*
X119704Y-56322D01*
X119627Y-56322D01*
X119589Y-56299D01*
X119570Y-56275D01*
X119551Y-56227D01*
X119551Y-56108D01*
X119570Y-56060D01*
X119589Y-56037D01*
X119627Y-56013D01*
X119704Y-56013D01*
X119742Y-56037D01*
X119761Y-56060D01*
X119780Y-56108D01*
X118903Y-56322D02*
X118903Y-56060D01*
X118922Y-56013D01*
X118960Y-55989D01*
X119037Y-55989D01*
X119075Y-56013D01*
X118903Y-56299D02*
X118941Y-56322D01*
X119037Y-56322D01*
X119075Y-56299D01*
X119094Y-56251D01*
X119094Y-56203D01*
X119075Y-56156D01*
X119037Y-56132D01*
X118941Y-56132D01*
X118903Y-56108D01*
X118713Y-56322D02*
X118713Y-55989D01*
X118713Y-56084D02*
X118694Y-56037D01*
X118675Y-56013D01*
X118637Y-55989D01*
X118598Y-55989D01*
X118312Y-56299D02*
X118350Y-56322D01*
X118427Y-56322D01*
X118465Y-56299D01*
X118484Y-56251D01*
X118484Y-56060D01*
X118465Y-56013D01*
X118427Y-55989D01*
X118350Y-55989D01*
X118312Y-56013D01*
X118293Y-56060D01*
X118293Y-56108D01*
X118484Y-56156D01*
X117741Y-55822D02*
X117664Y-55822D01*
X117626Y-55846D01*
X117588Y-55894D01*
X117569Y-55989D01*
X117569Y-56156D01*
X117588Y-56251D01*
X117626Y-56299D01*
X117664Y-56322D01*
X117741Y-56322D01*
X117779Y-56299D01*
X117817Y-56251D01*
X117836Y-56156D01*
X117836Y-55989D01*
X117817Y-55894D01*
X117779Y-55846D01*
X117741Y-55822D01*
X117398Y-56322D02*
X117398Y-55822D01*
X117169Y-56322D01*
X117169Y-55822D01*
X130924Y-57079D02*
X130867Y-57102D01*
X130771Y-57102D01*
X130733Y-57079D01*
X130714Y-57055D01*
X130695Y-57007D01*
X130695Y-56960D01*
X130714Y-56912D01*
X130733Y-56888D01*
X130771Y-56864D01*
X130848Y-56840D01*
X130886Y-56817D01*
X130905Y-56793D01*
X130924Y-56745D01*
X130924Y-56698D01*
X130905Y-56650D01*
X130886Y-56626D01*
X130848Y-56602D01*
X130752Y-56602D01*
X130695Y-56626D01*
X130562Y-56602D02*
X130467Y-57102D01*
X130390Y-56745D01*
X130314Y-57102D01*
X130219Y-56602D01*
X130086Y-56650D02*
X130067Y-56626D01*
X130029Y-56602D01*
X129933Y-56602D01*
X129895Y-56626D01*
X129876Y-56650D01*
X129857Y-56698D01*
X129857Y-56745D01*
X129876Y-56817D01*
X130105Y-57102D01*
X129857Y-57102D01*
X129686Y-57055D02*
X129667Y-57079D01*
X129686Y-57102D01*
X129705Y-57079D01*
X129686Y-57055D01*
X129686Y-57102D01*
X129286Y-57102D02*
X129515Y-57102D01*
X129401Y-57102D02*
X129401Y-56602D01*
X129439Y-56674D01*
X129477Y-56721D01*
X129515Y-56745D01*
X128810Y-57102D02*
X128810Y-56769D01*
X128810Y-56817D02*
X128791Y-56793D01*
X128753Y-56769D01*
X128695Y-56769D01*
X128657Y-56793D01*
X128638Y-56840D01*
X128638Y-57102D01*
X128638Y-56840D02*
X128619Y-56793D01*
X128581Y-56769D01*
X128524Y-56769D01*
X128486Y-56793D01*
X128467Y-56840D01*
X128467Y-57102D01*
X128105Y-56769D02*
X128105Y-57102D01*
X128277Y-56769D02*
X128277Y-57031D01*
X128258Y-57079D01*
X128220Y-57102D01*
X128162Y-57102D01*
X128124Y-57079D01*
X128105Y-57055D01*
X127934Y-57079D02*
X127896Y-57102D01*
X127820Y-57102D01*
X127781Y-57079D01*
X127762Y-57031D01*
X127762Y-57007D01*
X127781Y-56960D01*
X127820Y-56936D01*
X127877Y-56936D01*
X127915Y-56912D01*
X127934Y-56864D01*
X127934Y-56840D01*
X127915Y-56793D01*
X127877Y-56769D01*
X127820Y-56769D01*
X127781Y-56793D01*
X127648Y-56769D02*
X127496Y-56769D01*
X127591Y-56602D02*
X127591Y-57031D01*
X127572Y-57079D01*
X127534Y-57102D01*
X127496Y-57102D01*
X127057Y-57102D02*
X127057Y-56602D01*
X127057Y-56793D02*
X127019Y-56769D01*
X126942Y-56769D01*
X126904Y-56793D01*
X126885Y-56817D01*
X126866Y-56864D01*
X126866Y-57007D01*
X126885Y-57055D01*
X126904Y-57079D01*
X126942Y-57102D01*
X127019Y-57102D01*
X127057Y-57079D01*
X126542Y-57079D02*
X126580Y-57102D01*
X126657Y-57102D01*
X126695Y-57079D01*
X126714Y-57031D01*
X126714Y-56840D01*
X126695Y-56793D01*
X126657Y-56769D01*
X126580Y-56769D01*
X126542Y-56793D01*
X126523Y-56840D01*
X126523Y-56888D01*
X126714Y-56936D01*
X125971Y-56602D02*
X125894Y-56602D01*
X125856Y-56626D01*
X125818Y-56674D01*
X125799Y-56769D01*
X125799Y-56936D01*
X125818Y-57031D01*
X125856Y-57079D01*
X125894Y-57102D01*
X125971Y-57102D01*
X126009Y-57079D01*
X126047Y-57031D01*
X126066Y-56936D01*
X126066Y-56769D01*
X126047Y-56674D01*
X126009Y-56626D01*
X125971Y-56602D01*
X125494Y-56840D02*
X125628Y-56840D01*
X125628Y-57102D02*
X125628Y-56602D01*
X125437Y-56602D01*
X125151Y-56840D02*
X125285Y-56840D01*
X125285Y-57102D02*
X125285Y-56602D01*
X125094Y-56602D01*
X124675Y-56769D02*
X124599Y-57102D01*
X124522Y-56864D01*
X124446Y-57102D01*
X124370Y-56769D01*
X124218Y-57102D02*
X124218Y-56602D01*
X124046Y-57102D02*
X124046Y-56840D01*
X124065Y-56793D01*
X124103Y-56769D01*
X124161Y-56769D01*
X124199Y-56793D01*
X124218Y-56817D01*
X123703Y-57079D02*
X123741Y-57102D01*
X123818Y-57102D01*
X123856Y-57079D01*
X123875Y-57031D01*
X123875Y-56840D01*
X123856Y-56793D01*
X123818Y-56769D01*
X123741Y-56769D01*
X123703Y-56793D01*
X123684Y-56840D01*
X123684Y-56888D01*
X123875Y-56936D01*
X123513Y-56769D02*
X123513Y-57102D01*
X123513Y-56817D02*
X123494Y-56793D01*
X123456Y-56769D01*
X123398Y-56769D01*
X123360Y-56793D01*
X123341Y-56840D01*
X123341Y-57102D01*
X122674Y-56769D02*
X122674Y-57102D01*
X122846Y-56769D02*
X122846Y-57031D01*
X122827Y-57079D01*
X122789Y-57102D01*
X122731Y-57102D01*
X122693Y-57079D01*
X122674Y-57055D01*
X122503Y-57079D02*
X122465Y-57102D01*
X122389Y-57102D01*
X122350Y-57079D01*
X122331Y-57031D01*
X122331Y-57007D01*
X122350Y-56960D01*
X122389Y-56936D01*
X122446Y-56936D01*
X122484Y-56912D01*
X122503Y-56864D01*
X122503Y-56840D01*
X122484Y-56793D01*
X122446Y-56769D01*
X122389Y-56769D01*
X122350Y-56793D01*
X122160Y-57102D02*
X122160Y-56769D01*
X122160Y-56602D02*
X122179Y-56626D01*
X122160Y-56650D01*
X122141Y-56626D01*
X122160Y-56602D01*
X122160Y-56650D01*
X121970Y-56769D02*
X121970Y-57102D01*
X121970Y-56817D02*
X121951Y-56793D01*
X121913Y-56769D01*
X121855Y-56769D01*
X121817Y-56793D01*
X121798Y-56840D01*
X121798Y-57102D01*
X121436Y-56769D02*
X121436Y-57174D01*
X121455Y-57221D01*
X121474Y-57245D01*
X121513Y-57269D01*
X121570Y-57269D01*
X121608Y-57245D01*
X121436Y-57079D02*
X121474Y-57102D01*
X121551Y-57102D01*
X121589Y-57079D01*
X121608Y-57055D01*
X121627Y-57007D01*
X121627Y-56864D01*
X121608Y-56817D01*
X121589Y-56793D01*
X121551Y-56769D01*
X121474Y-56769D01*
X121436Y-56793D01*
X120941Y-56840D02*
X120807Y-56840D01*
X120750Y-57102D02*
X120941Y-57102D01*
X120941Y-56602D01*
X120750Y-56602D01*
X120369Y-56626D02*
X120407Y-56602D01*
X120464Y-56602D01*
X120522Y-56626D01*
X120560Y-56674D01*
X120579Y-56721D01*
X120598Y-56817D01*
X120598Y-56888D01*
X120579Y-56983D01*
X120560Y-57031D01*
X120522Y-57079D01*
X120464Y-57102D01*
X120426Y-57102D01*
X120369Y-57079D01*
X120350Y-57055D01*
X120350Y-56888D01*
X120426Y-56888D01*
X120198Y-56960D02*
X120007Y-56960D01*
X120236Y-57102D02*
X120103Y-56602D01*
X119969Y-57102D01*
X119550Y-56579D02*
X119893Y-57221D01*
X119474Y-56602D02*
X119341Y-57102D01*
X119207Y-56602D01*
X118864Y-56626D02*
X118902Y-56602D01*
X118959Y-56602D01*
X119017Y-56626D01*
X119055Y-56674D01*
X119074Y-56721D01*
X119093Y-56817D01*
X119093Y-56888D01*
X119074Y-56983D01*
X119055Y-57031D01*
X119017Y-57079D01*
X118959Y-57102D01*
X118921Y-57102D01*
X118864Y-57079D01*
X118845Y-57055D01*
X118845Y-56888D01*
X118921Y-56888D01*
X118693Y-56960D02*
X118502Y-56960D01*
X118731Y-57102D02*
X118598Y-56602D01*
X118464Y-57102D01*
X134424Y-53179D02*
X134367Y-53202D01*
X134271Y-53202D01*
X134233Y-53179D01*
X134214Y-53155D01*
X134195Y-53107D01*
X134195Y-53060D01*
X134214Y-53012D01*
X134233Y-52988D01*
X134271Y-52964D01*
X134348Y-52940D01*
X134386Y-52917D01*
X134405Y-52893D01*
X134424Y-52845D01*
X134424Y-52798D01*
X134405Y-52750D01*
X134386Y-52726D01*
X134348Y-52702D01*
X134252Y-52702D01*
X134195Y-52726D01*
X134062Y-52702D02*
X133967Y-53202D01*
X133890Y-52845D01*
X133814Y-53202D01*
X133719Y-52702D01*
X133586Y-52750D02*
X133567Y-52726D01*
X133529Y-52702D01*
X133433Y-52702D01*
X133395Y-52726D01*
X133376Y-52750D01*
X133357Y-52798D01*
X133357Y-52845D01*
X133376Y-52917D01*
X133605Y-53202D01*
X133357Y-53202D01*
X133186Y-53155D02*
X133167Y-53179D01*
X133186Y-53202D01*
X133205Y-53179D01*
X133186Y-53155D01*
X133186Y-53202D01*
X133034Y-52702D02*
X132767Y-52702D01*
X132939Y-53202D01*
X132005Y-53012D02*
X131700Y-53012D01*
X134424Y-54739D02*
X134367Y-54762D01*
X134271Y-54762D01*
X134233Y-54739D01*
X134214Y-54715D01*
X134195Y-54667D01*
X134195Y-54620D01*
X134214Y-54572D01*
X134233Y-54548D01*
X134271Y-54524D01*
X134348Y-54500D01*
X134386Y-54477D01*
X134405Y-54453D01*
X134424Y-54405D01*
X134424Y-54358D01*
X134405Y-54310D01*
X134386Y-54286D01*
X134348Y-54262D01*
X134252Y-54262D01*
X134195Y-54286D01*
X134062Y-54262D02*
X133967Y-54762D01*
X133890Y-54405D01*
X133814Y-54762D01*
X133719Y-54262D01*
X133586Y-54310D02*
X133567Y-54286D01*
X133529Y-54262D01*
X133433Y-54262D01*
X133395Y-54286D01*
X133376Y-54310D01*
X133357Y-54358D01*
X133357Y-54405D01*
X133376Y-54477D01*
X133605Y-54762D01*
X133357Y-54762D01*
X133186Y-54715D02*
X133167Y-54739D01*
X133186Y-54762D01*
X133205Y-54739D01*
X133186Y-54715D01*
X133186Y-54762D01*
X132939Y-54477D02*
X132977Y-54453D01*
X132996Y-54429D01*
X133015Y-54381D01*
X133015Y-54358D01*
X132996Y-54310D01*
X132977Y-54286D01*
X132939Y-54262D01*
X132862Y-54262D01*
X132824Y-54286D01*
X132805Y-54310D01*
X132786Y-54358D01*
X132786Y-54381D01*
X132805Y-54429D01*
X132824Y-54453D01*
X132862Y-54477D01*
X132939Y-54477D01*
X132977Y-54500D01*
X132996Y-54524D01*
X133015Y-54572D01*
X133015Y-54667D01*
X132996Y-54715D01*
X132977Y-54739D01*
X132939Y-54762D01*
X132862Y-54762D01*
X132824Y-54739D01*
X132805Y-54715D01*
X132786Y-54667D01*
X132786Y-54572D01*
X132805Y-54524D01*
X132824Y-54500D01*
X132862Y-54477D01*
X132005Y-54572D02*
X131700Y-54572D01*
X134405Y-56322D02*
X134405Y-55822D01*
X134176Y-56322D01*
X134176Y-55822D01*
X133929Y-56322D02*
X133967Y-56299D01*
X133986Y-56275D01*
X134005Y-56227D01*
X134005Y-56084D01*
X133986Y-56037D01*
X133967Y-56013D01*
X133929Y-55989D01*
X133871Y-55989D01*
X133833Y-56013D01*
X133814Y-56037D01*
X133795Y-56084D01*
X133795Y-56227D01*
X133814Y-56275D01*
X133833Y-56299D01*
X133871Y-56322D01*
X133929Y-56322D01*
X133681Y-55989D02*
X133529Y-55989D01*
X133624Y-55822D02*
X133624Y-56251D01*
X133605Y-56299D01*
X133567Y-56322D01*
X133529Y-56322D01*
X133242Y-56299D02*
X133280Y-56322D01*
X133357Y-56322D01*
X133395Y-56299D01*
X133414Y-56251D01*
X133414Y-56060D01*
X133395Y-56013D01*
X133357Y-55989D01*
X133280Y-55989D01*
X133242Y-56013D01*
X133223Y-56060D01*
X133223Y-56108D01*
X133414Y-56156D01*
X133071Y-56299D02*
X133033Y-56322D01*
X132957Y-56322D01*
X132918Y-56299D01*
X132899Y-56251D01*
X132899Y-56227D01*
X132918Y-56180D01*
X132957Y-56156D01*
X133014Y-56156D01*
X133052Y-56132D01*
X133071Y-56084D01*
X133071Y-56060D01*
X133052Y-56013D01*
X133014Y-55989D01*
X132957Y-55989D01*
X132918Y-56013D01*
X132728Y-56275D02*
X132709Y-56299D01*
X132728Y-56322D01*
X132747Y-56299D01*
X132728Y-56275D01*
X132728Y-56322D01*
X132728Y-56013D02*
X132709Y-56037D01*
X132728Y-56060D01*
X132747Y-56037D01*
X132728Y-56013D01*
X132728Y-56060D01*
X134424Y-45179D02*
X134367Y-45202D01*
X134271Y-45202D01*
X134233Y-45179D01*
X134214Y-45155D01*
X134195Y-45107D01*
X134195Y-45060D01*
X134214Y-45012D01*
X134233Y-44988D01*
X134271Y-44964D01*
X134348Y-44940D01*
X134386Y-44917D01*
X134405Y-44893D01*
X134424Y-44845D01*
X134424Y-44798D01*
X134405Y-44750D01*
X134386Y-44726D01*
X134348Y-44702D01*
X134252Y-44702D01*
X134195Y-44726D01*
X134062Y-44702D02*
X133967Y-45202D01*
X133890Y-44845D01*
X133814Y-45202D01*
X133719Y-44702D01*
X133586Y-44750D02*
X133567Y-44726D01*
X133529Y-44702D01*
X133433Y-44702D01*
X133395Y-44726D01*
X133376Y-44750D01*
X133357Y-44798D01*
X133357Y-44845D01*
X133376Y-44917D01*
X133605Y-45202D01*
X133357Y-45202D01*
X133186Y-45155D02*
X133167Y-45179D01*
X133186Y-45202D01*
X133205Y-45179D01*
X133186Y-45155D01*
X133186Y-45202D01*
X132786Y-45202D02*
X133015Y-45202D01*
X132901Y-45202D02*
X132901Y-44702D01*
X132939Y-44774D01*
X132977Y-44821D01*
X133015Y-44845D01*
X132005Y-45012D02*
X131700Y-45012D01*
X134424Y-45959D02*
X134367Y-45982D01*
X134271Y-45982D01*
X134233Y-45959D01*
X134214Y-45935D01*
X134195Y-45887D01*
X134195Y-45840D01*
X134214Y-45792D01*
X134233Y-45768D01*
X134271Y-45744D01*
X134348Y-45720D01*
X134386Y-45697D01*
X134405Y-45673D01*
X134424Y-45625D01*
X134424Y-45578D01*
X134405Y-45530D01*
X134386Y-45506D01*
X134348Y-45482D01*
X134252Y-45482D01*
X134195Y-45506D01*
X134062Y-45482D02*
X133967Y-45982D01*
X133890Y-45625D01*
X133814Y-45982D01*
X133719Y-45482D01*
X133586Y-45530D02*
X133567Y-45506D01*
X133529Y-45482D01*
X133433Y-45482D01*
X133395Y-45506D01*
X133376Y-45530D01*
X133357Y-45578D01*
X133357Y-45625D01*
X133376Y-45697D01*
X133605Y-45982D01*
X133357Y-45982D01*
X133186Y-45935D02*
X133167Y-45959D01*
X133186Y-45982D01*
X133205Y-45959D01*
X133186Y-45935D01*
X133186Y-45982D01*
X133015Y-45530D02*
X132996Y-45506D01*
X132958Y-45482D01*
X132862Y-45482D01*
X132824Y-45506D01*
X132805Y-45530D01*
X132786Y-45578D01*
X132786Y-45625D01*
X132805Y-45697D01*
X133034Y-45982D01*
X132786Y-45982D01*
X132005Y-45792D02*
X131700Y-45792D01*
X134424Y-46739D02*
X134367Y-46762D01*
X134271Y-46762D01*
X134233Y-46739D01*
X134214Y-46715D01*
X134195Y-46667D01*
X134195Y-46620D01*
X134214Y-46572D01*
X134233Y-46548D01*
X134271Y-46524D01*
X134348Y-46500D01*
X134386Y-46477D01*
X134405Y-46453D01*
X134424Y-46405D01*
X134424Y-46358D01*
X134405Y-46310D01*
X134386Y-46286D01*
X134348Y-46262D01*
X134252Y-46262D01*
X134195Y-46286D01*
X134062Y-46262D02*
X133967Y-46762D01*
X133890Y-46405D01*
X133814Y-46762D01*
X133719Y-46262D01*
X133586Y-46310D02*
X133567Y-46286D01*
X133529Y-46262D01*
X133433Y-46262D01*
X133395Y-46286D01*
X133376Y-46310D01*
X133357Y-46358D01*
X133357Y-46405D01*
X133376Y-46477D01*
X133605Y-46762D01*
X133357Y-46762D01*
X133186Y-46715D02*
X133167Y-46739D01*
X133186Y-46762D01*
X133205Y-46739D01*
X133186Y-46715D01*
X133186Y-46762D01*
X133034Y-46262D02*
X132786Y-46262D01*
X132920Y-46453D01*
X132862Y-46453D01*
X132824Y-46477D01*
X132805Y-46500D01*
X132786Y-46548D01*
X132786Y-46667D01*
X132805Y-46715D01*
X132824Y-46739D01*
X132862Y-46762D01*
X132977Y-46762D01*
X133015Y-46739D01*
X133034Y-46715D01*
X132005Y-46572D02*
X131700Y-46572D01*
X134424Y-47519D02*
X134367Y-47542D01*
X134271Y-47542D01*
X134233Y-47519D01*
X134214Y-47495D01*
X134195Y-47447D01*
X134195Y-47400D01*
X134214Y-47352D01*
X134233Y-47328D01*
X134271Y-47304D01*
X134348Y-47280D01*
X134386Y-47257D01*
X134405Y-47233D01*
X134424Y-47185D01*
X134424Y-47138D01*
X134405Y-47090D01*
X134386Y-47066D01*
X134348Y-47042D01*
X134252Y-47042D01*
X134195Y-47066D01*
X134062Y-47042D02*
X133967Y-47542D01*
X133890Y-47185D01*
X133814Y-47542D01*
X133719Y-47042D01*
X133586Y-47090D02*
X133567Y-47066D01*
X133529Y-47042D01*
X133433Y-47042D01*
X133395Y-47066D01*
X133376Y-47090D01*
X133357Y-47138D01*
X133357Y-47185D01*
X133376Y-47257D01*
X133605Y-47542D01*
X133357Y-47542D01*
X133186Y-47495D02*
X133167Y-47519D01*
X133186Y-47542D01*
X133205Y-47519D01*
X133186Y-47495D01*
X133186Y-47542D01*
X132824Y-47209D02*
X132824Y-47542D01*
X132920Y-47019D02*
X133015Y-47376D01*
X132767Y-47376D01*
X132005Y-47352D02*
X131700Y-47352D01*
X134424Y-48299D02*
X134367Y-48322D01*
X134271Y-48322D01*
X134233Y-48299D01*
X134214Y-48275D01*
X134195Y-48227D01*
X134195Y-48180D01*
X134214Y-48132D01*
X134233Y-48108D01*
X134271Y-48084D01*
X134348Y-48060D01*
X134386Y-48037D01*
X134405Y-48013D01*
X134424Y-47965D01*
X134424Y-47918D01*
X134405Y-47870D01*
X134386Y-47846D01*
X134348Y-47822D01*
X134252Y-47822D01*
X134195Y-47846D01*
X134062Y-47822D02*
X133967Y-48322D01*
X133890Y-47965D01*
X133814Y-48322D01*
X133719Y-47822D01*
X133586Y-47870D02*
X133567Y-47846D01*
X133529Y-47822D01*
X133433Y-47822D01*
X133395Y-47846D01*
X133376Y-47870D01*
X133357Y-47918D01*
X133357Y-47965D01*
X133376Y-48037D01*
X133605Y-48322D01*
X133357Y-48322D01*
X133186Y-48275D02*
X133167Y-48299D01*
X133186Y-48322D01*
X133205Y-48299D01*
X133186Y-48275D01*
X133186Y-48322D01*
X132805Y-47822D02*
X132996Y-47822D01*
X133015Y-48060D01*
X132996Y-48037D01*
X132958Y-48013D01*
X132862Y-48013D01*
X132824Y-48037D01*
X132805Y-48060D01*
X132786Y-48108D01*
X132786Y-48227D01*
X132805Y-48275D01*
X132824Y-48299D01*
X132862Y-48322D01*
X132958Y-48322D01*
X132996Y-48299D01*
X133015Y-48275D01*
X132005Y-48132D02*
X131700Y-48132D01*
X134424Y-49079D02*
X134367Y-49102D01*
X134271Y-49102D01*
X134233Y-49079D01*
X134214Y-49055D01*
X134195Y-49007D01*
X134195Y-48960D01*
X134214Y-48912D01*
X134233Y-48888D01*
X134271Y-48864D01*
X134348Y-48840D01*
X134386Y-48817D01*
X134405Y-48793D01*
X134424Y-48745D01*
X134424Y-48698D01*
X134405Y-48650D01*
X134386Y-48626D01*
X134348Y-48602D01*
X134252Y-48602D01*
X134195Y-48626D01*
X134062Y-48602D02*
X133967Y-49102D01*
X133890Y-48745D01*
X133814Y-49102D01*
X133719Y-48602D01*
X133586Y-48650D02*
X133567Y-48626D01*
X133529Y-48602D01*
X133433Y-48602D01*
X133395Y-48626D01*
X133376Y-48650D01*
X133357Y-48698D01*
X133357Y-48745D01*
X133376Y-48817D01*
X133605Y-49102D01*
X133357Y-49102D01*
X133186Y-49055D02*
X133167Y-49079D01*
X133186Y-49102D01*
X133205Y-49079D01*
X133186Y-49055D01*
X133186Y-49102D01*
X132824Y-48602D02*
X132901Y-48602D01*
X132939Y-48626D01*
X132958Y-48650D01*
X132996Y-48721D01*
X133015Y-48817D01*
X133015Y-49007D01*
X132996Y-49055D01*
X132977Y-49079D01*
X132939Y-49102D01*
X132862Y-49102D01*
X132824Y-49079D01*
X132805Y-49055D01*
X132786Y-49007D01*
X132786Y-48888D01*
X132805Y-48840D01*
X132824Y-48817D01*
X132862Y-48793D01*
X132939Y-48793D01*
X132977Y-48817D01*
X132996Y-48840D01*
X133015Y-48888D01*
X132005Y-48912D02*
X131700Y-48912D01*
X130829Y-44702D02*
X130752Y-44702D01*
X130714Y-44726D01*
X130676Y-44774D01*
X130657Y-44869D01*
X130657Y-45036D01*
X130676Y-45131D01*
X130714Y-45179D01*
X130752Y-45202D01*
X130829Y-45202D01*
X130867Y-45179D01*
X130905Y-45131D01*
X130924Y-45036D01*
X130924Y-44869D01*
X130905Y-44774D01*
X130867Y-44726D01*
X130829Y-44702D01*
X130486Y-45202D02*
X130486Y-44702D01*
X130257Y-45202D01*
X130257Y-44702D01*
X129762Y-44940D02*
X129457Y-44940D01*
X129457Y-45083D02*
X129762Y-45083D01*
X128962Y-45202D02*
X128962Y-44702D01*
X128828Y-45060D01*
X128695Y-44702D01*
X128695Y-45202D01*
X128333Y-45202D02*
X128333Y-44940D01*
X128352Y-44893D01*
X128390Y-44869D01*
X128467Y-44869D01*
X128505Y-44893D01*
X128333Y-45179D02*
X128371Y-45202D01*
X128467Y-45202D01*
X128505Y-45179D01*
X128524Y-45131D01*
X128524Y-45083D01*
X128505Y-45036D01*
X128467Y-45012D01*
X128371Y-45012D01*
X128333Y-44988D01*
X128143Y-44869D02*
X128143Y-45369D01*
X128143Y-44893D02*
X128105Y-44869D01*
X128028Y-44869D01*
X127990Y-44893D01*
X127971Y-44917D01*
X127952Y-44964D01*
X127952Y-45107D01*
X127971Y-45155D01*
X127990Y-45179D01*
X128028Y-45202D01*
X128105Y-45202D01*
X128143Y-45179D01*
X127400Y-44702D02*
X127361Y-44702D01*
X127323Y-44726D01*
X127304Y-44750D01*
X127285Y-44798D01*
X127266Y-44893D01*
X127266Y-45012D01*
X127285Y-45107D01*
X127304Y-45155D01*
X127323Y-45179D01*
X127361Y-45202D01*
X127400Y-45202D01*
X127438Y-45179D01*
X127457Y-45155D01*
X127476Y-45107D01*
X127495Y-45012D01*
X127495Y-44893D01*
X127476Y-44798D01*
X127457Y-44750D01*
X127438Y-44726D01*
X127400Y-44702D01*
X126866Y-45155D02*
X126885Y-45179D01*
X126942Y-45202D01*
X126980Y-45202D01*
X127038Y-45179D01*
X127076Y-45131D01*
X127095Y-45083D01*
X127114Y-44988D01*
X127114Y-44917D01*
X127095Y-44821D01*
X127076Y-44774D01*
X127038Y-44726D01*
X126980Y-44702D01*
X126942Y-44702D01*
X126885Y-44726D01*
X126866Y-44750D01*
X126619Y-44702D02*
X126580Y-44702D01*
X126542Y-44726D01*
X126523Y-44750D01*
X126504Y-44798D01*
X126485Y-44893D01*
X126485Y-45012D01*
X126504Y-45107D01*
X126523Y-45155D01*
X126542Y-45179D01*
X126580Y-45202D01*
X126619Y-45202D01*
X126657Y-45179D01*
X126676Y-45155D01*
X126695Y-45107D01*
X126714Y-45012D01*
X126714Y-44893D01*
X126695Y-44798D01*
X126676Y-44750D01*
X126657Y-44726D01*
X126619Y-44702D01*
X126238Y-44702D02*
X126199Y-44702D01*
X126161Y-44726D01*
X126142Y-44750D01*
X126123Y-44798D01*
X126104Y-44893D01*
X126104Y-45012D01*
X126123Y-45107D01*
X126142Y-45155D01*
X126161Y-45179D01*
X126199Y-45202D01*
X126238Y-45202D01*
X126276Y-45179D01*
X126295Y-45155D01*
X126314Y-45107D01*
X126333Y-45012D01*
X126333Y-44893D01*
X126314Y-44798D01*
X126295Y-44750D01*
X126276Y-44726D01*
X126238Y-44702D01*
X125857Y-44702D02*
X125818Y-44702D01*
X125780Y-44726D01*
X125761Y-44750D01*
X125742Y-44798D01*
X125723Y-44893D01*
X125723Y-45012D01*
X125742Y-45107D01*
X125761Y-45155D01*
X125780Y-45179D01*
X125818Y-45202D01*
X125857Y-45202D01*
X125895Y-45179D01*
X125914Y-45155D01*
X125933Y-45107D01*
X125952Y-45012D01*
X125952Y-44893D01*
X125933Y-44798D01*
X125914Y-44750D01*
X125895Y-44726D01*
X125857Y-44702D01*
X125476Y-44702D02*
X125437Y-44702D01*
X125399Y-44726D01*
X125380Y-44750D01*
X125361Y-44798D01*
X125342Y-44893D01*
X125342Y-45012D01*
X125361Y-45107D01*
X125380Y-45155D01*
X125399Y-45179D01*
X125437Y-45202D01*
X125476Y-45202D01*
X125514Y-45179D01*
X125533Y-45155D01*
X125552Y-45107D01*
X125571Y-45012D01*
X125571Y-44893D01*
X125552Y-44798D01*
X125533Y-44750D01*
X125514Y-44726D01*
X125476Y-44702D01*
X125171Y-45202D02*
X125171Y-44702D01*
X124999Y-45202D02*
X124999Y-44940D01*
X125018Y-44893D01*
X125056Y-44869D01*
X125114Y-44869D01*
X125152Y-44893D01*
X125171Y-44917D01*
X124809Y-45012D02*
X124504Y-45012D01*
X124238Y-44702D02*
X124199Y-44702D01*
X124161Y-44726D01*
X124142Y-44750D01*
X124123Y-44798D01*
X124104Y-44893D01*
X124104Y-45012D01*
X124123Y-45107D01*
X124142Y-45155D01*
X124161Y-45179D01*
X124199Y-45202D01*
X124238Y-45202D01*
X124276Y-45179D01*
X124295Y-45155D01*
X124314Y-45107D01*
X124333Y-45012D01*
X124333Y-44893D01*
X124314Y-44798D01*
X124295Y-44750D01*
X124276Y-44726D01*
X124238Y-44702D01*
X123704Y-45155D02*
X123723Y-45179D01*
X123780Y-45202D01*
X123818Y-45202D01*
X123876Y-45179D01*
X123914Y-45131D01*
X123933Y-45083D01*
X123952Y-44988D01*
X123952Y-44917D01*
X123933Y-44821D01*
X123914Y-44774D01*
X123876Y-44726D01*
X123818Y-44702D01*
X123780Y-44702D01*
X123723Y-44726D01*
X123704Y-44750D01*
X123571Y-44702D02*
X123304Y-44702D01*
X123476Y-45202D01*
X123018Y-44940D02*
X123152Y-44940D01*
X123152Y-45202D02*
X123152Y-44702D01*
X122961Y-44702D01*
X122675Y-44940D02*
X122809Y-44940D01*
X122809Y-45202D02*
X122809Y-44702D01*
X122618Y-44702D01*
X122332Y-44940D02*
X122466Y-44940D01*
X122466Y-45202D02*
X122466Y-44702D01*
X122275Y-44702D01*
X122123Y-45202D02*
X122123Y-44702D01*
X121951Y-45202D02*
X121951Y-44940D01*
X121970Y-44893D01*
X122008Y-44869D01*
X122066Y-44869D01*
X122104Y-44893D01*
X122123Y-44917D01*
X121513Y-44869D02*
X121361Y-44869D01*
X121456Y-44702D02*
X121456Y-45131D01*
X121437Y-45179D01*
X121399Y-45202D01*
X121361Y-45202D01*
X121170Y-45202D02*
X121208Y-45179D01*
X121227Y-45155D01*
X121246Y-45107D01*
X121246Y-44964D01*
X121227Y-44917D01*
X121208Y-44893D01*
X121170Y-44869D01*
X121112Y-44869D01*
X121074Y-44893D01*
X121055Y-44917D01*
X121036Y-44964D01*
X121036Y-45107D01*
X121055Y-45155D01*
X121074Y-45179D01*
X121112Y-45202D01*
X121170Y-45202D01*
X120331Y-45202D02*
X120465Y-44964D01*
X120560Y-45202D02*
X120560Y-44702D01*
X120407Y-44702D01*
X120369Y-44726D01*
X120350Y-44750D01*
X120331Y-44798D01*
X120331Y-44869D01*
X120350Y-44917D01*
X120369Y-44940D01*
X120407Y-44964D01*
X120560Y-44964D01*
X120179Y-45060D02*
X119988Y-45060D01*
X120217Y-45202D02*
X120084Y-44702D01*
X119950Y-45202D01*
X119817Y-45202D02*
X119817Y-44702D01*
X119683Y-45060D01*
X119550Y-44702D01*
X119550Y-45202D01*
X130829Y-45482D02*
X130752Y-45482D01*
X130714Y-45506D01*
X130676Y-45554D01*
X130657Y-45649D01*
X130657Y-45816D01*
X130676Y-45911D01*
X130714Y-45959D01*
X130752Y-45982D01*
X130829Y-45982D01*
X130867Y-45959D01*
X130905Y-45911D01*
X130924Y-45816D01*
X130924Y-45649D01*
X130905Y-45554D01*
X130867Y-45506D01*
X130829Y-45482D01*
X130486Y-45982D02*
X130486Y-45482D01*
X130257Y-45982D01*
X130257Y-45482D01*
X129762Y-45720D02*
X129457Y-45720D01*
X129457Y-45863D02*
X129762Y-45863D01*
X128962Y-45982D02*
X128962Y-45482D01*
X128828Y-45840D01*
X128695Y-45482D01*
X128695Y-45982D01*
X128333Y-45982D02*
X128333Y-45720D01*
X128352Y-45673D01*
X128390Y-45649D01*
X128467Y-45649D01*
X128505Y-45673D01*
X128333Y-45959D02*
X128371Y-45982D01*
X128467Y-45982D01*
X128505Y-45959D01*
X128524Y-45911D01*
X128524Y-45863D01*
X128505Y-45816D01*
X128467Y-45792D01*
X128371Y-45792D01*
X128333Y-45768D01*
X128143Y-45649D02*
X128143Y-46149D01*
X128143Y-45673D02*
X128105Y-45649D01*
X128028Y-45649D01*
X127990Y-45673D01*
X127971Y-45697D01*
X127952Y-45744D01*
X127952Y-45887D01*
X127971Y-45935D01*
X127990Y-45959D01*
X128028Y-45982D01*
X128105Y-45982D01*
X128143Y-45959D01*
X127400Y-45482D02*
X127361Y-45482D01*
X127323Y-45506D01*
X127304Y-45530D01*
X127285Y-45578D01*
X127266Y-45673D01*
X127266Y-45792D01*
X127285Y-45887D01*
X127304Y-45935D01*
X127323Y-45959D01*
X127361Y-45982D01*
X127400Y-45982D01*
X127438Y-45959D01*
X127457Y-45935D01*
X127476Y-45887D01*
X127495Y-45792D01*
X127495Y-45673D01*
X127476Y-45578D01*
X127457Y-45530D01*
X127438Y-45506D01*
X127400Y-45482D01*
X126866Y-45935D02*
X126885Y-45959D01*
X126942Y-45982D01*
X126980Y-45982D01*
X127038Y-45959D01*
X127076Y-45911D01*
X127095Y-45863D01*
X127114Y-45768D01*
X127114Y-45697D01*
X127095Y-45601D01*
X127076Y-45554D01*
X127038Y-45506D01*
X126980Y-45482D01*
X126942Y-45482D01*
X126885Y-45506D01*
X126866Y-45530D01*
X126638Y-45697D02*
X126676Y-45673D01*
X126695Y-45649D01*
X126714Y-45601D01*
X126714Y-45578D01*
X126695Y-45530D01*
X126676Y-45506D01*
X126638Y-45482D01*
X126561Y-45482D01*
X126523Y-45506D01*
X126504Y-45530D01*
X126485Y-45578D01*
X126485Y-45601D01*
X126504Y-45649D01*
X126523Y-45673D01*
X126561Y-45697D01*
X126638Y-45697D01*
X126676Y-45720D01*
X126695Y-45744D01*
X126714Y-45792D01*
X126714Y-45887D01*
X126695Y-45935D01*
X126676Y-45959D01*
X126638Y-45982D01*
X126561Y-45982D01*
X126523Y-45959D01*
X126504Y-45935D01*
X126485Y-45887D01*
X126485Y-45792D01*
X126504Y-45744D01*
X126523Y-45720D01*
X126561Y-45697D01*
X126238Y-45482D02*
X126199Y-45482D01*
X126161Y-45506D01*
X126142Y-45530D01*
X126123Y-45578D01*
X126104Y-45673D01*
X126104Y-45792D01*
X126123Y-45887D01*
X126142Y-45935D01*
X126161Y-45959D01*
X126199Y-45982D01*
X126238Y-45982D01*
X126276Y-45959D01*
X126295Y-45935D01*
X126314Y-45887D01*
X126333Y-45792D01*
X126333Y-45673D01*
X126314Y-45578D01*
X126295Y-45530D01*
X126276Y-45506D01*
X126238Y-45482D01*
X125857Y-45482D02*
X125818Y-45482D01*
X125780Y-45506D01*
X125761Y-45530D01*
X125742Y-45578D01*
X125723Y-45673D01*
X125723Y-45792D01*
X125742Y-45887D01*
X125761Y-45935D01*
X125780Y-45959D01*
X125818Y-45982D01*
X125857Y-45982D01*
X125895Y-45959D01*
X125914Y-45935D01*
X125933Y-45887D01*
X125952Y-45792D01*
X125952Y-45673D01*
X125933Y-45578D01*
X125914Y-45530D01*
X125895Y-45506D01*
X125857Y-45482D01*
X125476Y-45482D02*
X125437Y-45482D01*
X125399Y-45506D01*
X125380Y-45530D01*
X125361Y-45578D01*
X125342Y-45673D01*
X125342Y-45792D01*
X125361Y-45887D01*
X125380Y-45935D01*
X125399Y-45959D01*
X125437Y-45982D01*
X125476Y-45982D01*
X125514Y-45959D01*
X125533Y-45935D01*
X125552Y-45887D01*
X125571Y-45792D01*
X125571Y-45673D01*
X125552Y-45578D01*
X125533Y-45530D01*
X125514Y-45506D01*
X125476Y-45482D01*
X125171Y-45982D02*
X125171Y-45482D01*
X124999Y-45982D02*
X124999Y-45720D01*
X125018Y-45673D01*
X125056Y-45649D01*
X125114Y-45649D01*
X125152Y-45673D01*
X125171Y-45697D01*
X124809Y-45792D02*
X124504Y-45792D01*
X124238Y-45482D02*
X124199Y-45482D01*
X124161Y-45506D01*
X124142Y-45530D01*
X124123Y-45578D01*
X124104Y-45673D01*
X124104Y-45792D01*
X124123Y-45887D01*
X124142Y-45935D01*
X124161Y-45959D01*
X124199Y-45982D01*
X124238Y-45982D01*
X124276Y-45959D01*
X124295Y-45935D01*
X124314Y-45887D01*
X124333Y-45792D01*
X124333Y-45673D01*
X124314Y-45578D01*
X124295Y-45530D01*
X124276Y-45506D01*
X124238Y-45482D01*
X123704Y-45935D02*
X123723Y-45959D01*
X123780Y-45982D01*
X123818Y-45982D01*
X123876Y-45959D01*
X123914Y-45911D01*
X123933Y-45863D01*
X123952Y-45768D01*
X123952Y-45697D01*
X123933Y-45601D01*
X123914Y-45554D01*
X123876Y-45506D01*
X123818Y-45482D01*
X123780Y-45482D01*
X123723Y-45506D01*
X123704Y-45530D01*
X123399Y-45720D02*
X123533Y-45720D01*
X123533Y-45982D02*
X123533Y-45482D01*
X123342Y-45482D01*
X123056Y-45720D02*
X123190Y-45720D01*
X123190Y-45982D02*
X123190Y-45482D01*
X122999Y-45482D01*
X122713Y-45720D02*
X122847Y-45720D01*
X122847Y-45982D02*
X122847Y-45482D01*
X122656Y-45482D01*
X122370Y-45720D02*
X122504Y-45720D01*
X122504Y-45982D02*
X122504Y-45482D01*
X122313Y-45482D01*
X122161Y-45982D02*
X122161Y-45482D01*
X121989Y-45982D02*
X121989Y-45720D01*
X122008Y-45673D01*
X122046Y-45649D01*
X122104Y-45649D01*
X122142Y-45673D01*
X122161Y-45697D01*
X121551Y-45649D02*
X121399Y-45649D01*
X121494Y-45482D02*
X121494Y-45911D01*
X121475Y-45959D01*
X121437Y-45982D01*
X121399Y-45982D01*
X121208Y-45982D02*
X121246Y-45959D01*
X121265Y-45935D01*
X121284Y-45887D01*
X121284Y-45744D01*
X121265Y-45697D01*
X121246Y-45673D01*
X121208Y-45649D01*
X121150Y-45649D01*
X121112Y-45673D01*
X121093Y-45697D01*
X121074Y-45744D01*
X121074Y-45887D01*
X121093Y-45935D01*
X121112Y-45959D01*
X121150Y-45982D01*
X121208Y-45982D01*
X120369Y-45982D02*
X120503Y-45744D01*
X120598Y-45982D02*
X120598Y-45482D01*
X120445Y-45482D01*
X120407Y-45506D01*
X120388Y-45530D01*
X120369Y-45578D01*
X120369Y-45649D01*
X120388Y-45697D01*
X120407Y-45720D01*
X120445Y-45744D01*
X120598Y-45744D01*
X120217Y-45840D02*
X120026Y-45840D01*
X120255Y-45982D02*
X120122Y-45482D01*
X119988Y-45982D01*
X119855Y-45982D02*
X119855Y-45482D01*
X119721Y-45840D01*
X119588Y-45482D01*
X119588Y-45982D01*
X130829Y-46262D02*
X130752Y-46262D01*
X130714Y-46286D01*
X130676Y-46334D01*
X130657Y-46429D01*
X130657Y-46596D01*
X130676Y-46691D01*
X130714Y-46739D01*
X130752Y-46762D01*
X130829Y-46762D01*
X130867Y-46739D01*
X130905Y-46691D01*
X130924Y-46596D01*
X130924Y-46429D01*
X130905Y-46334D01*
X130867Y-46286D01*
X130829Y-46262D01*
X130486Y-46762D02*
X130486Y-46262D01*
X130257Y-46762D01*
X130257Y-46262D01*
X129762Y-46500D02*
X129457Y-46500D01*
X129457Y-46643D02*
X129762Y-46643D01*
X128962Y-46762D02*
X128962Y-46262D01*
X128828Y-46620D01*
X128695Y-46262D01*
X128695Y-46762D01*
X128333Y-46762D02*
X128333Y-46500D01*
X128352Y-46453D01*
X128390Y-46429D01*
X128467Y-46429D01*
X128505Y-46453D01*
X128333Y-46739D02*
X128371Y-46762D01*
X128467Y-46762D01*
X128505Y-46739D01*
X128524Y-46691D01*
X128524Y-46643D01*
X128505Y-46596D01*
X128467Y-46572D01*
X128371Y-46572D01*
X128333Y-46548D01*
X128143Y-46429D02*
X128143Y-46929D01*
X128143Y-46453D02*
X128105Y-46429D01*
X128028Y-46429D01*
X127990Y-46453D01*
X127971Y-46477D01*
X127952Y-46524D01*
X127952Y-46667D01*
X127971Y-46715D01*
X127990Y-46739D01*
X128028Y-46762D01*
X128105Y-46762D01*
X128143Y-46739D01*
X127400Y-46262D02*
X127361Y-46262D01*
X127323Y-46286D01*
X127304Y-46310D01*
X127285Y-46358D01*
X127266Y-46453D01*
X127266Y-46572D01*
X127285Y-46667D01*
X127304Y-46715D01*
X127323Y-46739D01*
X127361Y-46762D01*
X127400Y-46762D01*
X127438Y-46739D01*
X127457Y-46715D01*
X127476Y-46667D01*
X127495Y-46572D01*
X127495Y-46453D01*
X127476Y-46358D01*
X127457Y-46310D01*
X127438Y-46286D01*
X127400Y-46262D01*
X127095Y-46762D02*
X127095Y-46262D01*
X127000Y-46262D01*
X126942Y-46286D01*
X126904Y-46334D01*
X126885Y-46381D01*
X126866Y-46477D01*
X126866Y-46548D01*
X126885Y-46643D01*
X126904Y-46691D01*
X126942Y-46739D01*
X127000Y-46762D01*
X127095Y-46762D01*
X126619Y-46262D02*
X126580Y-46262D01*
X126542Y-46286D01*
X126523Y-46310D01*
X126504Y-46358D01*
X126485Y-46453D01*
X126485Y-46572D01*
X126504Y-46667D01*
X126523Y-46715D01*
X126542Y-46739D01*
X126580Y-46762D01*
X126619Y-46762D01*
X126657Y-46739D01*
X126676Y-46715D01*
X126695Y-46667D01*
X126714Y-46572D01*
X126714Y-46453D01*
X126695Y-46358D01*
X126676Y-46310D01*
X126657Y-46286D01*
X126619Y-46262D01*
X126238Y-46262D02*
X126199Y-46262D01*
X126161Y-46286D01*
X126142Y-46310D01*
X126123Y-46358D01*
X126104Y-46453D01*
X126104Y-46572D01*
X126123Y-46667D01*
X126142Y-46715D01*
X126161Y-46739D01*
X126199Y-46762D01*
X126238Y-46762D01*
X126276Y-46739D01*
X126295Y-46715D01*
X126314Y-46667D01*
X126333Y-46572D01*
X126333Y-46453D01*
X126314Y-46358D01*
X126295Y-46310D01*
X126276Y-46286D01*
X126238Y-46262D01*
X125857Y-46262D02*
X125818Y-46262D01*
X125780Y-46286D01*
X125761Y-46310D01*
X125742Y-46358D01*
X125723Y-46453D01*
X125723Y-46572D01*
X125742Y-46667D01*
X125761Y-46715D01*
X125780Y-46739D01*
X125818Y-46762D01*
X125857Y-46762D01*
X125895Y-46739D01*
X125914Y-46715D01*
X125933Y-46667D01*
X125952Y-46572D01*
X125952Y-46453D01*
X125933Y-46358D01*
X125914Y-46310D01*
X125895Y-46286D01*
X125857Y-46262D01*
X125476Y-46262D02*
X125437Y-46262D01*
X125399Y-46286D01*
X125380Y-46310D01*
X125361Y-46358D01*
X125342Y-46453D01*
X125342Y-46572D01*
X125361Y-46667D01*
X125380Y-46715D01*
X125399Y-46739D01*
X125437Y-46762D01*
X125476Y-46762D01*
X125514Y-46739D01*
X125533Y-46715D01*
X125552Y-46667D01*
X125571Y-46572D01*
X125571Y-46453D01*
X125552Y-46358D01*
X125533Y-46310D01*
X125514Y-46286D01*
X125476Y-46262D01*
X125171Y-46762D02*
X125171Y-46262D01*
X124999Y-46762D02*
X124999Y-46500D01*
X125018Y-46453D01*
X125056Y-46429D01*
X125114Y-46429D01*
X125152Y-46453D01*
X125171Y-46477D01*
X124809Y-46572D02*
X124504Y-46572D01*
X124238Y-46262D02*
X124199Y-46262D01*
X124161Y-46286D01*
X124142Y-46310D01*
X124123Y-46358D01*
X124104Y-46453D01*
X124104Y-46572D01*
X124123Y-46667D01*
X124142Y-46715D01*
X124161Y-46739D01*
X124199Y-46762D01*
X124238Y-46762D01*
X124276Y-46739D01*
X124295Y-46715D01*
X124314Y-46667D01*
X124333Y-46572D01*
X124333Y-46453D01*
X124314Y-46358D01*
X124295Y-46310D01*
X124276Y-46286D01*
X124238Y-46262D01*
X123933Y-46762D02*
X123933Y-46262D01*
X123838Y-46262D01*
X123780Y-46286D01*
X123742Y-46334D01*
X123723Y-46381D01*
X123704Y-46477D01*
X123704Y-46548D01*
X123723Y-46643D01*
X123742Y-46691D01*
X123780Y-46739D01*
X123838Y-46762D01*
X123933Y-46762D01*
X123571Y-46262D02*
X123304Y-46262D01*
X123476Y-46762D01*
X123018Y-46500D02*
X123152Y-46500D01*
X123152Y-46762D02*
X123152Y-46262D01*
X122961Y-46262D01*
X122675Y-46500D02*
X122809Y-46500D01*
X122809Y-46762D02*
X122809Y-46262D01*
X122618Y-46262D01*
X122332Y-46500D02*
X122466Y-46500D01*
X122466Y-46762D02*
X122466Y-46262D01*
X122275Y-46262D01*
X122123Y-46762D02*
X122123Y-46262D01*
X121951Y-46762D02*
X121951Y-46500D01*
X121970Y-46453D01*
X122008Y-46429D01*
X122066Y-46429D01*
X122104Y-46453D01*
X122123Y-46477D01*
X121513Y-46429D02*
X121361Y-46429D01*
X121456Y-46262D02*
X121456Y-46691D01*
X121437Y-46739D01*
X121399Y-46762D01*
X121361Y-46762D01*
X121170Y-46762D02*
X121208Y-46739D01*
X121227Y-46715D01*
X121246Y-46667D01*
X121246Y-46524D01*
X121227Y-46477D01*
X121208Y-46453D01*
X121170Y-46429D01*
X121112Y-46429D01*
X121074Y-46453D01*
X121055Y-46477D01*
X121036Y-46524D01*
X121036Y-46667D01*
X121055Y-46715D01*
X121074Y-46739D01*
X121112Y-46762D01*
X121170Y-46762D01*
X120331Y-46762D02*
X120465Y-46524D01*
X120560Y-46762D02*
X120560Y-46262D01*
X120407Y-46262D01*
X120369Y-46286D01*
X120350Y-46310D01*
X120331Y-46358D01*
X120331Y-46429D01*
X120350Y-46477D01*
X120369Y-46500D01*
X120407Y-46524D01*
X120560Y-46524D01*
X120179Y-46620D02*
X119988Y-46620D01*
X120217Y-46762D02*
X120084Y-46262D01*
X119950Y-46762D01*
X119817Y-46762D02*
X119817Y-46262D01*
X119683Y-46620D01*
X119550Y-46262D01*
X119550Y-46762D01*
X130829Y-47042D02*
X130752Y-47042D01*
X130714Y-47066D01*
X130676Y-47114D01*
X130657Y-47209D01*
X130657Y-47376D01*
X130676Y-47471D01*
X130714Y-47519D01*
X130752Y-47542D01*
X130829Y-47542D01*
X130867Y-47519D01*
X130905Y-47471D01*
X130924Y-47376D01*
X130924Y-47209D01*
X130905Y-47114D01*
X130867Y-47066D01*
X130829Y-47042D01*
X130486Y-47542D02*
X130486Y-47042D01*
X130257Y-47542D01*
X130257Y-47042D01*
X129762Y-47280D02*
X129457Y-47280D01*
X129457Y-47423D02*
X129762Y-47423D01*
X128962Y-47542D02*
X128962Y-47042D01*
X128828Y-47400D01*
X128695Y-47042D01*
X128695Y-47542D01*
X128333Y-47542D02*
X128333Y-47280D01*
X128352Y-47233D01*
X128390Y-47209D01*
X128467Y-47209D01*
X128505Y-47233D01*
X128333Y-47519D02*
X128371Y-47542D01*
X128467Y-47542D01*
X128505Y-47519D01*
X128524Y-47471D01*
X128524Y-47423D01*
X128505Y-47376D01*
X128467Y-47352D01*
X128371Y-47352D01*
X128333Y-47328D01*
X128143Y-47209D02*
X128143Y-47709D01*
X128143Y-47233D02*
X128105Y-47209D01*
X128028Y-47209D01*
X127990Y-47233D01*
X127971Y-47257D01*
X127952Y-47304D01*
X127952Y-47447D01*
X127971Y-47495D01*
X127990Y-47519D01*
X128028Y-47542D01*
X128105Y-47542D01*
X128143Y-47519D01*
X127400Y-47042D02*
X127361Y-47042D01*
X127323Y-47066D01*
X127304Y-47090D01*
X127285Y-47138D01*
X127266Y-47233D01*
X127266Y-47352D01*
X127285Y-47447D01*
X127304Y-47495D01*
X127323Y-47519D01*
X127361Y-47542D01*
X127400Y-47542D01*
X127438Y-47519D01*
X127457Y-47495D01*
X127476Y-47447D01*
X127495Y-47352D01*
X127495Y-47233D01*
X127476Y-47138D01*
X127457Y-47090D01*
X127438Y-47066D01*
X127400Y-47042D01*
X127095Y-47542D02*
X127095Y-47042D01*
X127000Y-47042D01*
X126942Y-47066D01*
X126904Y-47114D01*
X126885Y-47161D01*
X126866Y-47257D01*
X126866Y-47328D01*
X126885Y-47423D01*
X126904Y-47471D01*
X126942Y-47519D01*
X127000Y-47542D01*
X127095Y-47542D01*
X126638Y-47257D02*
X126676Y-47233D01*
X126695Y-47209D01*
X126714Y-47161D01*
X126714Y-47138D01*
X126695Y-47090D01*
X126676Y-47066D01*
X126638Y-47042D01*
X126561Y-47042D01*
X126523Y-47066D01*
X126504Y-47090D01*
X126485Y-47138D01*
X126485Y-47161D01*
X126504Y-47209D01*
X126523Y-47233D01*
X126561Y-47257D01*
X126638Y-47257D01*
X126676Y-47280D01*
X126695Y-47304D01*
X126714Y-47352D01*
X126714Y-47447D01*
X126695Y-47495D01*
X126676Y-47519D01*
X126638Y-47542D01*
X126561Y-47542D01*
X126523Y-47519D01*
X126504Y-47495D01*
X126485Y-47447D01*
X126485Y-47352D01*
X126504Y-47304D01*
X126523Y-47280D01*
X126561Y-47257D01*
X126238Y-47042D02*
X126199Y-47042D01*
X126161Y-47066D01*
X126142Y-47090D01*
X126123Y-47138D01*
X126104Y-47233D01*
X126104Y-47352D01*
X126123Y-47447D01*
X126142Y-47495D01*
X126161Y-47519D01*
X126199Y-47542D01*
X126238Y-47542D01*
X126276Y-47519D01*
X126295Y-47495D01*
X126314Y-47447D01*
X126333Y-47352D01*
X126333Y-47233D01*
X126314Y-47138D01*
X126295Y-47090D01*
X126276Y-47066D01*
X126238Y-47042D01*
X125857Y-47042D02*
X125818Y-47042D01*
X125780Y-47066D01*
X125761Y-47090D01*
X125742Y-47138D01*
X125723Y-47233D01*
X125723Y-47352D01*
X125742Y-47447D01*
X125761Y-47495D01*
X125780Y-47519D01*
X125818Y-47542D01*
X125857Y-47542D01*
X125895Y-47519D01*
X125914Y-47495D01*
X125933Y-47447D01*
X125952Y-47352D01*
X125952Y-47233D01*
X125933Y-47138D01*
X125914Y-47090D01*
X125895Y-47066D01*
X125857Y-47042D01*
X125476Y-47042D02*
X125437Y-47042D01*
X125399Y-47066D01*
X125380Y-47090D01*
X125361Y-47138D01*
X125342Y-47233D01*
X125342Y-47352D01*
X125361Y-47447D01*
X125380Y-47495D01*
X125399Y-47519D01*
X125437Y-47542D01*
X125476Y-47542D01*
X125514Y-47519D01*
X125533Y-47495D01*
X125552Y-47447D01*
X125571Y-47352D01*
X125571Y-47233D01*
X125552Y-47138D01*
X125533Y-47090D01*
X125514Y-47066D01*
X125476Y-47042D01*
X125171Y-47542D02*
X125171Y-47042D01*
X124999Y-47542D02*
X124999Y-47280D01*
X125018Y-47233D01*
X125056Y-47209D01*
X125114Y-47209D01*
X125152Y-47233D01*
X125171Y-47257D01*
X124809Y-47352D02*
X124504Y-47352D01*
X124238Y-47042D02*
X124199Y-47042D01*
X124161Y-47066D01*
X124142Y-47090D01*
X124123Y-47138D01*
X124104Y-47233D01*
X124104Y-47352D01*
X124123Y-47447D01*
X124142Y-47495D01*
X124161Y-47519D01*
X124199Y-47542D01*
X124238Y-47542D01*
X124276Y-47519D01*
X124295Y-47495D01*
X124314Y-47447D01*
X124333Y-47352D01*
X124333Y-47233D01*
X124314Y-47138D01*
X124295Y-47090D01*
X124276Y-47066D01*
X124238Y-47042D01*
X123933Y-47542D02*
X123933Y-47042D01*
X123838Y-47042D01*
X123780Y-47066D01*
X123742Y-47114D01*
X123723Y-47161D01*
X123704Y-47257D01*
X123704Y-47328D01*
X123723Y-47423D01*
X123742Y-47471D01*
X123780Y-47519D01*
X123838Y-47542D01*
X123933Y-47542D01*
X123399Y-47280D02*
X123533Y-47280D01*
X123533Y-47542D02*
X123533Y-47042D01*
X123342Y-47042D01*
X123056Y-47280D02*
X123190Y-47280D01*
X123190Y-47542D02*
X123190Y-47042D01*
X122999Y-47042D01*
X122713Y-47280D02*
X122847Y-47280D01*
X122847Y-47542D02*
X122847Y-47042D01*
X122656Y-47042D01*
X122370Y-47280D02*
X122504Y-47280D01*
X122504Y-47542D02*
X122504Y-47042D01*
X122313Y-47042D01*
X122161Y-47542D02*
X122161Y-47042D01*
X121989Y-47542D02*
X121989Y-47280D01*
X122008Y-47233D01*
X122046Y-47209D01*
X122104Y-47209D01*
X122142Y-47233D01*
X122161Y-47257D01*
X121551Y-47209D02*
X121399Y-47209D01*
X121494Y-47042D02*
X121494Y-47471D01*
X121475Y-47519D01*
X121437Y-47542D01*
X121399Y-47542D01*
X121208Y-47542D02*
X121246Y-47519D01*
X121265Y-47495D01*
X121284Y-47447D01*
X121284Y-47304D01*
X121265Y-47257D01*
X121246Y-47233D01*
X121208Y-47209D01*
X121150Y-47209D01*
X121112Y-47233D01*
X121093Y-47257D01*
X121074Y-47304D01*
X121074Y-47447D01*
X121093Y-47495D01*
X121112Y-47519D01*
X121150Y-47542D01*
X121208Y-47542D01*
X120369Y-47542D02*
X120503Y-47304D01*
X120598Y-47542D02*
X120598Y-47042D01*
X120445Y-47042D01*
X120407Y-47066D01*
X120388Y-47090D01*
X120369Y-47138D01*
X120369Y-47209D01*
X120388Y-47257D01*
X120407Y-47280D01*
X120445Y-47304D01*
X120598Y-47304D01*
X120217Y-47400D02*
X120026Y-47400D01*
X120255Y-47542D02*
X120122Y-47042D01*
X119988Y-47542D01*
X119855Y-47542D02*
X119855Y-47042D01*
X119721Y-47400D01*
X119588Y-47042D01*
X119588Y-47542D01*
X130829Y-47822D02*
X130752Y-47822D01*
X130714Y-47846D01*
X130676Y-47894D01*
X130657Y-47989D01*
X130657Y-48156D01*
X130676Y-48251D01*
X130714Y-48299D01*
X130752Y-48322D01*
X130829Y-48322D01*
X130867Y-48299D01*
X130905Y-48251D01*
X130924Y-48156D01*
X130924Y-47989D01*
X130905Y-47894D01*
X130867Y-47846D01*
X130829Y-47822D01*
X130486Y-48322D02*
X130486Y-47822D01*
X130257Y-48322D01*
X130257Y-47822D01*
X129762Y-48060D02*
X129457Y-48060D01*
X129457Y-48203D02*
X129762Y-48203D01*
X128962Y-48322D02*
X128962Y-47822D01*
X128828Y-48180D01*
X128695Y-47822D01*
X128695Y-48322D01*
X128333Y-48322D02*
X128333Y-48060D01*
X128352Y-48013D01*
X128390Y-47989D01*
X128467Y-47989D01*
X128505Y-48013D01*
X128333Y-48299D02*
X128371Y-48322D01*
X128467Y-48322D01*
X128505Y-48299D01*
X128524Y-48251D01*
X128524Y-48203D01*
X128505Y-48156D01*
X128467Y-48132D01*
X128371Y-48132D01*
X128333Y-48108D01*
X128143Y-47989D02*
X128143Y-48489D01*
X128143Y-48013D02*
X128105Y-47989D01*
X128028Y-47989D01*
X127990Y-48013D01*
X127971Y-48037D01*
X127952Y-48084D01*
X127952Y-48227D01*
X127971Y-48275D01*
X127990Y-48299D01*
X128028Y-48322D01*
X128105Y-48322D01*
X128143Y-48299D01*
X127400Y-47822D02*
X127361Y-47822D01*
X127323Y-47846D01*
X127304Y-47870D01*
X127285Y-47918D01*
X127266Y-48013D01*
X127266Y-48132D01*
X127285Y-48227D01*
X127304Y-48275D01*
X127323Y-48299D01*
X127361Y-48322D01*
X127400Y-48322D01*
X127438Y-48299D01*
X127457Y-48275D01*
X127476Y-48227D01*
X127495Y-48132D01*
X127495Y-48013D01*
X127476Y-47918D01*
X127457Y-47870D01*
X127438Y-47846D01*
X127400Y-47822D01*
X127095Y-48060D02*
X126961Y-48060D01*
X126904Y-48322D02*
X127095Y-48322D01*
X127095Y-47822D01*
X126904Y-47822D01*
X126657Y-47822D02*
X126618Y-47822D01*
X126580Y-47846D01*
X126561Y-47870D01*
X126542Y-47918D01*
X126523Y-48013D01*
X126523Y-48132D01*
X126542Y-48227D01*
X126561Y-48275D01*
X126580Y-48299D01*
X126618Y-48322D01*
X126657Y-48322D01*
X126695Y-48299D01*
X126714Y-48275D01*
X126733Y-48227D01*
X126752Y-48132D01*
X126752Y-48013D01*
X126733Y-47918D01*
X126714Y-47870D01*
X126695Y-47846D01*
X126657Y-47822D01*
X126276Y-47822D02*
X126237Y-47822D01*
X126199Y-47846D01*
X126180Y-47870D01*
X126161Y-47918D01*
X126142Y-48013D01*
X126142Y-48132D01*
X126161Y-48227D01*
X126180Y-48275D01*
X126199Y-48299D01*
X126237Y-48322D01*
X126276Y-48322D01*
X126314Y-48299D01*
X126333Y-48275D01*
X126352Y-48227D01*
X126371Y-48132D01*
X126371Y-48013D01*
X126352Y-47918D01*
X126333Y-47870D01*
X126314Y-47846D01*
X126276Y-47822D01*
X125895Y-47822D02*
X125856Y-47822D01*
X125818Y-47846D01*
X125799Y-47870D01*
X125780Y-47918D01*
X125761Y-48013D01*
X125761Y-48132D01*
X125780Y-48227D01*
X125799Y-48275D01*
X125818Y-48299D01*
X125856Y-48322D01*
X125895Y-48322D01*
X125933Y-48299D01*
X125952Y-48275D01*
X125971Y-48227D01*
X125990Y-48132D01*
X125990Y-48013D01*
X125971Y-47918D01*
X125952Y-47870D01*
X125933Y-47846D01*
X125895Y-47822D01*
X125514Y-47822D02*
X125475Y-47822D01*
X125437Y-47846D01*
X125418Y-47870D01*
X125399Y-47918D01*
X125380Y-48013D01*
X125380Y-48132D01*
X125399Y-48227D01*
X125418Y-48275D01*
X125437Y-48299D01*
X125475Y-48322D01*
X125514Y-48322D01*
X125552Y-48299D01*
X125571Y-48275D01*
X125590Y-48227D01*
X125609Y-48132D01*
X125609Y-48013D01*
X125590Y-47918D01*
X125571Y-47870D01*
X125552Y-47846D01*
X125514Y-47822D01*
X125209Y-48322D02*
X125209Y-47822D01*
X125037Y-48322D02*
X125037Y-48060D01*
X125056Y-48013D01*
X125094Y-47989D01*
X125152Y-47989D01*
X125190Y-48013D01*
X125209Y-48037D01*
X124847Y-48132D02*
X124542Y-48132D01*
X124276Y-47822D02*
X124237Y-47822D01*
X124199Y-47846D01*
X124180Y-47870D01*
X124161Y-47918D01*
X124142Y-48013D01*
X124142Y-48132D01*
X124161Y-48227D01*
X124180Y-48275D01*
X124199Y-48299D01*
X124237Y-48322D01*
X124276Y-48322D01*
X124314Y-48299D01*
X124333Y-48275D01*
X124352Y-48227D01*
X124371Y-48132D01*
X124371Y-48013D01*
X124352Y-47918D01*
X124333Y-47870D01*
X124314Y-47846D01*
X124276Y-47822D01*
X123971Y-48060D02*
X123837Y-48060D01*
X123780Y-48322D02*
X123971Y-48322D01*
X123971Y-47822D01*
X123780Y-47822D01*
X123647Y-47822D02*
X123380Y-47822D01*
X123552Y-48322D01*
X123094Y-48060D02*
X123228Y-48060D01*
X123228Y-48322D02*
X123228Y-47822D01*
X123037Y-47822D01*
X122751Y-48060D02*
X122885Y-48060D01*
X122885Y-48322D02*
X122885Y-47822D01*
X122694Y-47822D01*
X122408Y-48060D02*
X122542Y-48060D01*
X122542Y-48322D02*
X122542Y-47822D01*
X122351Y-47822D01*
X122199Y-48322D02*
X122199Y-47822D01*
X122027Y-48322D02*
X122027Y-48060D01*
X122046Y-48013D01*
X122084Y-47989D01*
X122142Y-47989D01*
X122180Y-48013D01*
X122199Y-48037D01*
X121589Y-47989D02*
X121437Y-47989D01*
X121532Y-47822D02*
X121532Y-48251D01*
X121513Y-48299D01*
X121475Y-48322D01*
X121437Y-48322D01*
X121246Y-48322D02*
X121284Y-48299D01*
X121303Y-48275D01*
X121322Y-48227D01*
X121322Y-48084D01*
X121303Y-48037D01*
X121284Y-48013D01*
X121246Y-47989D01*
X121188Y-47989D01*
X121150Y-48013D01*
X121131Y-48037D01*
X121112Y-48084D01*
X121112Y-48227D01*
X121131Y-48275D01*
X121150Y-48299D01*
X121188Y-48322D01*
X121246Y-48322D01*
X120407Y-48322D02*
X120541Y-48084D01*
X120636Y-48322D02*
X120636Y-47822D01*
X120483Y-47822D01*
X120445Y-47846D01*
X120426Y-47870D01*
X120407Y-47918D01*
X120407Y-47989D01*
X120426Y-48037D01*
X120445Y-48060D01*
X120483Y-48084D01*
X120636Y-48084D01*
X120255Y-48180D02*
X120064Y-48180D01*
X120293Y-48322D02*
X120160Y-47822D01*
X120026Y-48322D01*
X119893Y-48322D02*
X119893Y-47822D01*
X119759Y-48180D01*
X119626Y-47822D01*
X119626Y-48322D01*
X130829Y-48602D02*
X130752Y-48602D01*
X130714Y-48626D01*
X130676Y-48674D01*
X130657Y-48769D01*
X130657Y-48936D01*
X130676Y-49031D01*
X130714Y-49079D01*
X130752Y-49102D01*
X130829Y-49102D01*
X130867Y-49079D01*
X130905Y-49031D01*
X130924Y-48936D01*
X130924Y-48769D01*
X130905Y-48674D01*
X130867Y-48626D01*
X130829Y-48602D01*
X130486Y-49102D02*
X130486Y-48602D01*
X130257Y-49102D01*
X130257Y-48602D01*
X129762Y-48840D02*
X129457Y-48840D01*
X129457Y-48983D02*
X129762Y-48983D01*
X128962Y-49102D02*
X128962Y-48602D01*
X128828Y-48960D01*
X128695Y-48602D01*
X128695Y-49102D01*
X128333Y-49102D02*
X128333Y-48840D01*
X128352Y-48793D01*
X128390Y-48769D01*
X128467Y-48769D01*
X128505Y-48793D01*
X128333Y-49079D02*
X128371Y-49102D01*
X128467Y-49102D01*
X128505Y-49079D01*
X128524Y-49031D01*
X128524Y-48983D01*
X128505Y-48936D01*
X128467Y-48912D01*
X128371Y-48912D01*
X128333Y-48888D01*
X128143Y-48769D02*
X128143Y-49269D01*
X128143Y-48793D02*
X128105Y-48769D01*
X128028Y-48769D01*
X127990Y-48793D01*
X127971Y-48817D01*
X127952Y-48864D01*
X127952Y-49007D01*
X127971Y-49055D01*
X127990Y-49079D01*
X128028Y-49102D01*
X128105Y-49102D01*
X128143Y-49079D01*
X127400Y-48602D02*
X127361Y-48602D01*
X127323Y-48626D01*
X127304Y-48650D01*
X127285Y-48698D01*
X127266Y-48793D01*
X127266Y-48912D01*
X127285Y-49007D01*
X127304Y-49055D01*
X127323Y-49079D01*
X127361Y-49102D01*
X127400Y-49102D01*
X127438Y-49079D01*
X127457Y-49055D01*
X127476Y-49007D01*
X127495Y-48912D01*
X127495Y-48793D01*
X127476Y-48698D01*
X127457Y-48650D01*
X127438Y-48626D01*
X127400Y-48602D01*
X127095Y-48840D02*
X126961Y-48840D01*
X126904Y-49102D02*
X127095Y-49102D01*
X127095Y-48602D01*
X126904Y-48602D01*
X126676Y-48817D02*
X126714Y-48793D01*
X126733Y-48769D01*
X126752Y-48721D01*
X126752Y-48698D01*
X126733Y-48650D01*
X126714Y-48626D01*
X126676Y-48602D01*
X126599Y-48602D01*
X126561Y-48626D01*
X126542Y-48650D01*
X126523Y-48698D01*
X126523Y-48721D01*
X126542Y-48769D01*
X126561Y-48793D01*
X126599Y-48817D01*
X126676Y-48817D01*
X126714Y-48840D01*
X126733Y-48864D01*
X126752Y-48912D01*
X126752Y-49007D01*
X126733Y-49055D01*
X126714Y-49079D01*
X126676Y-49102D01*
X126599Y-49102D01*
X126561Y-49079D01*
X126542Y-49055D01*
X126523Y-49007D01*
X126523Y-48912D01*
X126542Y-48864D01*
X126561Y-48840D01*
X126599Y-48817D01*
X126276Y-48602D02*
X126237Y-48602D01*
X126199Y-48626D01*
X126180Y-48650D01*
X126161Y-48698D01*
X126142Y-48793D01*
X126142Y-48912D01*
X126161Y-49007D01*
X126180Y-49055D01*
X126199Y-49079D01*
X126237Y-49102D01*
X126276Y-49102D01*
X126314Y-49079D01*
X126333Y-49055D01*
X126352Y-49007D01*
X126371Y-48912D01*
X126371Y-48793D01*
X126352Y-48698D01*
X126333Y-48650D01*
X126314Y-48626D01*
X126276Y-48602D01*
X125895Y-48602D02*
X125856Y-48602D01*
X125818Y-48626D01*
X125799Y-48650D01*
X125780Y-48698D01*
X125761Y-48793D01*
X125761Y-48912D01*
X125780Y-49007D01*
X125799Y-49055D01*
X125818Y-49079D01*
X125856Y-49102D01*
X125895Y-49102D01*
X125933Y-49079D01*
X125952Y-49055D01*
X125971Y-49007D01*
X125990Y-48912D01*
X125990Y-48793D01*
X125971Y-48698D01*
X125952Y-48650D01*
X125933Y-48626D01*
X125895Y-48602D01*
X125514Y-48602D02*
X125475Y-48602D01*
X125437Y-48626D01*
X125418Y-48650D01*
X125399Y-48698D01*
X125380Y-48793D01*
X125380Y-48912D01*
X125399Y-49007D01*
X125418Y-49055D01*
X125437Y-49079D01*
X125475Y-49102D01*
X125514Y-49102D01*
X125552Y-49079D01*
X125571Y-49055D01*
X125590Y-49007D01*
X125609Y-48912D01*
X125609Y-48793D01*
X125590Y-48698D01*
X125571Y-48650D01*
X125552Y-48626D01*
X125514Y-48602D01*
X125209Y-49102D02*
X125209Y-48602D01*
X125037Y-49102D02*
X125037Y-48840D01*
X125056Y-48793D01*
X125094Y-48769D01*
X125152Y-48769D01*
X125190Y-48793D01*
X125209Y-48817D01*
X124847Y-48912D02*
X124542Y-48912D01*
X124276Y-48602D02*
X124237Y-48602D01*
X124199Y-48626D01*
X124180Y-48650D01*
X124161Y-48698D01*
X124142Y-48793D01*
X124142Y-48912D01*
X124161Y-49007D01*
X124180Y-49055D01*
X124199Y-49079D01*
X124237Y-49102D01*
X124276Y-49102D01*
X124314Y-49079D01*
X124333Y-49055D01*
X124352Y-49007D01*
X124371Y-48912D01*
X124371Y-48793D01*
X124352Y-48698D01*
X124333Y-48650D01*
X124314Y-48626D01*
X124276Y-48602D01*
X123971Y-48840D02*
X123837Y-48840D01*
X123780Y-49102D02*
X123971Y-49102D01*
X123971Y-48602D01*
X123780Y-48602D01*
X123475Y-48840D02*
X123609Y-48840D01*
X123609Y-49102D02*
X123609Y-48602D01*
X123418Y-48602D01*
X123132Y-48840D02*
X123266Y-48840D01*
X123266Y-49102D02*
X123266Y-48602D01*
X123075Y-48602D01*
X122789Y-48840D02*
X122923Y-48840D01*
X122923Y-49102D02*
X122923Y-48602D01*
X122732Y-48602D01*
X122446Y-48840D02*
X122580Y-48840D01*
X122580Y-49102D02*
X122580Y-48602D01*
X122389Y-48602D01*
X122237Y-49102D02*
X122237Y-48602D01*
X122065Y-49102D02*
X122065Y-48840D01*
X122084Y-48793D01*
X122122Y-48769D01*
X122180Y-48769D01*
X122218Y-48793D01*
X122237Y-48817D01*
X121627Y-48769D02*
X121475Y-48769D01*
X121570Y-48602D02*
X121570Y-49031D01*
X121551Y-49079D01*
X121513Y-49102D01*
X121475Y-49102D01*
X121284Y-49102D02*
X121322Y-49079D01*
X121341Y-49055D01*
X121360Y-49007D01*
X121360Y-48864D01*
X121341Y-48817D01*
X121322Y-48793D01*
X121284Y-48769D01*
X121226Y-48769D01*
X121188Y-48793D01*
X121169Y-48817D01*
X121150Y-48864D01*
X121150Y-49007D01*
X121169Y-49055D01*
X121188Y-49079D01*
X121226Y-49102D01*
X121284Y-49102D01*
X120445Y-49102D02*
X120579Y-48864D01*
X120674Y-49102D02*
X120674Y-48602D01*
X120521Y-48602D01*
X120483Y-48626D01*
X120464Y-48650D01*
X120445Y-48698D01*
X120445Y-48769D01*
X120464Y-48817D01*
X120483Y-48840D01*
X120521Y-48864D01*
X120674Y-48864D01*
X120293Y-48960D02*
X120102Y-48960D01*
X120331Y-49102D02*
X120198Y-48602D01*
X120064Y-49102D01*
X119931Y-49102D02*
X119931Y-48602D01*
X119797Y-48960D01*
X119664Y-48602D01*
X119664Y-49102D01*
X113790Y-60702D02*
X113790Y-61060D01*
X113810Y-61131D01*
X113848Y-61179D01*
X113905Y-61202D01*
X113943Y-61202D01*
X113428Y-60869D02*
X113428Y-61202D01*
X113524Y-60679D02*
X113619Y-61036D01*
X113371Y-61036D01*
X112914Y-61012D02*
X112609Y-61012D01*
X111829Y-60702D02*
X111752Y-60702D01*
X111714Y-60726D01*
X111676Y-60774D01*
X111657Y-60869D01*
X111657Y-61036D01*
X111676Y-61131D01*
X111714Y-61179D01*
X111752Y-61202D01*
X111829Y-61202D01*
X111867Y-61179D01*
X111905Y-61131D01*
X111924Y-61036D01*
X111924Y-60869D01*
X111905Y-60774D01*
X111867Y-60726D01*
X111829Y-60702D01*
X111486Y-61202D02*
X111486Y-60702D01*
X111257Y-61202D01*
X111257Y-60702D01*
X110819Y-60869D02*
X110667Y-60869D01*
X110762Y-61202D02*
X110762Y-60774D01*
X110743Y-60726D01*
X110705Y-60702D01*
X110667Y-60702D01*
X110476Y-61202D02*
X110514Y-61179D01*
X110533Y-61155D01*
X110552Y-61107D01*
X110552Y-60964D01*
X110533Y-60917D01*
X110514Y-60893D01*
X110476Y-60869D01*
X110418Y-60869D01*
X110380Y-60893D01*
X110361Y-60917D01*
X110342Y-60964D01*
X110342Y-61107D01*
X110361Y-61155D01*
X110380Y-61179D01*
X110418Y-61202D01*
X110476Y-61202D01*
X110171Y-61202D02*
X110171Y-60869D01*
X110171Y-60964D02*
X110152Y-60917D01*
X110133Y-60893D01*
X110095Y-60869D01*
X110056Y-60869D01*
X109389Y-61155D02*
X109408Y-61179D01*
X109465Y-61202D01*
X109503Y-61202D01*
X109561Y-61179D01*
X109599Y-61131D01*
X109618Y-61083D01*
X109637Y-60988D01*
X109637Y-60917D01*
X109618Y-60821D01*
X109599Y-60774D01*
X109561Y-60726D01*
X109503Y-60702D01*
X109465Y-60702D01*
X109408Y-60726D01*
X109389Y-60750D01*
X109027Y-61202D02*
X109218Y-61202D01*
X109218Y-60702D01*
X108894Y-61012D02*
X108589Y-61012D01*
X108189Y-60726D02*
X108227Y-60702D01*
X108284Y-60702D01*
X108342Y-60726D01*
X108380Y-60774D01*
X108399Y-60821D01*
X108418Y-60917D01*
X108418Y-60988D01*
X108399Y-61083D01*
X108380Y-61131D01*
X108342Y-61179D01*
X108284Y-61202D01*
X108246Y-61202D01*
X108189Y-61179D01*
X108170Y-61155D01*
X108170Y-60988D01*
X108246Y-60988D01*
X107999Y-61202D02*
X107999Y-60702D01*
X107904Y-60702D01*
X107846Y-60726D01*
X107808Y-60774D01*
X107789Y-60821D01*
X107770Y-60917D01*
X107770Y-60988D01*
X107789Y-61083D01*
X107808Y-61131D01*
X107846Y-61179D01*
X107904Y-61202D01*
X107999Y-61202D01*
X107408Y-60702D02*
X107599Y-60702D01*
X107618Y-60940D01*
X107599Y-60917D01*
X107561Y-60893D01*
X107465Y-60893D01*
X107427Y-60917D01*
X107408Y-60940D01*
X107389Y-60988D01*
X107389Y-61107D01*
X107408Y-61155D01*
X107427Y-61179D01*
X107465Y-61202D01*
X107561Y-61202D01*
X107599Y-61179D01*
X107618Y-61155D01*
X107046Y-60869D02*
X107046Y-61202D01*
X107142Y-60679D02*
X107237Y-61036D01*
X106989Y-61036D01*
X106856Y-60750D02*
X106837Y-60726D01*
X106799Y-60702D01*
X106703Y-60702D01*
X106665Y-60726D01*
X106646Y-60750D01*
X106627Y-60798D01*
X106627Y-60845D01*
X106646Y-60917D01*
X106875Y-61202D01*
X106627Y-61202D01*
X106494Y-61202D02*
X106284Y-60869D01*
X106494Y-60869D02*
X106284Y-61202D01*
X106113Y-61179D02*
X106113Y-61202D01*
X106132Y-61250D01*
X106151Y-61274D01*
X105580Y-61202D02*
X105618Y-61179D01*
X105637Y-61155D01*
X105656Y-61107D01*
X105656Y-60964D01*
X105637Y-60917D01*
X105618Y-60893D01*
X105580Y-60869D01*
X105522Y-60869D01*
X105484Y-60893D01*
X105465Y-60917D01*
X105446Y-60964D01*
X105446Y-61107D01*
X105465Y-61155D01*
X105484Y-61179D01*
X105522Y-61202D01*
X105580Y-61202D01*
X105332Y-60869D02*
X105180Y-60869D01*
X105275Y-60702D02*
X105275Y-61131D01*
X105256Y-61179D01*
X105218Y-61202D01*
X105180Y-61202D01*
X105046Y-61202D02*
X105046Y-60702D01*
X104874Y-61202D02*
X104874Y-60940D01*
X104893Y-60893D01*
X104931Y-60869D01*
X104989Y-60869D01*
X105027Y-60893D01*
X105046Y-60917D01*
X104531Y-61179D02*
X104569Y-61202D01*
X104646Y-61202D01*
X104684Y-61179D01*
X104703Y-61131D01*
X104703Y-60940D01*
X104684Y-60893D01*
X104646Y-60869D01*
X104569Y-60869D01*
X104531Y-60893D01*
X104512Y-60940D01*
X104512Y-60988D01*
X104703Y-61036D01*
X104341Y-61202D02*
X104341Y-60869D01*
X104341Y-60964D02*
X104322Y-60917D01*
X104303Y-60893D01*
X104265Y-60869D01*
X104226Y-60869D01*
X104131Y-60869D02*
X104055Y-61202D01*
X103978Y-60964D01*
X103902Y-61202D01*
X103826Y-60869D01*
X103674Y-61202D02*
X103674Y-60869D01*
X103674Y-60702D02*
X103693Y-60726D01*
X103674Y-60750D01*
X103655Y-60726D01*
X103674Y-60702D01*
X103674Y-60750D01*
X103503Y-61179D02*
X103465Y-61202D01*
X103389Y-61202D01*
X103350Y-61179D01*
X103331Y-61131D01*
X103331Y-61107D01*
X103350Y-61060D01*
X103389Y-61036D01*
X103446Y-61036D01*
X103484Y-61012D01*
X103503Y-60964D01*
X103503Y-60940D01*
X103484Y-60893D01*
X103446Y-60869D01*
X103389Y-60869D01*
X103350Y-60893D01*
X103007Y-61179D02*
X103045Y-61202D01*
X103122Y-61202D01*
X103160Y-61179D01*
X103179Y-61131D01*
X103179Y-60940D01*
X103160Y-60893D01*
X103122Y-60869D01*
X103045Y-60869D01*
X103007Y-60893D01*
X102988Y-60940D01*
X102988Y-60988D01*
X103179Y-61036D01*
X102436Y-60702D02*
X102359Y-60702D01*
X102321Y-60726D01*
X102283Y-60774D01*
X102264Y-60869D01*
X102264Y-61036D01*
X102283Y-61131D01*
X102321Y-61179D01*
X102359Y-61202D01*
X102436Y-61202D01*
X102474Y-61179D01*
X102512Y-61131D01*
X102531Y-61036D01*
X102531Y-60869D01*
X102512Y-60774D01*
X102474Y-60726D01*
X102436Y-60702D01*
X101959Y-60940D02*
X102093Y-60940D01*
X102093Y-61202D02*
X102093Y-60702D01*
X101902Y-60702D01*
X101616Y-60940D02*
X101750Y-60940D01*
X101750Y-61202D02*
X101750Y-60702D01*
X101559Y-60702D01*
M02*
